<svg id="visual" viewBox="0 0 960 540" width="960" height="540" xmlns="http://www.w3.org/2000/svg" xmlns:xlink="http://www.w3.org/1999/xlink" version="1.1"><rect x="0" y="0" width="960" height="540" fill="#FFFFFF"></rect><defs><linearGradient id="grad1_0" x1="43.8%" y1="0%" x2="100%" y2="100%"><stop offset="14.444444444444446%" stop-color="#ffffff" stop-opacity="1"></stop><stop offset="85.55555555555554%" stop-color="#ffffff" stop-opacity="1"></stop></linearGradient></defs><defs><linearGradient id="grad2_0" x1="0%" y1="0%" x2="56.3%" y2="100%"><stop offset="14.444444444444446%" stop-color="#ffffff" stop-opacity="1"></stop><stop offset="85.55555555555554%" stop-color="#ffffff" stop-opacity="1"></stop></linearGradient></defs><g transform="translate(960, 0)"><path d="M0 432C-28 424.4 -55.9 416.9 -80.6 405.1C-105.2 393.3 -126.6 377.2 -153.5 370.5C-180.3 363.7 -212.7 366.3 -236.1 353.4C-259.5 340.5 -273.9 312.2 -288.5 288.5C-303.1 264.8 -317.8 245.7 -340.1 227.2C-362.3 208.7 -392 190.8 -399.1 165.3C-406.2 139.8 -390.6 106.8 -392.3 78C-394 49.2 -413 24.6 -432 0L0 0Z" fill="#f94a4a"></path></g><g transform="translate(0, 540)"><path d="M0 -432C23.8 -408.8 47.5 -385.6 76.1 -382.5C104.7 -379.4 138 -396.3 160.3 -387.1C182.7 -378 193.9 -342.8 219.5 -328.4C245 -314.1 284.9 -320.6 305.5 -305.5C326.1 -290.4 327.4 -253.7 338.4 -226.1C349.4 -198.6 370.1 -180.2 377.9 -156.5C385.6 -132.9 380.5 -104 387.4 -77.1C394.3 -50.1 413.1 -25.1 432 0L0 0Z" fill="#f94a4a"></path></g></svg>