<svg xmlns="http://www.w3.org/2000/svg" xmlns:xlink="http://www.w3.org/1999/xlink" viewBox="0 0 32 32"><defs><linearGradient id="a" x1="-5.18" x2="26.49" y1="5.92" y2="37.17" gradientUnits="userSpaceOnUse"><stop offset="0" stop-color="#ea5455"/><stop offset="1" stop-color="#feb692"/></linearGradient><linearGradient id="b" x1="5.83" x2="37.5" y1="-5.24" y2="26.01" xlink:href="#a"/></defs><g data-name="blood donation"><path fill="url(#a)" d="M30.86 24a2.49 2.49 0 0 0-2.93-1.55l-3.95 1v-.05a.77.77 0 0 0 0-.15 1.53 1.53 0 0 0 0-.3 1.29 1.29 0 0 0 0-.19 1.62 1.62 0 0 0 0-.19l-.06-.14v-.07a2.47 2.47 0 0 0-.89-1.08l-.22-.13-.29-.15-.32-.13h-.08l-.34-.08h-2.2l-.58-.17a11.27 11.27 0 0 1-1.87-.62l-1.9-.84a2.56 2.56 0 0 0-1.59-.16l-3.21.69a3.55 3.55 0 0 0-.53-1.17A3 3 0 0 0 8 17.28l-5.82-.87A1 1 0 0 0 1 17.4v12a1 1 0 0 0 1 1h4.4a3.08 3.08 0 0 0 2.91-2.61l7.22 2.78a6.05 6.05 0 0 0 2.26.43 6.17 6.17 0 0 0 2.31-.45l8.29-3.36A2.57 2.57 0 0 0 30.86 24ZM6.4 28.4H3v-9.84l4.67.7a1 1 0 0 1 .61.42 1.71 1.71 0 0 1 .26 1.26v.11l-.94 5.1v.07l-.21 1.1c-.14.68-.55 1.08-.99 1.08Zm22.23-3.06-8.28 3.35a4.2 4.2 0 0 1-3.1 0L9.7 25.8l.52-2.43.23-1.64 3.61-.79a.55.55 0 0 1 .36 0l1.9.83.32.14a10.1 10.1 0 0 0 2 .63c.23.05.46.07.7.1h.25a7.81 7.81 0 0 0 .83 0h.9a.76.76 0 0 1 .21 0l.17.07h.05l.07.06a.61.61 0 0 1 .14.29v.34a.56.56 0 0 1-.1.15.34.34 0 0 1-.06.06.56.56 0 0 1-.38.14H14.3a1 1 0 0 0 0 2h7.12a2.51 2.51 0 0 0 1.13-.27h.28a1 1 0 0 0 .41 0l5.19-1.3a.47.47 0 0 1 .57.32.56.56 0 0 1-.37.84Z"/><path fill="url(#b)" d="M21.27 17a6 6 0 0 0 6-6c0-4.92-5.11-9.55-5.33-9.75a1 1 0 0 0-1.33 0c-.22.2-5.34 4.83-5.34 9.75a6 6 0 0 0 6 6Zm0-13.6c1.29 1.34 4 4.52 4 7.6a4 4 0 0 1-8 0c0-3.08 2.73-6.26 4-7.6Z"/></g></svg>