<svg xmlns="http://www.w3.org/2000/svg" xmlns:xlink="http://www.w3.org/1999/xlink" width="1348" zoomAndPan="magnify" viewBox="0 0 1011 374.999991" height="500" preserveAspectRatio="xMidYMid meet" version="1.0"><defs><g/><clipPath id="359da02f9c"><path d="M 513 208 L 617 208 L 617 374.261719 L 513 374.261719 Z M 513 208 " clip-rule="nonzero"/></clipPath><clipPath id="10646fb862"><path d="M 492 238 L 530 238 L 530 374.261719 L 492 374.261719 Z M 492 238 " clip-rule="nonzero"/></clipPath><clipPath id="8bc0604e18"><path d="M 392 246 L 486 246 L 486 374.261719 L 392 374.261719 Z M 392 246 " clip-rule="nonzero"/></clipPath><clipPath id="752c949cca"><path d="M 469 188 L 518 188 L 518 374.261719 L 469 374.261719 Z M 469 188 " clip-rule="nonzero"/></clipPath><clipPath id="9efb71d41c"><path d="M 402 163 L 518 163 L 518 374.261719 L 402 374.261719 Z M 402 163 " clip-rule="nonzero"/></clipPath><clipPath id="357a3b5aad"><path d="M 542 291 L 620 291 L 620 374.261719 L 542 374.261719 Z M 542 291 " clip-rule="nonzero"/></clipPath><clipPath id="cd8aedcbc9"><path d="M 500 130.511719 L 594 130.511719 L 594 374.261719 L 500 374.261719 Z M 500 130.511719 " clip-rule="nonzero"/></clipPath></defs><rect x="-101.1" width="1213.2" fill="#ffffff" y="-37.499999" height="449.999989" fill-opacity="1"/><rect x="-101.1" width="1213.2" fill="#ffffff" y="-37.499999" height="449.999989" fill-opacity="1"/><rect x="-101.1" width="1213.2" fill="#ffffff" y="-37.499999" height="449.999989" fill-opacity="1"/><g clip-path="url(#359da02f9c)"><path fill="#a98066" d="M 544.664062 374.011719 C 547.371094 366.96875 557.859375 327.667969 561.671875 318.3125 C 563.203125 314.550781 570.167969 295.992188 581.90625 278.933594 C 582.914062 277.46875 585.714844 277.054688 588.003906 275.273438 C 590.34375 273.449219 592.941406 272 595.351562 270.28125 C 600.613281 266.53125 603.679688 262.101562 610.066406 259.921875 C 611.675781 259.371094 615.214844 259.4375 616.234375 257.925781 C 617.617188 255.863281 614.617188 254.667969 613.183594 254.148438 C 610.21875 253.074219 607.800781 253.4375 605.097656 254.777344 C 603.929688 255.355469 597.652344 256.746094 597.128906 257.835938 C 594.570312 254.949219 596.964844 251.660156 597.996094 248.195312 C 599.027344 244.738281 601.152344 240.765625 602.613281 236.253906 C 604.488281 230.476562 607.320312 225.988281 608.742188 219.601562 C 609.335938 216.929688 607.359375 214.988281 605.042969 217.453125 C 603.261719 219.351562 602.050781 222.652344 600.925781 225.351562 C 600.164062 227.179688 593.890625 241.710938 592.679688 240.035156 C 591.796875 238.824219 594.640625 232.035156 595.046875 230.761719 C 596.273438 226.984375 597.316406 223.792969 598.273438 219.9375 C 598.8125 217.761719 602.820312 207.085938 597.136719 209.160156 C 595.027344 209.929688 593.695312 214.6875 592.679688 217.390625 C 591.394531 220.804688 590.710938 223.183594 589.148438 227.785156 C 588.492188 229.726562 586.628906 236.910156 585.402344 236.625 C 584.117188 236.328125 586.132812 230.320312 586.402344 229.132812 C 587.265625 225.273438 588.0625 221.578125 588.96875 218.3125 C 589.855469 215.113281 591.464844 207.8125 588.171875 208.183594 C 584.242188 208.628906 583.292969 217.957031 582.261719 221.230469 C 580.792969 225.902344 580.359375 228.023438 579.34375 231.519531 C 578.726562 233.628906 577.203125 238.699219 577.125 236.046875 C 577.066406 233.753906 576.769531 228.878906 577.070312 224.273438 C 577.203125 222.207031 577.167969 215.222656 574.363281 214.710938 C 572.242188 214.324219 572.308594 223.613281 572.203125 225.515625 C 571.945312 230.191406 572.695312 230.105469 571.535156 240.203125 C 570.925781 245.492188 569.757812 252.222656 569.039062 258.898438 C 568.449219 264.433594 568.867188 268.621094 568.457031 271.058594 C 568.023438 273.628906 549.519531 302.960938 546.878906 307.242188 C 542.054688 315.058594 523.921875 355.15625 513.566406 374.011719 Z M 544.664062 374.011719 " fill-opacity="1" fill-rule="nonzero"/></g><g clip-path="url(#10646fb862)"><path fill="#de8b81" d="M 499.390625 262.453125 C 501.105469 264.371094 502.03125 265.617188 502.441406 268.261719 C 502.757812 270.296875 503.429688 272.039062 504.355469 273.859375 C 504.722656 274.582031 506.355469 277.566406 506.941406 278.289062 C 507.472656 278.949219 507.90625 279.953125 508.058594 280.648438 C 508.328125 281.863281 508.398438 284.445312 508.171875 286.902344 C 508.0625 288.082031 504.734375 303.371094 504.332031 305.183594 C 504.289062 305.394531 497.066406 346.246094 492.140625 374.015625 L 509.324219 374.015625 C 513.1875 340.828125 518.800781 292.65625 519.277344 289.695312 C 519.703125 287.035156 520.605469 283.679688 521.453125 281.105469 C 521.941406 279.617188 522.667969 277.5625 523.140625 276.058594 C 524.457031 271.863281 524.554688 266.707031 526.449219 259.910156 C 526.992188 257.960938 530.757812 247.984375 528.21875 248.09375 C 526.902344 248.152344 526.027344 251.382812 525.632812 252.480469 C 524.8125 254.769531 523.265625 260.589844 522.796875 260.601562 C 521.613281 260.636719 522.679688 256.191406 522.949219 254.480469 C 523.238281 252.652344 524.078125 248.144531 524.464844 246.347656 C 524.851562 244.542969 525.378906 241.707031 523.570312 241.421875 C 521.917969 241.160156 521.296875 245.234375 520.988281 246.378906 C 520.539062 248.050781 520.058594 249.992188 519.613281 251.796875 C 519.398438 252.664062 518.5625 257.945312 518.113281 257.9375 C 517.6875 257.929688 518.863281 252.445312 519.050781 251.640625 C 519.527344 249.597656 521.066406 242.289062 520.875 240.902344 C 520.707031 239.703125 519.539062 238.25 518.382812 239.296875 C 517.664062 239.945312 517.3125 241.714844 517.070312 242.625 C 515.976562 246.722656 514.75 251.925781 514.078125 255.914062 C 513.996094 256.402344 514.015625 257.347656 513.511719 257.546875 C 513.011719 257.742188 512.90625 257.082031 512.886719 256.625 C 512.820312 255.042969 513.289062 252.941406 513.453125 251.386719 C 513.648438 249.578125 513.765625 247.742188 514.109375 245.9375 C 514.359375 244.625 514.71875 242.84375 514.246094 241.539062 C 513.757812 240.199219 512.8125 239.816406 511.957031 241.003906 C 511.082031 242.210938 510.859375 244.742188 510.476562 246.214844 C 510.1875 247.34375 508.863281 255.933594 508.5625 257.125 C 508.167969 258.71875 507.367188 265.195312 506.324219 265.042969 C 505.777344 264.960938 504.464844 261.894531 503.988281 261.167969 C 503.136719 259.867188 501.78125 258.445312 500.242188 258.132812 C 499.304688 257.945312 496.988281 257.386719 496.21875 258.910156 C 495.652344 260.035156 498.785156 261.78125 499.390625 262.453125 Z M 499.390625 262.453125 " fill-opacity="1" fill-rule="nonzero"/></g><g clip-path="url(#8bc0604e18)"><path fill="#e8c0ba" d="M 418.582031 302.503906 C 420.3125 304.195312 424.871094 307.714844 426.496094 309.484375 C 429.308594 312.539062 438.164062 326.222656 441.304688 331.53125 C 444.613281 337.121094 453.761719 356.65625 461.675781 374.015625 L 485.878906 374.015625 C 472.179688 353.113281 458.902344 332.988281 456.960938 330.390625 C 455.257812 328.113281 446.488281 313.714844 445.507812 312.183594 C 441.289062 305.574219 441.796875 302.558594 441.402344 300.691406 C 441.175781 299.625 441.601562 298.023438 441.925781 296.765625 C 442.28125 295.386719 442.675781 290.183594 442.730469 288.949219 C 442.871094 285.824219 442.707031 282.96875 441.859375 279.925781 C 440.761719 275.980469 441.546875 271.730469 442.304688 267.863281 C 442.703125 265.832031 443.011719 262.851562 442.441406 262.21875 C 440.730469 260.324219 437.308594 264.164062 436.929688 265.683594 C 436.582031 267.089844 435.972656 268.429688 435.921875 271.566406 C 435.898438 272.902344 436.507812 277.679688 434.398438 277.894531 C 431.527344 278.1875 427.828125 270.238281 426.265625 268.261719 C 425.097656 266.792969 419.203125 255.273438 418.085938 253.886719 C 416.621094 252.074219 415.269531 248.414062 413.285156 247.28125 C 411.34375 246.175781 409.476562 247.511719 410.433594 249.476562 C 411.578125 251.835938 415.570312 259.617188 417.332031 263.148438 C 419.394531 267.277344 421.316406 270.988281 420.109375 271.761719 C 419.40625 272.214844 418.4375 270.550781 418.015625 269.921875 C 414.679688 264.96875 409.882812 258.699219 405.519531 253.367188 C 404.605469 252.253906 402.699219 250.058594 401.292969 249.609375 C 399.015625 248.882812 398.460938 251.378906 398.988281 253.15625 C 399.597656 255.210938 406.289062 264.195312 408.246094 266.746094 C 409.015625 267.75 414.046875 275.164062 413.457031 275.445312 C 412.835938 275.742188 407.960938 268.894531 407.113281 267.816406 C 405.351562 265.582031 403.496094 263.371094 401.8125 261.324219 C 400.65625 259.917969 396.859375 254.828125 394.722656 256.238281 C 392.378906 257.785156 395.335938 261.328125 397.019531 263.597656 C 398.691406 265.863281 401.925781 270.988281 403.726562 273.175781 C 406.300781 276.304688 410.28125 281.429688 408.609375 282.128906 C 408.53125 282.164062 404.847656 278.492188 401.578125 274.960938 C 398.957031 272.128906 394.585938 267.917969 392.886719 269.003906 C 390.390625 270.609375 400.316406 279.914062 403.078125 283.472656 C 409.707031 292.007812 412.628906 296.683594 418.582031 302.503906 Z M 418.582031 302.503906 " fill-opacity="1" fill-rule="nonzero"/></g><g clip-path="url(#752c949cca)"><path fill="#ead2c1" d="M 472.972656 235.304688 C 473.429688 237.53125 476.253906 244.101562 476.738281 246.308594 C 478.558594 254.5625 480.980469 336.144531 481.949219 374.011719 L 502.445312 374.011719 C 502.050781 371.089844 501.542969 367.363281 501.335938 365.601562 C 501.027344 362.960938 493.570312 255.753906 493.476562 254.0625 C 493.359375 252.097656 494.660156 250.664062 495.277344 249.011719 C 495.628906 248.070312 496.378906 247.222656 497.300781 246.414062 C 498.3125 245.523438 501.316406 241.675781 501.996094 240.742188 C 503.722656 238.378906 505.042969 236.074219 505.878906 233.273438 C 506.960938 229.640625 508.582031 228.089844 511.519531 225.765625 C 512.558594 224.949219 517.621094 223.179688 516.953125 221.464844 C 516.050781 219.15625 512.3125 219.765625 510.855469 219.828125 C 508.472656 219.929688 506.277344 221.296875 504.761719 222.9375 C 503.910156 223.859375 501.382812 227.890625 500.539062 227.882812 C 498.929688 227.867188 498.839844 218.570312 498.515625 216.234375 C 498.273438 214.492188 497.097656 202.085938 496.847656 200.4375 C 496.527344 198.28125 496.628906 194.660156 495.511719 192.761719 C 494.417969 190.910156 492.917969 191.238281 491.945312 193.019531 C 490.996094 194.753906 491.230469 197.34375 491.382812 199.25 C 491.546875 201.339844 491.910156 204.128906 492.148438 207.796875 C 492.335938 210.742188 492.882812 215.824219 491.453125 215.8125 C 490.625 215.804688 490.648438 214.015625 490.609375 213.308594 C 490.28125 207.535156 489.070312 199.949219 488.125 193.929688 C 487.917969 192.597656 487.6875 190.027344 486.714844 188.960938 C 485.136719 187.230469 483.105469 189.019531 482.648438 190.671875 C 482.113281 192.582031 483.507812 202.863281 483.875 205.847656 C 484.023438 207.023438 484.523438 215.363281 483.875 215.277344 C 483.191406 215.191406 482.53125 207.375 482.359375 206.101562 C 482 203.464844 481.542969 200.789062 481.15625 198.339844 C 480.882812 196.65625 481.015625 190.800781 478.46875 190.808594 C 475.664062 190.8125 475.609375 195.039062 475.882812 197.664062 C 476.15625 200.28125 476.292969 205.921875 476.714844 208.542969 C 477.3125 212.292969 478.089844 218.316406 476.300781 218.003906 C 475.589844 217.882812 474.847656 209.769531 474.734375 206.296875 C 474.652344 203.804688 473.742188 199.160156 471.734375 199.140625 C 468.773438 199.113281 470.339844 212.046875 470.882812 216.226562 C 472.171875 226.253906 471.703125 229.101562 472.972656 235.304688 Z M 472.972656 235.304688 " fill-opacity="1" fill-rule="nonzero"/></g><g clip-path="url(#9efb71d41c)"><path fill="#a7847d" d="M 409.363281 221.242188 C 416.546875 224.628906 419.554688 230.210938 425.214844 235.28125 C 427.8125 237.605469 430.660156 239.644531 433.160156 242.082031 C 435.601562 244.460938 438.820312 245.3125 439.808594 247.15625 C 451.304688 268.640625 457.023438 291.253906 458.320312 295.855469 C 461.195312 306.03125 475.078125 356.871094 479.683594 374.011719 L 517.316406 374.011719 C 505.300781 346.917969 481.5 294.226562 477.066406 284.84375 C 474.539062 279.492188 456.734375 242.773438 456.566406 239.707031 C 456.40625 236.804688 457.441406 231.960938 457.472656 225.414062 C 457.511719 217.511719 457.019531 209.496094 457 203.226562 C 456.964844 191.265625 457.828125 191.464844 458.140625 185.964844 C 458.265625 183.726562 459.558594 172.871094 457.027344 173.046875 C 453.679688 173.28125 452.726562 181.445312 452.613281 183.878906 C 452.359375 189.304688 451.378906 194.960938 451.003906 197.632812 C 450.570312 200.730469 449.449219 194.601562 449.003906 192.050781 C 448.273438 187.832031 448.046875 185.292969 446.9375 179.640625 C 446.160156 175.675781 446.269531 164.644531 441.730469 163.609375 C 437.929688 162.742188 438.859375 171.492188 439.476562 175.351562 C 440.105469 179.289062 440.558594 183.710938 441.066406 188.335938 C 441.222656 189.765625 442.792969 197.050781 441.25 197.230469 C 439.777344 197.402344 438.542969 188.761719 438.023438 186.402344 C 436.800781 180.816406 436.3125 177.949219 435.257812 173.785156 C 434.425781 170.492188 433.488281 164.757812 431.121094 163.582031 C 424.746094 160.40625 428.035156 173.421875 428.382812 176.03125 C 428.996094 180.664062 429.800781 184.535156 430.738281 189.113281 C 431.054688 190.652344 433.484375 198.964844 432.300781 200.265625 C 430.664062 202.0625 425.226562 184.253906 424.574219 182.011719 C 423.609375 178.710938 422.628906 174.691406 420.792969 172.242188 C 418.410156 169.058594 415.839844 171.066406 416.183594 174.269531 C 417.011719 181.921875 419.742188 187.542969 421.175781 194.542969 C 422.292969 200.011719 424.261719 204.933594 425.011719 209.109375 C 425.765625 213.296875 428.136719 217.460938 424.769531 220.496094 C 424.296875 219.15625 417.140625 216.703125 415.847656 215.875 C 412.867188 213.960938 410.085938 213.214844 406.476562 214.085938 C 404.730469 214.507812 401.066406 215.507812 402.417969 218.101562 C 403.410156 220.003906 407.554688 220.390625 409.363281 221.242188 Z M 409.363281 221.242188 " fill-opacity="1" fill-rule="nonzero"/></g><g clip-path="url(#357a3b5aad)"><path fill="#f2b6aa" d="M 559.378906 374.011719 C 572.324219 358.175781 582.472656 346.109375 584.953125 344.113281 C 586.691406 342.714844 592.871094 339.398438 594.601562 337.96875 C 599.425781 333.980469 600.875 331.496094 608.121094 324.582031 C 611.140625 321.699219 620.414062 312.710938 618.253906 310.914062 C 616.78125 309.691406 613.203125 312.699219 611.574219 314.574219 C 609.308594 317.175781 603.667969 322.953125 603.074219 322.613281 C 601.582031 321.75 605.933594 317.597656 608.726562 315.082031 C 610.679688 313.320312 614.328125 309.070312 616.171875 307.222656 C 618.023438 305.367188 620.640625 302.085938 618.613281 300.359375 C 616.769531 298.78125 613.183594 303.371094 611.929688 304.496094 C 610.105469 306.144531 608.09375 307.921875 606.171875 309.726562 C 605.246094 310.601562 599.847656 316.210938 599.304688 315.855469 C 598.777344 315.519531 604.386719 309.414062 605.230469 308.597656 C 607.371094 306.53125 614.855469 299.480469 615.667969 297.683594 C 616.375 296.128906 616.027344 293.503906 613.796875 293.863281 C 612.417969 294.085938 610.640625 295.921875 609.648438 296.816406 C 605.175781 300.867188 599.527344 305.960938 595.660156 310.195312 C 595.1875 310.714844 594.082031 312.105469 593.476562 311.601562 C 592.425781 310.730469 596.019531 307.15625 598.011719 305.011719 C 600.496094 302.335938 602.511719 300.410156 603.941406 298.910156 C 605.25 297.535156 607.050781 295.6875 607.453125 293.765625 C 607.867188 291.796875 606.988281 290.625 605.027344 291.375 C 603.027344 292.144531 600.824219 294.996094 599.234375 296.453125 C 598.015625 297.574219 589.359375 306.390625 588.089844 307.582031 C 586.382812 309.175781 580.472656 316.277344 579.300781 315.296875 C 578.683594 314.785156 579.386719 310.128906 579.347656 308.894531 C 579.28125 306.699219 578.550781 304.296875 576.886719 302.75 C 575.867188 301.804688 573.546875 299.039062 571.441406 300.257812 C 569.875 301.164062 572.433594 305.644531 572.667969 306.910156 C 573.335938 310.503906 573.535156 312.695312 572.035156 316.15625 C 570.878906 318.824219 570.386719 321.414062 570.152344 324.289062 C 570.058594 325.429688 569.8125 330.234375 569.984375 331.542969 C 570.144531 332.734375 570.152344 333.84375 569.816406 334.785156 C 569.222656 336.441406 569.265625 338.339844 567.949219 339.78125 C 567.417969 340.359375 556.648438 355.085938 542.285156 374.011719 Z M 559.378906 374.011719 " fill-opacity="1" fill-rule="nonzero"/></g><path fill="#f79cb4" d="M 573.882812 245.117188 C 574.691406 243.835938 576.269531 242.949219 577.753906 242.738281 C 578.5 242.632812 579.277344 242.636719 580.011719 242.828125 C 582.890625 243.578125 584.09375 246.0625 584.144531 246.160156 C 584.242188 246.097656 586.496094 244.507812 589.371094 245.25 C 590.109375 245.441406 590.789062 245.8125 591.394531 246.269531 C 592.589844 247.171875 593.535156 248.710938 593.625 250.222656 C 593.832031 253.6875 590.554688 257.554688 588.644531 258.992188 C 584.367188 262.214844 580.019531 262.742188 579.859375 262.757812 L 579.855469 262.761719 L 579.855469 262.757812 C 579.851562 262.757812 579.851562 262.757812 579.851562 262.757812 C 579.71875 262.664062 576.171875 260.09375 573.988281 255.203125 C 573.019531 253.023438 572.023438 248.046875 573.882812 245.117188 Z M 573.882812 245.117188 " fill-opacity="1" fill-rule="nonzero"/><path fill="#d13d87" d="M 496.265625 224.851562 C 495.632812 223.429688 494.160156 222.285156 492.683594 221.847656 C 491.933594 221.625 491.144531 221.511719 490.367188 221.597656 C 487.324219 221.925781 485.726562 224.273438 485.660156 224.367188 C 485.570312 224.289062 483.511719 222.328125 480.472656 222.648438 C 479.691406 222.726562 478.945312 223.003906 478.257812 223.378906 C 476.902344 224.117188 475.707031 225.539062 475.386719 227.066406 C 474.65625 230.5625 477.410156 235 479.132812 236.75 C 483.003906 240.675781 487.351562 241.871094 487.511719 241.914062 L 487.511719 241.917969 C 487.511719 241.917969 487.515625 241.917969 487.515625 241.914062 C 487.515625 241.914062 487.519531 241.917969 487.519531 241.917969 L 487.519531 241.914062 C 487.667969 241.835938 491.667969 239.757812 494.632812 235.105469 C 495.949219 233.035156 497.710938 228.121094 496.265625 224.851562 Z M 496.265625 224.851562 " fill-opacity="1" fill-rule="nonzero"/><path fill="#983955" d="M 509.644531 262.328125 C 510.183594 261.46875 511.238281 260.871094 512.230469 260.726562 C 512.730469 260.652344 513.25 260.652344 513.742188 260.78125 C 515.671875 261.273438 516.484375 262.9375 516.519531 263 C 516.582031 262.960938 518.089844 261.890625 520.019531 262.378906 C 520.511719 262.507812 520.972656 262.753906 521.375 263.058594 C 522.179688 263.660156 522.820312 264.6875 522.882812 265.699219 C 523.027344 268.023438 520.839844 270.621094 519.566406 271.585938 C 516.707031 273.753906 513.800781 274.117188 513.691406 274.128906 C 513.691406 274.128906 513.691406 274.128906 513.6875 274.128906 L 513.683594 274.128906 L 513.6875 274.128906 C 513.597656 274.0625 511.214844 272.351562 509.742188 269.082031 C 509.082031 267.625 508.40625 264.296875 509.644531 262.328125 Z M 509.644531 262.328125 " fill-opacity="1" fill-rule="nonzero"/><path fill="#cc4062" d="M 427.816406 277.710938 C 426.613281 276.855469 424.855469 276.636719 423.4375 276.992188 C 422.71875 277.175781 422.019531 277.46875 421.425781 277.910156 C 419.097656 279.65625 418.933594 282.351562 418.917969 282.457031 C 418.8125 282.4375 416.179688 281.835938 413.847656 283.570312 C 413.253906 284.011719 412.773438 284.601562 412.394531 285.238281 C 411.648438 286.5 411.363281 288.246094 411.839844 289.644531 C 412.9375 292.855469 417.335938 295.144531 419.59375 295.734375 C 424.660156 297.066406 428.785156 295.933594 428.941406 295.890625 L 428.941406 295.894531 C 428.941406 295.894531 428.941406 295.890625 428.941406 295.890625 C 428.941406 295.890625 428.945312 295.890625 428.945312 295.890625 C 429.027344 295.753906 431.289062 292.117188 431.453125 286.878906 C 431.523438 284.546875 430.582031 279.675781 427.816406 277.710938 Z M 427.816406 277.710938 " fill-opacity="1" fill-rule="nonzero"/><path fill="#cc4062" d="M 599.726562 329.027344 C 600.40625 327.753906 600.371094 326.019531 599.816406 324.675781 C 599.535156 323.996094 599.144531 323.347656 598.621094 322.816406 C 596.566406 320.746094 593.882812 320.882812 593.773438 320.882812 C 593.777344 320.777344 594 318.144531 591.957031 316.066406 C 591.433594 315.535156 590.785156 315.132812 590.097656 314.835938 C 588.75 314.25 586.984375 314.164062 585.664062 314.789062 C 582.648438 316.214844 581.011719 320.757812 580.746094 323.027344 C 580.152344 328.117188 581.855469 332.011719 581.921875 332.15625 L 581.917969 332.15625 C 581.917969 332.15625 581.917969 332.160156 581.921875 332.160156 C 581.921875 332.164062 581.921875 332.164062 581.921875 332.164062 L 581.921875 332.160156 C 582.070312 332.230469 585.984375 334.023438 591.183594 333.597656 C 593.5 333.40625 598.179688 331.941406 599.726562 329.027344 Z M 599.726562 329.027344 " fill-opacity="1" fill-rule="nonzero"/><path fill="#f5b7b8" d="M 453.324219 208.136719 C 452.519531 206.476562 450.726562 205.191406 448.960938 204.734375 C 448.0625 204.5 447.121094 204.402344 446.203125 204.535156 C 442.617188 205.050781 440.824219 207.902344 440.742188 208.015625 C 440.636719 207.929688 438.117188 205.691406 434.53125 206.199219 C 433.613281 206.328125 432.738281 206.6875 431.941406 207.160156 C 430.371094 208.09375 429.011719 209.828125 428.699219 211.652344 C 427.980469 215.824219 431.429688 220.960938 433.546875 222.957031 C 438.300781 227.445312 443.496094 228.671875 443.691406 228.71875 C 443.691406 228.71875 443.691406 228.71875 443.695312 228.71875 L 443.695312 228.714844 C 443.871094 228.617188 448.515625 225.988281 451.828125 220.351562 C 453.300781 217.839844 455.179688 211.941406 453.324219 208.136719 Z M 453.324219 208.136719 " fill-opacity="1" fill-rule="nonzero"/><g clip-path="url(#cd8aedcbc9)"><path fill="#eab896" d="M 530.074219 190.070312 C 530.234375 194.640625 531.257812 198.652344 532.8125 202.90625 C 533.429688 204.59375 536.25 211.605469 537.339844 213.347656 C 538.339844 214.941406 539.625 216.96875 539.773438 218.539062 C 540.046875 221.289062 542.0625 225.230469 539.125 236.203125 C 538.441406 238.746094 532.625 262.457031 531.265625 266.34375 C 527.773438 276.359375 506.238281 353.839844 500.875 374.011719 L 541.085938 374.011719 C 542.835938 349.148438 548.769531 280.949219 553.382812 261.070312 C 555.402344 252.378906 561.648438 229.609375 564.195312 224.164062 C 565.671875 221.015625 570.425781 214.15625 572.074219 211.066406 C 577.753906 200.433594 579.746094 192.691406 585.171875 178.015625 C 587.429688 171.894531 597.070312 154.703125 592.921875 153.582031 C 590.105469 152.820312 585.90625 160.546875 583.523438 165.605469 C 580.550781 171.914062 577.066406 178.585938 576.949219 178.574219 C 574.335938 178.339844 577.585938 169.519531 579.777344 164.078125 C 581.308594 160.269531 583.535156 151.78125 584.859375 147.925781 C 586.1875 144.050781 588.726562 137.867188 584.808594 136.757812 C 581.246094 135.742188 578.230469 144.433594 577.246094 146.875 C 575.8125 150.433594 574.214844 154.304688 572.761719 158.160156 C 572.058594 160.019531 568.320312 171.601562 567.339844 171.464844 C 566.394531 171.335938 570.101562 158.902344 570.730469 157.175781 C 572.28125 152.898438 577.394531 138.15625 577.570312 134.59375 C 577.570312 134.59375 578.046875 131.464844 574.636719 131.054688 C 572.695312 130.820312 570.398438 132.816406 568.648438 137.515625 C 565.164062 146.867188 561.066406 157.535156 558.628906 165.828125 C 558.316406 166.882812 557.707031 169.601562 556.542969 169.289062 C 554.535156 168.746094 555.570312 162.78125 556.613281 156.179688 C 557.503906 150.535156 559.617188 138.046875 560.167969 134.296875 C 560.214844 133.964844 560.636719 130.792969 557.800781 130.761719 C 556.140625 130.742188 555.214844 132.152344 554.859375 133.007812 C 553.636719 136.007812 552.679688 140.785156 551.527344 143.722656 C 550.585938 146.128906 547.480469 164.609375 546.515625 167.148438 C 545.21875 170.5625 543.585938 183.15625 539.492188 184.003906 C 536.484375 184.628906 535.238281 177.769531 534.625 175.933594 C 533.183594 171.625 531.757812 170.039062 530.664062 168.253906 C 529.472656 166.316406 523.070312 162.515625 521.539062 165.875 C 521.023438 167 522.753906 170.980469 524.191406 173.609375 C 526.929688 178.617188 529.867188 184.140625 530.074219 190.070312 Z M 530.074219 190.070312 " fill-opacity="1" fill-rule="nonzero"/></g><path fill="#f4507b" d="M 574.140625 190.726562 C 574.195312 188.585938 573.03125 186.300781 571.457031 184.886719 C 570.65625 184.167969 569.738281 183.566406 568.71875 183.210938 C 564.746094 181.832031 561.375 183.8125 561.234375 183.882812 C 561.167969 183.738281 559.765625 180.089844 555.792969 178.699219 C 554.777344 178.34375 553.683594 178.246094 552.613281 178.304688 C 550.496094 178.429688 548.167969 179.496094 546.878906 181.207031 C 543.910156 185.125 544.726562 192.257812 545.84375 195.449219 C 548.351562 202.613281 553.054688 206.652344 553.234375 206.800781 L 553.234375 206.804688 L 553.242188 206.804688 C 553.472656 206.796875 559.664062 206.5625 566.085938 202.519531 C 568.945312 200.71875 574.023438 195.640625 574.140625 190.726562 Z M 574.140625 190.726562 " fill-opacity="1" fill-rule="nonzero"/><g fill="#847469" fill-opacity="1"><g transform="translate(391.184342, 76.362186)"><g><path d="M 2.703125 -27.078125 L 14.359375 -27.078125 C 18.609375 -27.078125 22.066406 -25.828125 24.734375 -23.328125 C 27.410156 -20.828125 28.75 -17.566406 28.75 -13.546875 C 28.75 -9.546875 27.394531 -6.285156 24.6875 -3.765625 C 21.976562 -1.253906 18.441406 0 14.078125 0 L 2.703125 0 Z M 9.59375 -21.59375 L 9.59375 -5.5 L 14.5 -5.5 C 16.625 -5.5 18.363281 -6.238281 19.71875 -7.71875 C 21.070312 -9.195312 21.75 -11.125 21.75 -13.5 C 21.75 -15.875 21.035156 -17.816406 19.609375 -19.328125 C 18.191406 -20.835938 16.390625 -21.59375 14.203125 -21.59375 Z M 9.59375 -21.59375 "/></g></g></g><g fill="#847469" fill-opacity="1"><g transform="translate(422.049482, 76.362186)"><g><path d="M 15.546875 -27.3125 C 19.753906 -27.3125 23.25 -26 26.03125 -23.375 C 28.820312 -20.757812 30.21875 -17.492188 30.21875 -13.578125 C 30.21875 -9.628906 28.816406 -6.328125 26.015625 -3.671875 C 23.210938 -1.015625 19.722656 0.3125 15.546875 0.3125 C 11.367188 0.3125 7.882812 -1.007812 5.09375 -3.65625 C 2.3125 -6.300781 0.921875 -9.609375 0.921875 -13.578125 C 0.921875 -17.523438 2.3125 -20.800781 5.09375 -23.40625 C 7.882812 -26.007812 11.367188 -27.3125 15.546875 -27.3125 Z M 15.625 -21.546875 C 13.507812 -21.546875 11.703125 -20.773438 10.203125 -19.234375 C 8.710938 -17.703125 7.96875 -15.800781 7.96875 -13.53125 C 7.96875 -11.269531 8.722656 -9.359375 10.234375 -7.796875 C 11.742188 -6.234375 13.539062 -5.453125 15.625 -5.453125 C 17.71875 -5.453125 19.492188 -6.234375 20.953125 -7.796875 C 22.410156 -9.359375 23.140625 -11.269531 23.140625 -13.53125 C 23.140625 -15.800781 22.410156 -17.703125 20.953125 -19.234375 C 19.492188 -20.773438 17.71875 -21.546875 15.625 -21.546875 Z M 15.625 -21.546875 "/></g></g></g><g fill="#847469" fill-opacity="1"><g transform="translate(454.384386, 76.362186)"><g><path d="M 27.703125 0 L 21.625 0 L 9.171875 -16.671875 L 9.171875 0 L 2.703125 0 L 2.703125 -27.078125 L 8.78125 -27.078125 L 21.28125 -10.375 L 21.28125 -27.078125 L 27.703125 -27.078125 Z M 27.703125 0 "/></g></g></g><g fill="#847469" fill-opacity="1"><g transform="translate(485.984408, 76.362186)"><g><path d="M 20.703125 -4.984375 L 8.859375 -4.984375 L 6.890625 0 L -0.1875 0 L 11.484375 -27.078125 L 18.5625 -27.078125 L 29.984375 0 L 22.625 0 Z M 18.6875 -10.21875 L 14.8125 -20.234375 L 10.875 -10.21875 Z M 18.6875 -10.21875 "/></g></g></g><g fill="#847469" fill-opacity="1"><g transform="translate(516.965586, 76.362186)"><g/></g></g><g fill="#847469" fill-opacity="1"><g transform="translate(527.138007, 76.362186)"><g><path d="M 17.609375 0 L 10.484375 0 L -0.03125 -27.078125 L 7.3125 -27.078125 L 14.234375 -7.15625 L 21.15625 -27.078125 L 28.234375 -27.078125 Z M 17.609375 0 "/></g></g></g><g fill="#847469" fill-opacity="1"><g transform="translate(556.533387, 76.362186)"><g><path d="M 9.59375 0 L 2.703125 0 L 2.703125 -27.078125 L 9.59375 -27.078125 Z M 9.59375 0 "/></g></g></g><g fill="#847469" fill-opacity="1"><g transform="translate(570.032111, 76.362186)"><g><path d="M 2.703125 -27.078125 L 14.359375 -27.078125 C 18.609375 -27.078125 22.066406 -25.828125 24.734375 -23.328125 C 27.410156 -20.828125 28.75 -17.566406 28.75 -13.546875 C 28.75 -9.546875 27.394531 -6.285156 24.6875 -3.765625 C 21.976562 -1.253906 18.441406 0 14.078125 0 L 2.703125 0 Z M 9.59375 -21.59375 L 9.59375 -5.5 L 14.5 -5.5 C 16.625 -5.5 18.363281 -6.238281 19.71875 -7.71875 C 21.070312 -9.195312 21.75 -11.125 21.75 -13.5 C 21.75 -15.875 21.035156 -17.816406 19.609375 -19.328125 C 18.191406 -20.835938 16.390625 -21.59375 14.203125 -21.59375 Z M 9.59375 -21.59375 "/></g></g></g><g fill="#847469" fill-opacity="1"><g transform="translate(600.897246, 76.362186)"><g><path d="M 20.703125 -4.984375 L 8.859375 -4.984375 L 6.890625 0 L -0.1875 0 L 11.484375 -27.078125 L 18.5625 -27.078125 L 29.984375 0 L 22.625 0 Z M 18.6875 -10.21875 L 14.8125 -20.234375 L 10.875 -10.21875 Z M 18.6875 -10.21875 "/></g></g></g><g fill="#c83535" fill-opacity="1"><g transform="translate(420.264749, 112.939196)"><g><path d="M 6.859375 -19.050781 C 6.730469 -19.226562 6.597656 -19.402344 6.511719 -19.488281 C 6.378906 -19.574219 6.25 -19.664062 6.117188 -19.707031 L 6.074219 -19.707031 C 5.855469 -19.707031 5.636719 -19.621094 5.417969 -19.488281 C 5.113281 -19.3125 4.761719 -19.050781 4.371094 -18.746094 C 2.972656 -17.652344 1.878906 -16.605469 1.179688 -15.597656 C 0.4375 -14.550781 0 -13.589844 -0.0859375 -12.628906 C -0.175781 -11.929688 -0.132812 -11.316406 0.0859375 -10.707031 C 0.261719 -10.09375 0.613281 -9.4375 1.179688 -8.738281 C 1.355469 -8.476562 1.53125 -8.214844 1.703125 -8.039062 C 1.835938 -7.777344 1.878906 -7.648438 1.878906 -7.648438 C 1.878906 -7.601562 1.792969 -7.515625 1.660156 -7.339844 C 1.484375 -7.121094 1.3125 -6.902344 1.136719 -6.683594 C 0.0859375 -5.503906 -0.566406 -4.414062 -0.785156 -3.453125 C -0.875 -3.144531 -0.917969 -2.882812 -0.917969 -2.664062 C -0.917969 -2.011719 -0.699219 -1.484375 -0.21875 -1.046875 C 0.0429688 -0.785156 0.4375 -0.613281 1.003906 -0.523438 C 1.179688 -0.480469 1.355469 -0.480469 1.53125 -0.480469 C 1.878906 -0.480469 2.183594 -0.523438 2.535156 -0.65625 C 2.972656 -0.832031 3.453125 -1.136719 4.019531 -1.574219 C 4.542969 -1.964844 4.9375 -2.402344 5.242188 -2.839844 C 5.550781 -3.277344 5.769531 -3.84375 5.855469 -4.632812 C 5.941406 -5.375 5.941406 -5.984375 5.769531 -6.511719 C 5.59375 -6.902344 5.503906 -7.167969 5.550781 -7.339844 C 5.550781 -7.472656 5.636719 -7.601562 5.8125 -7.734375 C 7.167969 -8.609375 8.390625 -9.351562 9.4375 -10.007812 C 10.488281 -10.660156 11.40625 -11.1875 12.148438 -11.578125 C 12.628906 -11.796875 13.066406 -12.058594 13.457031 -12.320312 C 13.808594 -12.585938 14.027344 -12.757812 14.113281 -12.890625 C 14.15625 -12.976562 14.199219 -13.109375 14.199219 -13.238281 C 14.199219 -13.414062 14.113281 -13.589844 14.027344 -13.808594 C 13.808594 -14.070312 13.546875 -14.246094 13.195312 -14.332031 C 12.804688 -14.332031 12.058594 -14.070312 10.96875 -13.546875 C 9.832031 -12.976562 8.519531 -12.234375 7.035156 -11.273438 C 5.375 -10.226562 4.457031 -9.65625 4.238281 -9.570312 C 4.019531 -9.4375 3.800781 -9.4375 3.539062 -9.613281 C 3.410156 -9.65625 3.277344 -9.789062 3.101562 -10.050781 C 2.925781 -10.226562 2.753906 -10.441406 2.621094 -10.707031 C 2.140625 -11.535156 2.097656 -12.410156 2.492188 -13.328125 C 2.839844 -14.199219 3.714844 -15.207031 5.070312 -16.34375 C 6.074219 -17.214844 6.683594 -17.785156 6.902344 -18.089844 C 7.078125 -18.351562 7.035156 -18.703125 6.859375 -19.050781 Z M 1.574219 -3.191406 C 1.574219 -3.410156 1.878906 -3.890625 2.402344 -4.589844 C 2.925781 -5.289062 3.234375 -5.636719 3.410156 -5.636719 C 3.671875 -5.59375 3.714844 -5.289062 3.539062 -4.761719 C 3.363281 -4.195312 3.101562 -3.757812 2.710938 -3.453125 C 2.578125 -3.320312 2.445312 -3.191406 2.273438 -3.101562 C 2.097656 -2.972656 1.964844 -2.882812 1.878906 -2.882812 C 1.703125 -2.796875 1.617188 -2.796875 1.617188 -2.839844 C 1.574219 -2.882812 1.574219 -3.015625 1.574219 -3.191406 Z M 1.574219 -3.191406 "/></g></g></g><g fill="#c83535" fill-opacity="1"><g transform="translate(432.805161, 112.939196)"><g><path d="M 9.917969 -17.742188 C 9.789062 -17.785156 9.699219 -17.828125 9.613281 -17.871094 C 9.480469 -17.871094 9.351562 -17.914062 9.261719 -17.914062 C 9.089844 -17.914062 8.957031 -17.871094 8.78125 -17.785156 C 8.609375 -17.695312 8.390625 -17.609375 8.214844 -17.433594 C 7.953125 -17.171875 7.734375 -17.085938 7.648438 -17.085938 C 7.515625 -17.042969 7.253906 -17.085938 6.859375 -17.257812 C 5.984375 -17.523438 5.070312 -17.523438 4.195312 -17.171875 C 3.234375 -16.824219 2.316406 -16.167969 1.355469 -15.207031 C 0.65625 -14.507812 0.132812 -13.808594 -0.304688 -13.019531 C -0.785156 -12.234375 -1.046875 -11.492188 -1.09375 -10.878906 C -1.136719 -10.617188 -1.136719 -10.441406 -1.136719 -10.3125 C -1.136719 -10.136719 -1.136719 -10.050781 -1.09375 -9.960938 C -1.046875 -9.789062 -0.875 -9.527344 -0.523438 -9.21875 C -0.347656 -9 -0.132812 -8.828125 0.0859375 -8.738281 C 0.261719 -8.609375 0.4375 -8.5625 0.613281 -8.5625 C 1.136719 -8.5625 1.835938 -8.78125 2.664062 -9.261719 C 3.496094 -9.699219 4.414062 -10.355469 5.417969 -11.230469 C 5.679688 -11.492188 5.941406 -11.710938 6.203125 -11.886719 C 6.421875 -12.058594 6.554688 -12.148438 6.597656 -12.148438 C 6.597656 -12.105469 6.554688 -11.929688 6.511719 -11.667969 C 6.421875 -11.359375 6.335938 -11.011719 6.25 -10.660156 C 5.984375 -9.699219 5.855469 -8.738281 5.769531 -7.777344 C 5.679688 -6.773438 5.722656 -6.074219 5.898438 -5.636719 C 5.941406 -5.460938 6.03125 -5.242188 6.203125 -5.023438 C 6.335938 -4.804688 6.46875 -4.632812 6.597656 -4.542969 C 6.949219 -4.28125 7.296875 -4.152344 7.734375 -4.152344 C 7.996094 -4.152344 8.347656 -4.238281 8.695312 -4.414062 C 9.480469 -4.761719 10.441406 -5.503906 11.492188 -6.683594 C 11.753906 -6.949219 12.058594 -7.339844 12.453125 -7.863281 C 12.804688 -8.300781 13.195312 -8.828125 13.632812 -9.394531 C 14.246094 -10.179688 14.769531 -10.925781 15.292969 -11.667969 C 15.773438 -12.367188 16.035156 -12.804688 16.078125 -12.976562 C 16.078125 -13.066406 16.125 -13.152344 16.125 -13.238281 C 16.125 -13.414062 16.035156 -13.632812 15.90625 -13.808594 C 15.644531 -14.070312 15.378906 -14.199219 15.03125 -14.246094 C 14.683594 -14.246094 14.417969 -14.199219 14.289062 -14.113281 C 14.113281 -13.984375 13.851562 -13.632812 13.414062 -13.019531 C 11.667969 -10.488281 10.3125 -8.738281 9.394531 -7.777344 C 8.433594 -6.773438 7.996094 -6.597656 7.996094 -7.253906 C 7.996094 -7.691406 8.128906 -8.519531 8.433594 -9.742188 C 8.738281 -10.878906 9.132812 -12.191406 9.65625 -13.675781 C 10.179688 -15.292969 10.441406 -16.296875 10.488281 -16.734375 C 10.53125 -17.171875 10.355469 -17.476562 9.917969 -17.742188 Z M 5.375 -15.117188 C 5.417969 -15.117188 5.460938 -15.164062 5.503906 -15.164062 L 5.636719 -15.164062 C 5.898438 -15.164062 5.898438 -15.03125 5.722656 -14.769531 C 5.503906 -14.464844 5.023438 -13.984375 4.324219 -13.371094 C 3.363281 -12.539062 2.664062 -11.972656 2.226562 -11.667969 C 1.746094 -11.316406 1.53125 -11.273438 1.53125 -11.449219 C 1.53125 -11.621094 1.617188 -11.929688 1.878906 -12.277344 C 2.140625 -12.628906 2.492188 -13.066406 3.015625 -13.589844 C 3.453125 -14.027344 3.84375 -14.375 4.195312 -14.636719 C 4.542969 -14.8125 4.9375 -14.988281 5.375 -15.117188 Z M 5.375 -15.117188 "/></g></g></g><g fill="#c83535" fill-opacity="1"><g transform="translate(446.831196, 112.939196)"><g><path d="M 12.976562 -28.359375 C 12.976562 -29.40625 12.757812 -30.195312 12.367188 -30.71875 C 11.929688 -31.242188 11.359375 -31.503906 10.617188 -31.503906 C 10.007812 -31.503906 9.261719 -31.109375 8.390625 -30.324219 C 7.515625 -29.539062 6.640625 -28.488281 5.8125 -27.179688 C 5.332031 -26.480469 4.761719 -25.5625 4.152344 -24.339844 C 3.539062 -23.113281 2.925781 -21.890625 2.359375 -20.667969 C 2.054688 -19.96875 1.792969 -19.355469 1.53125 -18.789062 C 1.265625 -18.175781 1.09375 -17.652344 0.917969 -17.214844 C -0.304688 -13.808594 -0.875 -10.835938 -0.875 -8.214844 C -0.917969 -5.59375 -0.347656 -3.933594 0.875 -3.144531 C 1.3125 -2.796875 1.835938 -2.664062 2.445312 -2.664062 C 2.796875 -2.664062 3.191406 -2.710938 3.625 -2.839844 C 4.761719 -3.101562 5.898438 -3.757812 7.121094 -4.804688 C 7.515625 -5.113281 7.953125 -5.550781 8.476562 -6.074219 C 8.957031 -6.554688 9.480469 -7.078125 10.007812 -7.648438 C 10.925781 -8.695312 11.753906 -9.742188 12.539062 -10.792969 C 13.285156 -11.839844 13.675781 -12.539062 13.675781 -12.890625 C 13.675781 -13.195312 13.589844 -13.457031 13.414062 -13.675781 C 13.195312 -13.894531 12.933594 -14.027344 12.671875 -14.027344 C 12.367188 -14.027344 12.105469 -13.894531 11.886719 -13.71875 C 11.621094 -13.457031 11.316406 -13.019531 10.925781 -12.410156 C 9.527344 -10.179688 7.953125 -8.390625 6.292969 -6.992188 C 4.589844 -5.550781 3.320312 -4.894531 2.535156 -5.023438 C 2.183594 -5.070312 1.878906 -5.332031 1.703125 -5.855469 C 1.53125 -6.378906 1.441406 -7.078125 1.441406 -8.039062 C 1.441406 -9.351562 1.484375 -10.179688 1.617188 -10.574219 C 1.703125 -10.925781 2.011719 -11.273438 2.492188 -11.578125 C 2.664062 -11.667969 3.058594 -11.972656 3.582031 -12.496094 C 4.105469 -12.933594 4.675781 -13.457031 5.199219 -14.027344 C 7.429688 -16.34375 9.261719 -18.875 10.75 -21.585938 C 12.234375 -24.292969 12.976562 -26.523438 12.976562 -28.359375 Z M 7.691406 -25.867188 C 8.171875 -26.609375 8.695312 -27.308594 9.308594 -28.007812 C 9.917969 -28.707031 10.269531 -29.058594 10.441406 -29.058594 C 10.574219 -29.058594 10.617188 -28.664062 10.574219 -27.964844 C 10.488281 -27.265625 10.355469 -26.609375 10.179688 -26 C 9.742188 -24.601562 8.957031 -22.984375 7.820312 -21.148438 C 6.683594 -19.3125 5.460938 -17.695312 4.195312 -16.296875 C 3.84375 -15.90625 3.496094 -15.597656 3.234375 -15.335938 C 2.972656 -15.03125 2.796875 -14.898438 2.753906 -14.898438 C 2.578125 -14.898438 2.710938 -15.511719 3.234375 -16.734375 C 3.671875 -17.957031 4.28125 -19.3125 4.980469 -20.800781 C 5.417969 -21.761719 5.898438 -22.679688 6.421875 -23.640625 C 6.902344 -24.511719 7.339844 -25.257812 7.691406 -25.867188 Z M 7.691406 -25.867188 "/></g></g></g><g fill="#c83535" fill-opacity="1"><g transform="translate(458.497711, 112.939196)"><g><path d="M 1.222656 -3.84375 C 1.574219 -3.496094 1.964844 -3.363281 2.359375 -3.363281 C 2.535156 -3.363281 2.753906 -3.410156 3.015625 -3.496094 C 3.625 -3.757812 4.238281 -4.371094 4.9375 -5.375 C 5.15625 -5.679688 5.503906 -6.25 6.03125 -7.121094 C 6.554688 -7.953125 7.035156 -8.828125 7.558594 -9.742188 C 8.039062 -10.617188 8.652344 -11.753906 9.4375 -13.066406 C 10.179688 -14.332031 10.835938 -15.46875 11.40625 -16.429688 C 11.929688 -17.347656 12.410156 -18.175781 12.847656 -18.964844 C 13.195312 -19.707031 13.414062 -20.144531 13.414062 -20.316406 C 13.414062 -20.753906 13.195312 -21.105469 12.804688 -21.367188 C 12.628906 -21.453125 12.453125 -21.5 12.277344 -21.5 C 12.058594 -21.5 11.839844 -21.410156 11.667969 -21.234375 C 11.578125 -21.148438 11.1875 -20.582031 10.53125 -19.445312 C 9.832031 -18.308594 9 -16.953125 8.128906 -15.425781 C 7.648438 -14.59375 7.167969 -13.765625 6.640625 -12.890625 C 6.117188 -12.015625 5.636719 -11.140625 5.199219 -10.3125 C 4.371094 -8.828125 3.757812 -7.777344 3.363281 -7.167969 C 2.925781 -6.511719 2.664062 -6.203125 2.578125 -6.292969 C 2.402344 -6.421875 2.316406 -7.121094 2.316406 -8.390625 C 2.226562 -9.613281 2.273438 -10.878906 2.359375 -12.191406 C 2.445312 -13.457031 2.492188 -14.289062 2.492188 -14.636719 C 2.492188 -14.988281 2.402344 -15.207031 2.226562 -15.378906 C 2.011719 -15.597656 1.746094 -15.730469 1.398438 -15.730469 C 1.046875 -15.730469 0.742188 -15.644531 0.566406 -15.425781 C 0.480469 -15.335938 0.4375 -15.117188 0.347656 -14.855469 C 0.261719 -14.59375 0.21875 -14.246094 0.175781 -13.808594 C 0.0429688 -13.019531 -0.0429688 -12.148438 -0.0429688 -11.140625 C -0.0859375 -10.617188 -0.0859375 -10.136719 -0.0859375 -9.699219 C -0.0859375 -9.175781 -0.0859375 -8.738281 -0.0429688 -8.300781 C 0 -6.992188 0.132812 -6.03125 0.347656 -5.375 C 0.523438 -4.675781 0.832031 -4.152344 1.222656 -3.84375 Z M 1.222656 -3.84375 "/></g></g></g><g fill="#c83535" fill-opacity="1"><g transform="translate(471.038122, 112.939196)"><g><path d="M 9.917969 -17.742188 C 9.789062 -17.785156 9.699219 -17.828125 9.613281 -17.871094 C 9.480469 -17.871094 9.351562 -17.914062 9.261719 -17.914062 C 9.089844 -17.914062 8.957031 -17.871094 8.78125 -17.785156 C 8.609375 -17.695312 8.390625 -17.609375 8.214844 -17.433594 C 7.953125 -17.171875 7.734375 -17.085938 7.648438 -17.085938 C 7.515625 -17.042969 7.253906 -17.085938 6.859375 -17.257812 C 5.984375 -17.523438 5.070312 -17.523438 4.195312 -17.171875 C 3.234375 -16.824219 2.316406 -16.167969 1.355469 -15.207031 C 0.65625 -14.507812 0.132812 -13.808594 -0.304688 -13.019531 C -0.785156 -12.234375 -1.046875 -11.492188 -1.09375 -10.878906 C -1.136719 -10.617188 -1.136719 -10.441406 -1.136719 -10.3125 C -1.136719 -10.136719 -1.136719 -10.050781 -1.09375 -9.960938 C -1.046875 -9.789062 -0.875 -9.527344 -0.523438 -9.21875 C -0.347656 -9 -0.132812 -8.828125 0.0859375 -8.738281 C 0.261719 -8.609375 0.4375 -8.5625 0.613281 -8.5625 C 1.136719 -8.5625 1.835938 -8.78125 2.664062 -9.261719 C 3.496094 -9.699219 4.414062 -10.355469 5.417969 -11.230469 C 5.679688 -11.492188 5.941406 -11.710938 6.203125 -11.886719 C 6.421875 -12.058594 6.554688 -12.148438 6.597656 -12.148438 C 6.597656 -12.105469 6.554688 -11.929688 6.511719 -11.667969 C 6.421875 -11.359375 6.335938 -11.011719 6.25 -10.660156 C 5.984375 -9.699219 5.855469 -8.738281 5.769531 -7.777344 C 5.679688 -6.773438 5.722656 -6.074219 5.898438 -5.636719 C 5.941406 -5.460938 6.03125 -5.242188 6.203125 -5.023438 C 6.335938 -4.804688 6.46875 -4.632812 6.597656 -4.542969 C 6.949219 -4.28125 7.296875 -4.152344 7.734375 -4.152344 C 7.996094 -4.152344 8.347656 -4.238281 8.695312 -4.414062 C 9.480469 -4.761719 10.441406 -5.503906 11.492188 -6.683594 C 11.753906 -6.949219 12.058594 -7.339844 12.453125 -7.863281 C 12.804688 -8.300781 13.195312 -8.828125 13.632812 -9.394531 C 14.246094 -10.179688 14.769531 -10.925781 15.292969 -11.667969 C 15.773438 -12.367188 16.035156 -12.804688 16.078125 -12.976562 C 16.078125 -13.066406 16.125 -13.152344 16.125 -13.238281 C 16.125 -13.414062 16.035156 -13.632812 15.90625 -13.808594 C 15.644531 -14.070312 15.378906 -14.199219 15.03125 -14.246094 C 14.683594 -14.246094 14.417969 -14.199219 14.289062 -14.113281 C 14.113281 -13.984375 13.851562 -13.632812 13.414062 -13.019531 C 11.667969 -10.488281 10.3125 -8.738281 9.394531 -7.777344 C 8.433594 -6.773438 7.996094 -6.597656 7.996094 -7.253906 C 7.996094 -7.691406 8.128906 -8.519531 8.433594 -9.742188 C 8.738281 -10.878906 9.132812 -12.191406 9.65625 -13.675781 C 10.179688 -15.292969 10.441406 -16.296875 10.488281 -16.734375 C 10.53125 -17.171875 10.355469 -17.476562 9.917969 -17.742188 Z M 5.375 -15.117188 C 5.417969 -15.117188 5.460938 -15.164062 5.503906 -15.164062 L 5.636719 -15.164062 C 5.898438 -15.164062 5.898438 -15.03125 5.722656 -14.769531 C 5.503906 -14.464844 5.023438 -13.984375 4.324219 -13.371094 C 3.363281 -12.539062 2.664062 -11.972656 2.226562 -11.667969 C 1.746094 -11.316406 1.53125 -11.273438 1.53125 -11.449219 C 1.53125 -11.621094 1.617188 -11.929688 1.878906 -12.277344 C 2.140625 -12.628906 2.492188 -13.066406 3.015625 -13.589844 C 3.453125 -14.027344 3.84375 -14.375 4.195312 -14.636719 C 4.542969 -14.8125 4.9375 -14.988281 5.375 -15.117188 Z M 5.375 -15.117188 "/></g></g></g><g fill="#c83535" fill-opacity="1"><g transform="translate(485.064157, 112.939196)"><g/></g></g><g fill="#c83535" fill-opacity="1"><g transform="translate(497.123926, 112.939196)"><g><path d="M 6.378906 -4.414062 C 6.554688 -4.324219 6.730469 -4.324219 6.902344 -4.324219 C 7.339844 -4.324219 7.820312 -4.5 8.347656 -4.851562 C 9.089844 -5.375 9.917969 -6.203125 10.835938 -7.429688 C 11.054688 -7.691406 11.316406 -8.039062 11.621094 -8.476562 C 11.886719 -8.828125 12.148438 -9.261719 12.410156 -9.699219 C 12.890625 -10.488281 13.328125 -11.230469 13.71875 -11.929688 C 14.113281 -12.585938 14.332031 -12.976562 14.332031 -13.152344 C 14.332031 -13.675781 14.070312 -14.027344 13.632812 -14.246094 C 13.195312 -14.417969 12.804688 -14.375 12.496094 -14.027344 C 12.410156 -13.9375 12.148438 -13.589844 11.796875 -13.019531 C 11.359375 -12.453125 10.96875 -11.796875 10.53125 -11.097656 C 10.050781 -10.398438 9.570312 -9.699219 9.132812 -9.089844 C 8.652344 -8.390625 8.300781 -7.953125 8.128906 -7.777344 C 7.777344 -7.429688 7.558594 -7.167969 7.429688 -6.992188 C 7.429688 -7.515625 7.472656 -7.953125 7.515625 -8.257812 C 7.515625 -8.5625 7.648438 -9.132812 7.863281 -10.007812 C 8.039062 -10.835938 8.257812 -11.667969 8.519531 -12.539062 C 8.738281 -13.371094 8.914062 -14.113281 9.089844 -14.8125 C 9.21875 -15.511719 9.261719 -15.90625 9.261719 -16.035156 C 9.21875 -16.125 9.132812 -16.253906 9.046875 -16.429688 C 8.914062 -16.5625 8.78125 -16.691406 8.695312 -16.777344 C 8.433594 -16.910156 8.214844 -16.996094 8.039062 -16.996094 C 7.863281 -16.996094 7.691406 -16.910156 7.558594 -16.824219 C 7.210938 -16.5625 6.683594 -15.863281 5.984375 -14.726562 C 5.289062 -13.589844 4.5 -12.539062 3.582031 -11.492188 C 2.621094 -10.398438 2.097656 -9.917969 1.921875 -10.050781 C 1.835938 -10.09375 1.746094 -10.226562 1.746094 -10.441406 C 1.703125 -10.660156 1.703125 -10.96875 1.792969 -11.316406 C 1.792969 -11.492188 1.921875 -11.929688 2.097656 -12.714844 C 2.273438 -13.457031 2.359375 -13.9375 2.445312 -14.199219 C 2.535156 -14.59375 2.621094 -14.945312 2.664062 -15.207031 C 2.664062 -15.46875 2.664062 -15.6875 2.664062 -15.863281 C 2.621094 -16.035156 2.535156 -16.167969 2.445312 -16.296875 C 2.316406 -16.386719 2.183594 -16.429688 2.011719 -16.515625 C 1.746094 -16.5625 1.53125 -16.5625 1.398438 -16.5625 C 1.222656 -16.515625 1.046875 -16.429688 0.917969 -16.34375 C 0.742188 -16.167969 0.613281 -15.992188 0.523438 -15.730469 C 0.4375 -15.425781 0.304688 -15.074219 0.21875 -14.683594 C 0.132812 -14.332031 -0.0429688 -13.765625 -0.21875 -12.890625 C -0.394531 -12.015625 -0.523438 -11.449219 -0.523438 -11.1875 C -0.566406 -10.925781 -0.566406 -10.660156 -0.566406 -10.398438 C -0.566406 -10.050781 -0.566406 -9.699219 -0.480469 -9.4375 C -0.394531 -8.914062 -0.175781 -8.519531 0.0859375 -8.257812 C 0.21875 -8.082031 0.394531 -7.953125 0.613281 -7.820312 C 0.785156 -7.691406 0.917969 -7.601562 1.09375 -7.601562 C 1.441406 -7.472656 1.921875 -7.515625 2.492188 -7.734375 C 3.015625 -7.953125 3.539062 -8.300781 4.105469 -8.738281 C 4.371094 -8.957031 4.632812 -9.175781 4.894531 -9.351562 L 5.242188 -9.570312 C 5.242188 -9.527344 5.242188 -9.394531 5.242188 -9.132812 C 5.199219 -8.871094 5.15625 -8.5625 5.113281 -8.214844 C 5.023438 -7.863281 5.023438 -7.515625 5.023438 -7.121094 C 4.980469 -6.730469 4.980469 -6.46875 5.023438 -6.292969 C 5.113281 -5.898438 5.289062 -5.503906 5.550781 -5.15625 C 5.8125 -4.761719 6.074219 -4.5 6.378906 -4.414062 Z M 6.378906 -4.414062 "/></g></g></g><g fill="#c83535" fill-opacity="1"><g transform="translate(509.358478, 112.939196)"><g><path d="M -0.175781 -6.511719 C 0.0429688 -6.378906 0.304688 -6.335938 0.566406 -6.335938 C 1.003906 -6.335938 1.53125 -6.554688 2.097656 -6.992188 C 2.972656 -7.691406 4.238281 -9.175781 5.984375 -11.449219 C 7.035156 -12.847656 7.863281 -13.894531 8.5625 -14.683594 C 9.21875 -15.378906 9.613281 -15.730469 9.699219 -15.644531 C 9.742188 -15.554688 9.742188 -15.335938 9.699219 -14.945312 C 9.613281 -14.507812 9.527344 -13.984375 9.4375 -13.414062 C 9.089844 -11.667969 8.957031 -10.355469 9.132812 -9.480469 C 9.21875 -8.609375 9.65625 -7.953125 10.355469 -7.601562 C 10.617188 -7.429688 10.835938 -7.339844 11.011719 -7.339844 C 11.1875 -7.296875 11.535156 -7.339844 11.972656 -7.429688 C 12.320312 -7.515625 13.019531 -7.863281 13.984375 -8.519531 C 14.945312 -9.132812 16.253906 -10.398438 17.914062 -12.277344 C 18.046875 -12.453125 18.132812 -12.671875 18.132812 -12.933594 C 18.132812 -13.195312 18.046875 -13.457031 17.871094 -13.71875 C 17.523438 -14.246094 17.085938 -14.332031 16.5625 -13.9375 L 16.167969 -13.546875 C 15.992188 -13.414062 15.863281 -13.238281 15.6875 -13.066406 C 14.945312 -12.320312 14.15625 -11.578125 13.285156 -10.835938 C 12.410156 -10.09375 11.839844 -9.742188 11.578125 -9.742188 C 11.40625 -9.742188 11.316406 -10.007812 11.359375 -10.53125 C 11.359375 -11.054688 11.535156 -12.015625 11.796875 -13.371094 C 11.929688 -14.027344 12.058594 -14.683594 12.148438 -15.292969 C 12.234375 -15.90625 12.277344 -16.296875 12.277344 -16.472656 C 12.277344 -17.257812 12.058594 -17.828125 11.621094 -18.222656 C 11.140625 -18.570312 10.574219 -18.703125 9.917969 -18.527344 C 9.175781 -18.308594 8.300781 -17.695312 7.339844 -16.691406 C 6.292969 -15.644531 4.851562 -13.894531 3.015625 -11.492188 C 2.578125 -10.925781 2.226562 -10.488281 1.921875 -10.136719 C 1.617188 -9.789062 1.441406 -9.613281 1.441406 -9.699219 C 1.355469 -9.875 1.53125 -10.574219 1.921875 -11.839844 C 2.273438 -13.109375 2.664062 -14.417969 3.144531 -15.730469 C 3.320312 -16.253906 3.496094 -16.777344 3.671875 -17.304688 C 3.800781 -17.785156 3.890625 -18.089844 3.890625 -18.175781 C 3.890625 -18.65625 3.625 -19.007812 3.191406 -19.183594 C 3.015625 -19.226562 2.882812 -19.269531 2.753906 -19.269531 C 2.445312 -19.269531 2.183594 -19.136719 1.964844 -18.921875 C 1.835938 -18.789062 1.617188 -18.265625 1.3125 -17.390625 C 0.960938 -16.429688 0.613281 -15.46875 0.261719 -14.417969 C 0 -13.675781 -0.21875 -12.976562 -0.394531 -12.367188 C -0.566406 -11.667969 -0.699219 -11.140625 -0.785156 -10.707031 C -0.960938 -9.875 -1.046875 -9.175781 -1.046875 -8.609375 C -1.046875 -8.347656 -1.046875 -8.128906 -1.003906 -7.953125 C -0.917969 -7.253906 -0.65625 -6.773438 -0.175781 -6.511719 Z M -0.175781 -6.511719 "/></g></g></g><g fill="#c83535" fill-opacity="1"><g transform="translate(525.525559, 112.939196)"><g><path d="M 9.917969 -17.742188 C 9.789062 -17.785156 9.699219 -17.828125 9.613281 -17.871094 C 9.480469 -17.871094 9.351562 -17.914062 9.261719 -17.914062 C 9.089844 -17.914062 8.957031 -17.871094 8.78125 -17.785156 C 8.609375 -17.695312 8.390625 -17.609375 8.214844 -17.433594 C 7.953125 -17.171875 7.734375 -17.085938 7.648438 -17.085938 C 7.515625 -17.042969 7.253906 -17.085938 6.859375 -17.257812 C 5.984375 -17.523438 5.070312 -17.523438 4.195312 -17.171875 C 3.234375 -16.824219 2.316406 -16.167969 1.355469 -15.207031 C 0.65625 -14.507812 0.132812 -13.808594 -0.304688 -13.019531 C -0.785156 -12.234375 -1.046875 -11.492188 -1.09375 -10.878906 C -1.136719 -10.617188 -1.136719 -10.441406 -1.136719 -10.3125 C -1.136719 -10.136719 -1.136719 -10.050781 -1.09375 -9.960938 C -1.046875 -9.789062 -0.875 -9.527344 -0.523438 -9.21875 C -0.347656 -9 -0.132812 -8.828125 0.0859375 -8.738281 C 0.261719 -8.609375 0.4375 -8.5625 0.613281 -8.5625 C 1.136719 -8.5625 1.835938 -8.78125 2.664062 -9.261719 C 3.496094 -9.699219 4.414062 -10.355469 5.417969 -11.230469 C 5.679688 -11.492188 5.941406 -11.710938 6.203125 -11.886719 C 6.421875 -12.058594 6.554688 -12.148438 6.597656 -12.148438 C 6.597656 -12.105469 6.554688 -11.929688 6.511719 -11.667969 C 6.421875 -11.359375 6.335938 -11.011719 6.25 -10.660156 C 5.984375 -9.699219 5.855469 -8.738281 5.769531 -7.777344 C 5.679688 -6.773438 5.722656 -6.074219 5.898438 -5.636719 C 5.941406 -5.460938 6.03125 -5.242188 6.203125 -5.023438 C 6.335938 -4.804688 6.46875 -4.632812 6.597656 -4.542969 C 6.949219 -4.28125 7.296875 -4.152344 7.734375 -4.152344 C 7.996094 -4.152344 8.347656 -4.238281 8.695312 -4.414062 C 9.480469 -4.761719 10.441406 -5.503906 11.492188 -6.683594 C 11.753906 -6.949219 12.058594 -7.339844 12.453125 -7.863281 C 12.804688 -8.300781 13.195312 -8.828125 13.632812 -9.394531 C 14.246094 -10.179688 14.769531 -10.925781 15.292969 -11.667969 C 15.773438 -12.367188 16.035156 -12.804688 16.078125 -12.976562 C 16.078125 -13.066406 16.125 -13.152344 16.125 -13.238281 C 16.125 -13.414062 16.035156 -13.632812 15.90625 -13.808594 C 15.644531 -14.070312 15.378906 -14.199219 15.03125 -14.246094 C 14.683594 -14.246094 14.417969 -14.199219 14.289062 -14.113281 C 14.113281 -13.984375 13.851562 -13.632812 13.414062 -13.019531 C 11.667969 -10.488281 10.3125 -8.738281 9.394531 -7.777344 C 8.433594 -6.773438 7.996094 -6.597656 7.996094 -7.253906 C 7.996094 -7.691406 8.128906 -8.519531 8.433594 -9.742188 C 8.738281 -10.878906 9.132812 -12.191406 9.65625 -13.675781 C 10.179688 -15.292969 10.441406 -16.296875 10.488281 -16.734375 C 10.53125 -17.171875 10.355469 -17.476562 9.917969 -17.742188 Z M 5.375 -15.117188 C 5.417969 -15.117188 5.460938 -15.164062 5.503906 -15.164062 L 5.636719 -15.164062 C 5.898438 -15.164062 5.898438 -15.03125 5.722656 -14.769531 C 5.503906 -14.464844 5.023438 -13.984375 4.324219 -13.371094 C 3.363281 -12.539062 2.664062 -11.972656 2.226562 -11.667969 C 1.746094 -11.316406 1.53125 -11.273438 1.53125 -11.449219 C 1.53125 -11.621094 1.617188 -11.929688 1.878906 -12.277344 C 2.140625 -12.628906 2.492188 -13.066406 3.015625 -13.589844 C 3.453125 -14.027344 3.84375 -14.375 4.195312 -14.636719 C 4.542969 -14.8125 4.9375 -14.988281 5.375 -15.117188 Z M 5.375 -15.117188 "/></g></g></g><g fill="#c83535" fill-opacity="1"><g transform="translate(539.551599, 112.939196)"><g/></g></g><g fill="#c83535" fill-opacity="1"><g transform="translate(551.611367, 112.939196)"><g><path d="M 1.222656 -3.84375 C 1.574219 -3.496094 1.964844 -3.363281 2.359375 -3.363281 C 2.535156 -3.363281 2.753906 -3.410156 3.015625 -3.496094 C 3.625 -3.757812 4.238281 -4.371094 4.9375 -5.375 C 5.15625 -5.679688 5.503906 -6.25 6.03125 -7.121094 C 6.554688 -7.953125 7.035156 -8.828125 7.558594 -9.742188 C 8.039062 -10.617188 8.652344 -11.753906 9.4375 -13.066406 C 10.179688 -14.332031 10.835938 -15.46875 11.40625 -16.429688 C 11.929688 -17.347656 12.410156 -18.175781 12.847656 -18.964844 C 13.195312 -19.707031 13.414062 -20.144531 13.414062 -20.316406 C 13.414062 -20.753906 13.195312 -21.105469 12.804688 -21.367188 C 12.628906 -21.453125 12.453125 -21.5 12.277344 -21.5 C 12.058594 -21.5 11.839844 -21.410156 11.667969 -21.234375 C 11.578125 -21.148438 11.1875 -20.582031 10.53125 -19.445312 C 9.832031 -18.308594 9 -16.953125 8.128906 -15.425781 C 7.648438 -14.59375 7.167969 -13.765625 6.640625 -12.890625 C 6.117188 -12.015625 5.636719 -11.140625 5.199219 -10.3125 C 4.371094 -8.828125 3.757812 -7.777344 3.363281 -7.167969 C 2.925781 -6.511719 2.664062 -6.203125 2.578125 -6.292969 C 2.402344 -6.421875 2.316406 -7.121094 2.316406 -8.390625 C 2.226562 -9.613281 2.273438 -10.878906 2.359375 -12.191406 C 2.445312 -13.457031 2.492188 -14.289062 2.492188 -14.636719 C 2.492188 -14.988281 2.402344 -15.207031 2.226562 -15.378906 C 2.011719 -15.597656 1.746094 -15.730469 1.398438 -15.730469 C 1.046875 -15.730469 0.742188 -15.644531 0.566406 -15.425781 C 0.480469 -15.335938 0.4375 -15.117188 0.347656 -14.855469 C 0.261719 -14.59375 0.21875 -14.246094 0.175781 -13.808594 C 0.0429688 -13.019531 -0.0429688 -12.148438 -0.0429688 -11.140625 C -0.0859375 -10.617188 -0.0859375 -10.136719 -0.0859375 -9.699219 C -0.0859375 -9.175781 -0.0859375 -8.738281 -0.0429688 -8.300781 C 0 -6.992188 0.132812 -6.03125 0.347656 -5.375 C 0.523438 -4.675781 0.832031 -4.152344 1.222656 -3.84375 Z M 1.222656 -3.84375 "/></g></g></g><g fill="#c83535" fill-opacity="1"><g transform="translate(564.151784, 112.939196)"><g><path d="M -0.394531 -3.933594 C 0.132812 -3.582031 0.785156 -3.582031 1.574219 -3.84375 C 2.316406 -4.105469 3.191406 -4.675781 4.195312 -5.550781 C 4.589844 -5.898438 5.15625 -6.511719 5.898438 -7.382812 C 6.597656 -8.257812 7.296875 -9.132812 7.953125 -10.007812 C 8.390625 -10.574219 8.78125 -11.097656 9.132812 -11.578125 C 9.480469 -12.058594 9.699219 -12.410156 9.875 -12.671875 C 9.960938 -12.847656 10.007812 -13.066406 10.007812 -13.285156 C 10.007812 -13.5 9.917969 -13.71875 9.742188 -13.984375 C 9.394531 -14.375 9 -14.507812 8.519531 -14.375 C 8.433594 -14.332031 8.214844 -14.113281 7.863281 -13.675781 C 7.472656 -13.238281 7.078125 -12.714844 6.640625 -12.148438 C 6.335938 -11.753906 5.984375 -11.316406 5.636719 -10.878906 C 5.242188 -10.441406 4.851562 -9.960938 4.457031 -9.480469 C 3.671875 -8.609375 2.972656 -7.820312 2.273438 -7.121094 C 1.574219 -6.421875 1.179688 -6.074219 1.003906 -6.117188 C 0.875 -6.117188 0.785156 -6.203125 0.785156 -6.378906 C 0.742188 -6.511719 0.742188 -6.816406 0.785156 -7.339844 C 0.832031 -8.128906 1.003906 -9 1.3125 -10.050781 C 1.574219 -11.097656 1.964844 -12.320312 2.535156 -13.808594 C 2.753906 -14.507812 2.925781 -15.074219 3.101562 -15.597656 C 3.234375 -16.078125 3.277344 -16.386719 3.277344 -16.5625 C 3.191406 -16.867188 3.015625 -17.128906 2.753906 -17.304688 L 2.492188 -17.390625 C 2.226562 -17.433594 2.011719 -17.433594 1.792969 -17.347656 C 1.617188 -17.257812 1.441406 -17.128906 1.265625 -16.867188 C 1.09375 -16.605469 0.875 -16.078125 0.613281 -15.378906 C -0.65625 -12.058594 -1.355469 -9.480469 -1.53125 -7.648438 C -1.574219 -7.296875 -1.574219 -7.035156 -1.574219 -6.816406 C -1.574219 -5.375 -1.179688 -4.414062 -0.394531 -3.933594 Z M 2.753906 -19.355469 C 2.925781 -19.183594 3.101562 -19.050781 3.320312 -19.007812 C 3.496094 -18.964844 3.714844 -19.007812 3.976562 -19.09375 C 4.457031 -19.269531 4.71875 -19.574219 4.71875 -20.011719 C 4.71875 -20.449219 4.542969 -20.753906 4.195312 -21.015625 C 3.84375 -21.234375 3.496094 -21.234375 3.144531 -21.0625 C 2.753906 -20.84375 2.535156 -20.582031 2.445312 -20.273438 C 2.359375 -19.925781 2.492188 -19.621094 2.753906 -19.355469 Z M 2.753906 -19.355469 "/></g></g></g><g fill="#c83535" fill-opacity="1"><g transform="translate(572.366409, 112.939196)"><g><path d="M 17.390625 -32.464844 C 17.304688 -32.464844 17.214844 -32.507812 17.128906 -32.507812 C 16.867188 -32.507812 16.691406 -32.421875 16.605469 -32.335938 C 16.429688 -32.160156 16.210938 -31.941406 16.035156 -31.679688 C 15.863281 -31.460938 15.6875 -31.066406 15.425781 -30.457031 C 15.117188 -29.84375 14.855469 -29.1875 14.59375 -28.578125 C 13.808594 -26.566406 12.890625 -24.558594 11.886719 -22.546875 C 10.878906 -20.535156 9.917969 -18.875 8.957031 -17.523438 L 8.433594 -16.734375 C 7.910156 -16.910156 7.558594 -16.996094 7.339844 -17.085938 C 6.859375 -17.257812 6.511719 -17.347656 6.25 -17.390625 C 5.984375 -17.390625 5.636719 -17.347656 5.199219 -17.257812 C 3.976562 -16.996094 2.753906 -16.386719 1.53125 -15.425781 C 0.261719 -14.417969 -0.65625 -13.328125 -1.265625 -12.105469 C -1.792969 -11.097656 -2.097656 -10.179688 -2.097656 -9.351562 C -2.097656 -9.132812 -2.097656 -8.914062 -2.011719 -8.738281 C -1.878906 -7.691406 -1.355469 -7.035156 -0.4375 -6.773438 C 0.523438 -6.421875 1.703125 -6.730469 3.101562 -7.601562 C 4.5 -8.476562 6.03125 -9.917969 7.691406 -11.929688 C 8.128906 -12.453125 8.5625 -12.933594 8.914062 -13.371094 L 9.4375 -13.984375 C 9.4375 -13.984375 9.394531 -13.632812 9.261719 -13.019531 C 9.089844 -12.320312 8.914062 -11.535156 8.695312 -10.617188 C 8.433594 -9.480469 8.171875 -8.300781 7.910156 -6.992188 C 7.601562 -5.636719 7.382812 -4.457031 7.210938 -3.496094 C 7.121094 -2.972656 7.035156 -2.492188 6.992188 -2.140625 C 6.902344 -1.746094 6.902344 -1.484375 6.902344 -1.398438 C 6.902344 -1.265625 6.902344 -1.136719 6.992188 -1.003906 C 7.078125 -0.832031 7.167969 -0.742188 7.253906 -0.65625 C 7.339844 -0.523438 7.472656 -0.4375 7.648438 -0.347656 C 7.777344 -0.261719 7.910156 -0.261719 8.039062 -0.261719 C 8.390625 -0.261719 8.695312 -0.4375 8.871094 -0.832031 C 9.046875 -1.179688 9.261719 -1.878906 9.4375 -2.839844 C 10.136719 -7.035156 11.097656 -11.054688 12.234375 -14.855469 C 13.328125 -18.613281 14.8125 -22.722656 16.648438 -27.179688 C 17.390625 -29.015625 17.828125 -30.195312 18.003906 -30.71875 C 18.089844 -31.023438 18.175781 -31.285156 18.175781 -31.503906 C 18.175781 -31.636719 18.132812 -31.722656 18.132812 -31.808594 C 18.046875 -31.941406 17.957031 -32.074219 17.828125 -32.203125 C 17.652344 -32.335938 17.523438 -32.421875 17.390625 -32.464844 Z M 4.195312 -14.464844 C 4.457031 -14.59375 4.804688 -14.726562 5.15625 -14.8125 C 5.503906 -14.898438 5.855469 -14.945312 6.117188 -14.945312 C 6.292969 -14.945312 6.421875 -14.945312 6.554688 -14.945312 C 6.640625 -14.898438 6.730469 -14.855469 6.773438 -14.769531 C 6.859375 -14.636719 6.640625 -14.289062 6.160156 -13.675781 C 5.679688 -13.066406 5.113281 -12.410156 4.457031 -11.753906 C 4.019531 -11.316406 3.582031 -10.878906 3.144531 -10.53125 C 2.710938 -10.09375 2.316406 -9.832031 2.011719 -9.65625 C 1.136719 -9.046875 0.566406 -8.871094 0.347656 -9.132812 C 0.0859375 -9.351562 0.21875 -9.960938 0.699219 -10.925781 C 1.003906 -11.535156 1.53125 -12.234375 2.226562 -12.933594 C 2.882812 -13.632812 3.539062 -14.113281 4.195312 -14.464844 Z M 4.195312 -14.464844 "/></g></g></g><g fill="#c83535" fill-opacity="1"><g transform="translate(587.572204, 112.939196)"><g><path d="M 9.917969 -17.742188 C 9.789062 -17.785156 9.699219 -17.828125 9.613281 -17.871094 C 9.480469 -17.871094 9.351562 -17.914062 9.261719 -17.914062 C 9.089844 -17.914062 8.957031 -17.871094 8.78125 -17.785156 C 8.609375 -17.695312 8.390625 -17.609375 8.214844 -17.433594 C 7.953125 -17.171875 7.734375 -17.085938 7.648438 -17.085938 C 7.515625 -17.042969 7.253906 -17.085938 6.859375 -17.257812 C 5.984375 -17.523438 5.070312 -17.523438 4.195312 -17.171875 C 3.234375 -16.824219 2.316406 -16.167969 1.355469 -15.207031 C 0.65625 -14.507812 0.132812 -13.808594 -0.304688 -13.019531 C -0.785156 -12.234375 -1.046875 -11.492188 -1.09375 -10.878906 C -1.136719 -10.617188 -1.136719 -10.441406 -1.136719 -10.3125 C -1.136719 -10.136719 -1.136719 -10.050781 -1.09375 -9.960938 C -1.046875 -9.789062 -0.875 -9.527344 -0.523438 -9.21875 C -0.347656 -9 -0.132812 -8.828125 0.0859375 -8.738281 C 0.261719 -8.609375 0.4375 -8.5625 0.613281 -8.5625 C 1.136719 -8.5625 1.835938 -8.78125 2.664062 -9.261719 C 3.496094 -9.699219 4.414062 -10.355469 5.417969 -11.230469 C 5.679688 -11.492188 5.941406 -11.710938 6.203125 -11.886719 C 6.421875 -12.058594 6.554688 -12.148438 6.597656 -12.148438 C 6.597656 -12.105469 6.554688 -11.929688 6.511719 -11.667969 C 6.421875 -11.359375 6.335938 -11.011719 6.25 -10.660156 C 5.984375 -9.699219 5.855469 -8.738281 5.769531 -7.777344 C 5.679688 -6.773438 5.722656 -6.074219 5.898438 -5.636719 C 5.941406 -5.460938 6.03125 -5.242188 6.203125 -5.023438 C 6.335938 -4.804688 6.46875 -4.632812 6.597656 -4.542969 C 6.949219 -4.28125 7.296875 -4.152344 7.734375 -4.152344 C 7.996094 -4.152344 8.347656 -4.238281 8.695312 -4.414062 C 9.480469 -4.761719 10.441406 -5.503906 11.492188 -6.683594 C 11.753906 -6.949219 12.058594 -7.339844 12.453125 -7.863281 C 12.804688 -8.300781 13.195312 -8.828125 13.632812 -9.394531 C 14.246094 -10.179688 14.769531 -10.925781 15.292969 -11.667969 C 15.773438 -12.367188 16.035156 -12.804688 16.078125 -12.976562 C 16.078125 -13.066406 16.125 -13.152344 16.125 -13.238281 C 16.125 -13.414062 16.035156 -13.632812 15.90625 -13.808594 C 15.644531 -14.070312 15.378906 -14.199219 15.03125 -14.246094 C 14.683594 -14.246094 14.417969 -14.199219 14.289062 -14.113281 C 14.113281 -13.984375 13.851562 -13.632812 13.414062 -13.019531 C 11.667969 -10.488281 10.3125 -8.738281 9.394531 -7.777344 C 8.433594 -6.773438 7.996094 -6.597656 7.996094 -7.253906 C 7.996094 -7.691406 8.128906 -8.519531 8.433594 -9.742188 C 8.738281 -10.878906 9.132812 -12.191406 9.65625 -13.675781 C 10.179688 -15.292969 10.441406 -16.296875 10.488281 -16.734375 C 10.53125 -17.171875 10.355469 -17.476562 9.917969 -17.742188 Z M 5.375 -15.117188 C 5.417969 -15.117188 5.460938 -15.164062 5.503906 -15.164062 L 5.636719 -15.164062 C 5.898438 -15.164062 5.898438 -15.03125 5.722656 -14.769531 C 5.503906 -14.464844 5.023438 -13.984375 4.324219 -13.371094 C 3.363281 -12.539062 2.664062 -11.972656 2.226562 -11.667969 C 1.746094 -11.316406 1.53125 -11.273438 1.53125 -11.449219 C 1.53125 -11.621094 1.617188 -11.929688 1.878906 -12.277344 C 2.140625 -12.628906 2.492188 -13.066406 3.015625 -13.589844 C 3.453125 -14.027344 3.84375 -14.375 4.195312 -14.636719 C 4.542969 -14.8125 4.9375 -14.988281 5.375 -15.117188 Z M 5.375 -15.117188 "/></g></g></g><g fill="#c83535" fill-opacity="1"><g transform="translate(510.928542, 173.505944)"><g/></g></g></svg>