<svg xmlns="http://www.w3.org/2000/svg" xmlns:xlink="http://www.w3.org/1999/xlink" width="1348" zoomAndPan="magnify" viewBox="0 0 1011 544.499984" height="726" preserveAspectRatio="xMidYMid meet" version="1.0"><defs><g/><clipPath id="827d74eb9e"><path d="M 0.464844 0 L 1010.535156 0 L 1010.535156 544 L 0.464844 544 Z M 0.464844 0 " clip-rule="nonzero"/></clipPath><clipPath id="04bf9fc5e9"><path d="M 517 311 L 667 311 L 667 544 L 517 544 Z M 517 311 " clip-rule="nonzero"/></clipPath><clipPath id="b635a961d3"><path d="M 486 355 L 540 355 L 540 544 L 486 544 Z M 486 355 " clip-rule="nonzero"/></clipPath><clipPath id="f26f473593"><path d="M 341 367 L 478 367 L 478 544 L 341 544 Z M 341 367 " clip-rule="nonzero"/></clipPath><clipPath id="a19468990b"><path d="M 454 282 L 523 282 L 523 544 L 454 544 Z M 454 282 " clip-rule="nonzero"/></clipPath><clipPath id="e91eb668da"><path d="M 355 245 L 523 245 L 523 544 L 355 544 Z M 355 245 " clip-rule="nonzero"/></clipPath><clipPath id="3783bad581"><path d="M 558 431 L 671 431 L 671 544 L 558 544 Z M 558 431 " clip-rule="nonzero"/></clipPath><clipPath id="08a39a9d4b"><path d="M 498 198.632812 L 634 198.632812 L 634 544 L 498 544 Z M 498 198.632812 " clip-rule="nonzero"/></clipPath></defs><g clip-path="url(#827d74eb9e)"><path fill="#ffffff" d="M 0.464844 0 L 1010.535156 0 L 1010.535156 551.492188 L 0.464844 551.492188 Z M 0.464844 0 " fill-opacity="1" fill-rule="nonzero"/><path fill="#ffffff" d="M 0.464844 0 L 1010.535156 0 L 1010.535156 544 L 0.464844 544 Z M 0.464844 0 " fill-opacity="1" fill-rule="nonzero"/><path fill="#ffffff" d="M 0.464844 0 L 1010.535156 0 L 1010.535156 544 L 0.464844 544 Z M 0.464844 0 " fill-opacity="1" fill-rule="nonzero"/></g><g clip-path="url(#04bf9fc5e9)"><path fill="#a98066" d="M 562.433594 551.945312 C 566.363281 541.722656 581.585938 484.699219 587.117188 471.125 C 589.339844 465.667969 599.449219 438.734375 616.484375 413.984375 C 617.949219 411.863281 622.015625 411.257812 625.335938 408.675781 C 628.730469 406.03125 632.503906 403.925781 636.003906 401.433594 C 643.640625 395.992188 648.089844 389.566406 657.363281 386.398438 C 659.695312 385.605469 664.832031 385.695312 666.3125 383.503906 C 668.320312 380.511719 663.964844 378.78125 661.882812 378.027344 C 657.578125 376.464844 654.070312 376.996094 650.152344 378.933594 C 648.453125 379.773438 639.339844 381.796875 638.582031 383.371094 C 634.871094 379.1875 638.34375 374.414062 639.839844 369.386719 C 641.335938 364.371094 644.421875 358.605469 646.542969 352.0625 C 649.261719 343.679688 653.375 337.167969 655.441406 327.898438 C 656.300781 324.023438 653.429688 321.207031 650.070312 324.78125 C 647.480469 327.535156 645.722656 332.324219 644.09375 336.238281 C 642.984375 338.894531 633.878906 359.976562 632.121094 357.546875 C 630.84375 355.789062 634.96875 345.9375 635.5625 344.09375 C 637.335938 338.609375 638.855469 333.980469 640.242188 328.386719 C 641.027344 325.230469 646.84375 309.738281 638.589844 312.75 C 635.53125 313.867188 633.597656 320.769531 632.121094 324.6875 C 630.257812 329.644531 629.265625 333.097656 627 339.773438 C 626.046875 342.589844 623.34375 353.011719 621.5625 352.597656 C 619.699219 352.167969 622.625 343.453125 623.011719 341.726562 C 624.269531 336.128906 625.425781 330.765625 626.738281 326.03125 C 628.023438 321.386719 630.363281 310.789062 625.582031 311.328125 C 619.878906 311.976562 618.5 325.511719 617.003906 330.261719 C 614.871094 337.039062 614.242188 340.121094 612.769531 345.1875 C 611.875 348.253906 609.660156 355.609375 609.550781 351.757812 C 609.460938 348.429688 609.03125 341.359375 609.464844 334.675781 C 609.660156 331.679688 609.609375 321.546875 605.539062 320.800781 C 602.460938 320.238281 602.558594 333.71875 602.402344 336.480469 C 602.027344 343.261719 603.117188 343.140625 601.433594 357.789062 C 600.550781 365.464844 598.851562 375.226562 597.8125 384.917969 C 596.953125 392.945312 597.5625 399.023438 596.96875 402.558594 C 596.339844 406.292969 569.480469 448.851562 565.648438 455.058594 C 558.648438 466.402344 532.324219 524.585938 517.292969 551.945312 Z M 562.433594 551.945312 " fill-opacity="1" fill-rule="nonzero"/></g><g clip-path="url(#b635a961d3)"><path fill="#de8b81" d="M 496.722656 390.078125 C 499.210938 392.859375 500.550781 394.664062 501.148438 398.503906 C 501.609375 401.457031 502.582031 403.980469 503.929688 406.625 C 504.457031 407.671875 506.832031 412.003906 507.679688 413.050781 C 508.453125 414.007812 509.082031 415.464844 509.300781 416.472656 C 509.691406 418.234375 509.796875 421.988281 509.464844 425.546875 C 509.308594 427.261719 504.476562 449.445312 503.894531 452.074219 C 503.828125 452.378906 493.347656 511.65625 486.199219 551.945312 L 511.140625 551.945312 C 516.75 503.792969 524.890625 433.898438 525.582031 429.601562 C 526.203125 425.742188 527.511719 420.871094 528.742188 417.136719 C 529.453125 414.976562 530.503906 412 531.191406 409.816406 C 533.105469 403.726562 533.246094 396.246094 535.992188 386.386719 C 536.78125 383.554688 542.25 369.078125 538.5625 369.242188 C 536.65625 369.324219 535.378906 374.011719 534.8125 375.601562 C 533.617188 378.925781 531.375 387.371094 530.691406 387.390625 C 528.976562 387.441406 530.527344 380.988281 530.917969 378.507812 C 531.332031 375.855469 532.554688 369.3125 533.113281 366.707031 C 533.671875 364.089844 534.445312 359.976562 531.8125 359.554688 C 529.417969 359.175781 528.515625 365.089844 528.066406 366.75 C 527.414062 369.175781 526.71875 371.996094 526.074219 374.613281 C 525.757812 375.875 524.546875 383.535156 523.894531 383.523438 C 523.273438 383.507812 524.984375 375.554688 525.257812 374.386719 C 525.949219 371.421875 528.183594 360.820312 527.902344 358.808594 C 527.660156 357.066406 525.964844 354.957031 524.285156 356.476562 C 523.246094 357.417969 522.734375 359.984375 522.382812 361.300781 C 520.792969 367.25 519.015625 374.796875 518.039062 380.585938 C 517.917969 381.296875 517.949219 382.667969 517.21875 382.953125 C 516.488281 383.242188 516.339844 382.28125 516.308594 381.617188 C 516.210938 379.324219 516.894531 376.273438 517.132812 374.019531 C 517.414062 371.390625 517.589844 368.726562 518.085938 366.113281 C 518.449219 364.210938 518.96875 361.621094 518.28125 359.726562 C 517.570312 357.785156 516.203125 357.230469 514.960938 358.949219 C 513.691406 360.703125 513.367188 364.378906 512.8125 366.511719 C 512.390625 368.148438 510.46875 380.613281 510.035156 382.34375 C 509.460938 384.65625 508.296875 394.050781 506.785156 393.828125 C 505.992188 393.714844 504.085938 389.261719 503.394531 388.207031 C 502.160156 386.324219 500.1875 384.257812 497.957031 383.804688 C 496.597656 383.535156 493.230469 382.726562 492.117188 384.929688 C 491.292969 386.566406 495.84375 389.101562 496.722656 390.078125 Z M 496.722656 390.078125 " fill-opacity="1" fill-rule="nonzero"/></g><g clip-path="url(#f26f473593)"><path fill="#e8c0ba" d="M 379.429688 448.1875 C 381.941406 450.636719 388.558594 455.75 390.921875 458.3125 C 395 462.746094 407.851562 482.605469 412.410156 490.300781 C 417.21875 498.417969 430.496094 526.757812 441.980469 551.945312 L 477.109375 551.945312 C 457.226562 521.621094 437.957031 492.417969 435.136719 488.648438 C 432.664062 485.34375 419.9375 464.453125 418.515625 462.230469 C 412.386719 452.640625 413.125 448.261719 412.554688 445.554688 C 412.226562 444.007812 412.84375 441.683594 413.3125 439.859375 C 413.832031 437.859375 414.402344 430.3125 414.480469 428.519531 C 414.683594 423.984375 414.449219 419.84375 413.21875 415.425781 C 411.625 409.703125 412.761719 403.535156 413.863281 397.921875 C 414.445312 394.976562 414.890625 390.652344 414.0625 389.734375 C 411.578125 386.984375 406.613281 392.554688 406.066406 394.765625 C 405.558594 396.804688 404.675781 398.746094 404.601562 403.300781 C 404.570312 405.238281 405.453125 412.167969 402.390625 412.480469 C 398.222656 412.90625 392.855469 401.367188 390.582031 398.503906 C 388.890625 396.367188 380.335938 379.652344 378.710938 377.640625 C 376.589844 375.015625 374.625 369.703125 371.746094 368.058594 C 368.921875 366.453125 366.21875 368.398438 367.609375 371.25 C 369.269531 374.667969 375.0625 385.957031 377.621094 391.082031 C 380.613281 397.070312 383.402344 402.460938 381.648438 403.582031 C 380.628906 404.234375 379.222656 401.824219 378.609375 400.910156 C 373.769531 393.722656 366.808594 384.628906 360.472656 376.890625 C 359.148438 375.277344 356.382812 372.089844 354.339844 371.4375 C 351.035156 370.382812 350.230469 374.007812 350.996094 376.585938 C 351.875 379.566406 361.59375 392.605469 364.433594 396.304688 C 365.550781 397.757812 372.847656 408.519531 371.992188 408.925781 C 371.09375 409.355469 364.019531 399.421875 362.785156 397.859375 C 360.230469 394.613281 357.535156 391.402344 355.089844 388.433594 C 353.414062 386.394531 347.902344 379.011719 344.804688 381.058594 C 341.398438 383.304688 345.695312 388.441406 348.132812 391.738281 C 350.5625 395.019531 355.257812 402.457031 357.871094 405.632812 C 361.605469 410.167969 367.386719 417.609375 364.957031 418.625 C 364.847656 418.671875 359.5 413.347656 354.753906 408.222656 C 350.945312 404.113281 344.601562 398.003906 342.136719 399.582031 C 338.511719 401.90625 352.917969 415.410156 356.929688 420.574219 C 366.550781 432.957031 370.792969 439.742188 379.429688 448.1875 Z M 379.429688 448.1875 " fill-opacity="1" fill-rule="nonzero"/></g><g clip-path="url(#a19468990b)"><path fill="#ead2c1" d="M 458.378906 350.683594 C 459.039062 353.914062 463.136719 363.445312 463.84375 366.648438 C 466.484375 378.625 470 496.996094 471.40625 551.945312 L 501.15625 551.945312 C 500.582031 547.703125 499.84375 542.292969 499.542969 539.734375 C 499.09375 535.90625 488.277344 380.351562 488.136719 377.898438 C 487.96875 375.046875 489.855469 372.972656 490.75 370.570312 C 491.261719 369.203125 492.347656 367.976562 493.6875 366.800781 C 495.152344 365.507812 499.515625 359.925781 500.503906 358.570312 C 503.007812 355.144531 504.925781 351.800781 506.140625 347.734375 C 507.710938 342.46875 510.0625 340.210938 514.328125 336.84375 C 515.832031 335.65625 523.179688 333.085938 522.210938 330.601562 C 520.902344 327.253906 515.476562 328.136719 513.363281 328.226562 C 509.898438 328.375 506.714844 330.355469 504.515625 332.738281 C 503.277344 334.074219 499.609375 339.925781 498.386719 339.914062 C 496.050781 339.894531 495.925781 326.398438 495.453125 323.011719 C 495.097656 320.484375 493.390625 302.488281 493.03125 300.089844 C 492.5625 296.964844 492.714844 291.707031 491.089844 288.957031 C 489.5 286.269531 487.328125 286.746094 485.914062 289.328125 C 484.535156 291.847656 484.875 295.605469 485.097656 298.367188 C 485.335938 301.398438 485.859375 305.449219 486.207031 310.773438 C 486.484375 315.042969 487.277344 322.417969 485.203125 322.398438 C 483.996094 322.386719 484.035156 319.792969 483.972656 318.769531 C 483.5 310.394531 481.742188 299.386719 480.371094 290.652344 C 480.066406 288.714844 479.738281 284.988281 478.320312 283.4375 C 476.035156 280.929688 473.085938 283.527344 472.417969 285.921875 C 471.644531 288.695312 473.671875 303.613281 474.203125 307.941406 C 474.414062 309.648438 475.144531 321.746094 474.199219 321.625 C 473.210938 321.503906 472.253906 310.15625 472.003906 308.308594 C 471.480469 304.480469 470.816406 300.605469 470.253906 297.046875 C 469.859375 294.605469 470.050781 286.105469 466.351562 286.121094 C 462.285156 286.128906 462.207031 292.257812 462.601562 296.070312 C 462.996094 299.863281 463.199219 308.046875 463.808594 311.855469 C 464.675781 317.292969 465.804688 326.03125 463.210938 325.582031 C 462.175781 325.40625 461.097656 313.632812 460.933594 308.59375 C 460.816406 304.976562 459.492188 298.242188 456.578125 298.210938 C 452.28125 298.171875 454.554688 316.9375 455.339844 323.003906 C 457.21875 337.546875 456.535156 341.683594 458.378906 350.683594 Z M 458.378906 350.683594 " fill-opacity="1" fill-rule="nonzero"/></g><g clip-path="url(#e91eb668da)"><path fill="#a7847d" d="M 366.050781 330.277344 C 376.480469 335.191406 380.839844 343.289062 389.058594 350.648438 C 392.832031 354.023438 396.960938 356.980469 400.59375 360.515625 C 404.132812 363.964844 408.808594 365.203125 410.242188 367.878906 C 426.929688 399.050781 435.226562 431.867188 437.113281 438.539062 C 441.285156 453.304688 461.433594 527.070312 468.117188 551.945312 L 522.742188 551.945312 C 505.300781 512.625 470.753906 436.175781 464.320312 422.5625 C 460.648438 414.796875 434.804688 361.519531 434.5625 357.070312 C 434.332031 352.859375 435.832031 345.832031 435.878906 336.332031 C 435.933594 324.867188 435.222656 313.234375 435.195312 304.140625 C 435.140625 286.785156 436.398438 287.074219 436.847656 279.09375 C 437.027344 275.84375 438.90625 260.097656 435.234375 260.351562 C 430.375 260.6875 428.988281 272.535156 428.824219 276.066406 C 428.457031 283.9375 427.03125 292.144531 426.488281 296.023438 C 425.863281 300.515625 424.234375 291.621094 423.589844 287.921875 C 422.527344 281.804688 422.199219 278.117188 420.589844 269.917969 C 419.460938 264.164062 419.621094 248.160156 413.03125 246.65625 C 407.515625 245.398438 408.863281 258.097656 409.761719 263.695312 C 410.675781 269.40625 411.328125 275.824219 412.066406 282.535156 C 412.292969 284.605469 414.570312 295.179688 412.332031 295.4375 C 410.195312 295.6875 408.402344 283.148438 407.652344 279.726562 C 405.878906 271.625 405.167969 267.460938 403.636719 261.421875 C 402.425781 256.640625 401.066406 248.320312 397.632812 246.613281 C 388.378906 242.011719 393.152344 260.890625 393.65625 264.683594 C 394.550781 271.402344 395.714844 277.019531 397.074219 283.660156 C 397.535156 285.894531 401.0625 297.957031 399.34375 299.84375 C 396.96875 302.449219 389.078125 276.609375 388.132812 273.359375 C 386.730469 268.566406 385.304688 262.738281 382.640625 259.183594 C 379.179688 254.5625 375.453125 257.476562 375.953125 262.125 C 377.152344 273.230469 381.113281 281.382812 383.195312 291.539062 C 384.820312 299.472656 387.671875 306.613281 388.765625 312.675781 C 389.859375 318.75 393.300781 324.789062 388.414062 329.195312 C 387.730469 327.253906 377.339844 323.695312 375.464844 322.488281 C 371.136719 319.710938 367.101562 318.632812 361.863281 319.894531 C 359.328125 320.503906 354.007812 321.960938 355.96875 325.722656 C 357.410156 328.480469 363.425781 329.039062 366.050781 330.277344 Z M 366.050781 330.277344 " fill-opacity="1" fill-rule="nonzero"/></g><g clip-path="url(#3783bad581)"><path fill="#f2b6aa" d="M 583.789062 551.945312 C 602.578125 528.960938 617.308594 511.457031 620.910156 508.558594 C 623.433594 506.53125 632.402344 501.71875 634.914062 499.644531 C 641.914062 493.855469 644.019531 490.253906 654.535156 480.222656 C 658.921875 476.035156 672.375 462.996094 669.242188 460.390625 C 667.105469 458.617188 661.914062 462.980469 659.546875 465.699219 C 656.261719 469.476562 648.070312 477.859375 647.210938 477.367188 C 645.046875 476.113281 651.363281 470.085938 655.414062 466.4375 C 658.253906 463.878906 663.546875 457.710938 666.222656 455.03125 C 668.910156 452.34375 672.707031 447.582031 669.765625 445.070312 C 667.085938 442.789062 661.882812 449.445312 660.0625 451.078125 C 657.414062 453.46875 654.496094 456.046875 651.707031 458.664062 C 650.359375 459.9375 642.53125 468.074219 641.738281 467.558594 C 640.976562 467.070312 649.117188 458.214844 650.339844 457.03125 C 653.449219 454.027344 664.308594 443.796875 665.492188 441.191406 C 666.515625 438.933594 666.011719 435.128906 662.777344 435.648438 C 660.769531 435.972656 658.195312 438.632812 656.753906 439.9375 C 650.261719 445.808594 642.0625 453.199219 636.449219 459.347656 C 635.765625 460.097656 634.160156 462.117188 633.277344 461.386719 C 631.757812 460.125 636.972656 454.9375 639.863281 451.824219 C 643.46875 447.941406 646.394531 445.152344 648.472656 442.96875 C 650.367188 440.976562 652.984375 438.292969 653.566406 435.507812 C 654.167969 432.648438 652.890625 430.949219 650.046875 432.039062 C 647.140625 433.15625 643.941406 437.289062 641.636719 439.410156 C 639.871094 441.03125 627.304688 453.828125 625.460938 455.550781 C 622.984375 457.867188 614.40625 468.171875 612.703125 466.746094 C 611.8125 466.003906 612.828125 459.25 612.773438 457.457031 C 612.675781 454.269531 611.617188 450.789062 609.203125 448.542969 C 607.722656 447.171875 604.351562 443.15625 601.296875 444.925781 C 599.023438 446.242188 602.734375 452.746094 603.082031 454.578125 C 604.050781 459.796875 604.335938 462.976562 602.15625 467.996094 C 600.480469 471.867188 599.769531 475.621094 599.425781 479.792969 C 599.292969 481.449219 598.9375 488.421875 599.183594 490.320312 C 599.414062 492.050781 599.429688 493.65625 598.9375 495.027344 C 598.078125 497.429688 598.140625 500.183594 596.226562 502.273438 C 595.457031 503.113281 579.828125 524.480469 558.976562 551.945312 Z M 583.789062 551.945312 " fill-opacity="1" fill-rule="nonzero"/></g><path fill="#f79cb4" d="M 604.84375 364.917969 C 606.015625 363.0625 608.304688 361.777344 610.457031 361.46875 C 611.546875 361.316406 612.671875 361.324219 613.738281 361.601562 C 617.914062 362.6875 619.660156 366.292969 619.734375 366.433594 C 619.875 366.347656 623.148438 364.039062 627.324219 365.113281 C 628.394531 365.390625 629.378906 365.929688 630.257812 366.589844 C 631.992188 367.902344 633.367188 370.132812 633.5 372.328125 C 633.792969 377.355469 629.039062 382.96875 626.269531 385.054688 C 620.058594 389.730469 613.746094 390.492188 613.515625 390.515625 L 613.511719 390.523438 L 613.511719 390.519531 C 613.507812 390.515625 613.507812 390.519531 613.507812 390.519531 L 613.507812 390.515625 C 613.316406 390.378906 608.167969 386.652344 604.992188 379.550781 C 603.589844 376.390625 602.144531 369.171875 604.84375 364.917969 Z M 604.84375 364.917969 " fill-opacity="1" fill-rule="nonzero"/><path fill="#d13d87" d="M 492.183594 335.519531 C 491.265625 333.453125 489.132812 331.792969 486.988281 331.15625 C 485.898438 330.832031 484.753906 330.671875 483.625 330.796875 C 479.210938 331.269531 476.890625 334.675781 476.789062 334.808594 C 476.660156 334.703125 473.675781 331.851562 469.261719 332.316406 C 468.132812 332.433594 467.042969 332.832031 466.046875 333.375 C 464.082031 334.449219 462.34375 336.515625 461.882812 338.730469 C 460.816406 343.804688 464.816406 350.242188 467.320312 352.78125 C 472.9375 358.480469 479.246094 360.210938 479.480469 360.273438 L 479.480469 360.277344 C 479.480469 360.277344 479.484375 360.277344 479.484375 360.273438 C 479.488281 360.273438 479.492188 360.277344 479.492188 360.277344 L 479.488281 360.273438 C 479.707031 360.160156 485.511719 357.148438 489.8125 350.394531 C 491.726562 347.390625 494.285156 340.257812 492.183594 335.519531 Z M 492.183594 335.519531 " fill-opacity="1" fill-rule="nonzero"/><path fill="#983955" d="M 511.601562 389.890625 C 512.386719 388.648438 513.914062 387.777344 515.355469 387.566406 C 516.085938 387.460938 516.839844 387.460938 517.554688 387.648438 C 520.351562 388.363281 521.527344 390.777344 521.585938 390.871094 C 521.675781 390.8125 523.863281 389.257812 526.664062 389.964844 C 527.378906 390.152344 528.042969 390.511719 528.632812 390.949219 C 529.796875 391.824219 530.726562 393.316406 530.820312 394.785156 C 531.027344 398.152344 527.855469 401.925781 526.003906 403.324219 C 521.855469 406.472656 517.632812 407 517.476562 407.019531 C 517.476562 407.019531 517.476562 407.015625 517.472656 407.015625 L 517.46875 407.019531 L 517.472656 407.015625 C 517.34375 406.921875 513.886719 404.4375 511.742188 399.695312 C 510.789062 397.578125 509.808594 392.75 511.601562 389.890625 Z M 511.601562 389.890625 " fill-opacity="1" fill-rule="nonzero"/><path fill="#cc4062" d="M 392.835938 412.214844 C 391.085938 410.96875 388.539062 410.652344 386.480469 411.171875 C 385.4375 411.4375 384.421875 411.863281 383.558594 412.503906 C 380.183594 415.035156 379.941406 418.945312 379.917969 419.101562 C 379.765625 419.074219 375.945312 418.195312 372.5625 420.710938 C 371.699219 421.355469 371.003906 422.210938 370.453125 423.136719 C 369.371094 424.964844 368.953125 427.496094 369.648438 429.527344 C 371.238281 434.1875 377.621094 437.507812 380.898438 438.363281 C 388.253906 440.296875 394.242188 438.65625 394.464844 438.59375 L 394.464844 438.597656 C 394.464844 438.597656 394.46875 438.59375 394.46875 438.589844 C 394.46875 438.589844 394.472656 438.589844 394.472656 438.589844 C 394.59375 438.394531 397.875 433.113281 398.113281 425.511719 C 398.21875 422.128906 396.851562 415.0625 392.835938 412.214844 Z M 392.835938 412.214844 " fill-opacity="1" fill-rule="nonzero"/><path fill="#cc4062" d="M 642.351562 486.671875 C 643.335938 484.824219 643.285156 482.304688 642.484375 480.359375 C 642.074219 479.367188 641.507812 478.429688 640.746094 477.65625 C 637.765625 474.652344 633.871094 474.855469 633.710938 474.855469 C 633.71875 474.699219 634.042969 470.878906 631.074219 467.867188 C 630.3125 467.09375 629.371094 466.507812 628.375 466.078125 C 626.417969 465.226562 623.859375 465.105469 621.945312 466.011719 C 617.5625 468.082031 615.1875 474.671875 614.800781 477.964844 C 613.941406 485.347656 616.414062 491 616.507812 491.210938 L 616.503906 491.210938 C 616.503906 491.210938 616.507812 491.21875 616.507812 491.21875 L 616.511719 491.21875 C 616.722656 491.316406 622.402344 493.921875 629.953125 493.304688 C 633.3125 493.023438 640.109375 490.898438 642.351562 486.671875 Z M 642.351562 486.671875 " fill-opacity="1" fill-rule="nonzero"/><path fill="#f5b7b8" d="M 429.859375 311.265625 C 428.6875 308.855469 426.089844 306.988281 423.523438 306.324219 C 422.222656 305.988281 420.855469 305.84375 419.523438 306.039062 C 414.316406 306.789062 411.714844 310.921875 411.597656 311.085938 C 411.445312 310.960938 407.789062 307.71875 402.582031 308.453125 C 401.25 308.640625 399.976562 309.160156 398.820312 309.84375 C 396.542969 311.199219 394.570312 313.71875 394.117188 316.363281 C 393.074219 322.414062 398.082031 329.867188 401.152344 332.765625 C 408.054688 339.277344 415.59375 341.0625 415.878906 341.125 L 415.875 341.128906 C 415.875 341.128906 415.878906 341.128906 415.878906 341.128906 C 415.882812 341.125 415.882812 341.128906 415.882812 341.128906 L 415.886719 341.125 C 416.136719 340.980469 422.878906 337.164062 427.6875 328.984375 C 429.824219 325.34375 432.550781 316.785156 429.859375 311.265625 Z M 429.859375 311.265625 " fill-opacity="1" fill-rule="nonzero"/><g clip-path="url(#08a39a9d4b)"><path fill="#eab896" d="M 541.257812 285.050781 C 541.488281 291.683594 542.972656 297.5 545.234375 303.675781 C 546.128906 306.121094 550.21875 316.292969 551.800781 318.824219 C 553.25 321.136719 555.117188 324.082031 555.335938 326.355469 C 555.734375 330.34375 558.65625 336.066406 554.390625 351.988281 C 553.402344 355.675781 544.957031 390.078125 542.984375 395.722656 C 537.917969 410.25 506.660156 522.671875 498.875 551.945312 L 557.242188 551.945312 C 559.777344 515.867188 568.394531 416.910156 575.085938 388.070312 C 578.019531 375.460938 587.085938 342.421875 590.78125 334.515625 C 592.925781 329.949219 599.824219 319.996094 602.21875 315.511719 C 610.457031 300.085938 613.351562 288.855469 621.226562 267.558594 C 624.507812 258.675781 638.496094 233.734375 632.472656 232.109375 C 628.386719 231.003906 622.296875 242.214844 618.832031 249.554688 C 614.519531 258.703125 609.460938 268.386719 609.289062 268.371094 C 605.496094 268.03125 610.21875 255.234375 613.398438 247.339844 C 615.621094 241.808594 618.851562 229.496094 620.773438 223.898438 C 622.699219 218.28125 626.386719 209.308594 620.699219 207.691406 C 615.53125 206.222656 611.148438 218.832031 609.722656 222.371094 C 607.644531 227.539062 605.320312 233.15625 603.214844 238.75 C 602.195312 241.445312 596.769531 258.253906 595.34375 258.054688 C 593.972656 257.867188 599.355469 239.824219 600.265625 237.324219 C 602.519531 231.117188 609.941406 209.726562 610.191406 204.554688 C 610.191406 204.554688 610.886719 200.011719 605.9375 199.417969 C 603.117188 199.078125 599.78125 201.976562 597.246094 208.792969 C 592.1875 222.363281 586.242188 237.839844 582.699219 249.878906 C 582.25 251.40625 581.359375 255.351562 579.675781 254.898438 C 576.761719 254.113281 578.261719 245.457031 579.777344 235.875 C 581.066406 227.683594 584.136719 209.566406 584.933594 204.121094 C 585.003906 203.644531 585.617188 199.039062 581.503906 198.996094 C 579.085938 198.96875 577.75 201.015625 577.234375 202.257812 C 575.453125 206.605469 574.066406 213.542969 572.394531 217.804688 C 571.03125 221.292969 566.523438 248.105469 565.117188 251.792969 C 563.234375 256.742188 560.867188 275.015625 554.921875 276.25 C 550.558594 277.15625 548.75 267.203125 547.859375 264.539062 C 545.769531 258.285156 543.699219 255.988281 542.109375 253.394531 C 540.382812 250.582031 531.09375 245.070312 528.871094 249.945312 C 528.121094 251.574219 530.632812 257.351562 532.71875 261.164062 C 536.691406 268.429688 540.957031 276.449219 541.257812 285.050781 Z M 541.257812 285.050781 " fill-opacity="1" fill-rule="nonzero"/></g><path fill="#f4507b" d="M 605.214844 286.003906 C 605.292969 282.894531 603.609375 279.578125 601.316406 277.527344 C 600.15625 276.488281 598.824219 275.613281 597.347656 275.097656 C 591.578125 273.097656 586.691406 275.96875 586.484375 276.074219 C 586.386719 275.863281 584.351562 270.570312 578.589844 268.550781 C 577.113281 268.035156 575.523438 267.890625 573.96875 267.980469 C 570.898438 268.160156 567.519531 269.707031 565.644531 272.1875 C 561.339844 277.871094 562.527344 288.226562 564.148438 292.855469 C 567.785156 303.25 574.613281 309.109375 574.871094 309.324219 L 574.871094 309.328125 C 574.871094 309.328125 574.871094 309.328125 574.875 309.328125 L 574.878906 309.332031 L 574.878906 309.328125 C 575.214844 309.316406 584.207031 308.980469 593.523438 303.109375 C 597.671875 300.5 605.046875 293.132812 605.214844 286.003906 Z M 605.214844 286.003906 " fill-opacity="1" fill-rule="nonzero"/><g fill="#847469" fill-opacity="1"><g transform="translate(339.665933, 116.316915)"><g><path d="M 3.921875 -39.28125 L 20.8125 -39.28125 C 26.988281 -39.28125 32.007812 -37.460938 35.875 -33.828125 C 39.75 -30.203125 41.6875 -25.472656 41.6875 -19.640625 C 41.6875 -13.835938 39.722656 -9.113281 35.796875 -5.46875 C 31.867188 -1.820312 26.742188 0 20.421875 0 L 3.921875 0 Z M 13.921875 -31.3125 L 13.921875 -7.96875 L 21.046875 -7.96875 C 24.109375 -7.96875 26.617188 -9.039062 28.578125 -11.1875 C 30.546875 -13.34375 31.53125 -16.140625 31.53125 -19.578125 C 31.53125 -23.023438 30.5 -25.84375 28.4375 -28.03125 C 26.382812 -30.21875 23.769531 -31.3125 20.59375 -31.3125 Z M 13.921875 -31.3125 "/></g></g></g><g fill="#847469" fill-opacity="1"><g transform="translate(384.440998, 116.316915)"><g><path d="M 22.5625 -39.609375 C 28.65625 -39.609375 33.722656 -37.707031 37.765625 -33.90625 C 41.804688 -30.113281 43.828125 -25.375 43.828125 -19.6875 C 43.828125 -13.96875 41.796875 -9.179688 37.734375 -5.328125 C 33.671875 -1.472656 28.609375 0.453125 22.546875 0.453125 C 16.492188 0.453125 11.445312 -1.460938 7.40625 -5.296875 C 3.363281 -9.128906 1.34375 -13.925781 1.34375 -19.6875 C 1.34375 -25.414062 3.363281 -30.164062 7.40625 -33.9375 C 11.445312 -37.71875 16.5 -39.609375 22.5625 -39.609375 Z M 22.671875 -31.25 C 19.597656 -31.25 16.976562 -30.132812 14.8125 -27.90625 C 12.644531 -25.6875 11.5625 -22.929688 11.5625 -19.640625 C 11.5625 -16.347656 12.65625 -13.566406 14.84375 -11.296875 C 17.03125 -9.035156 19.640625 -7.90625 22.671875 -7.90625 C 25.703125 -7.90625 28.269531 -9.035156 30.375 -11.296875 C 32.488281 -13.566406 33.546875 -16.347656 33.546875 -19.640625 C 33.546875 -22.929688 32.488281 -25.6875 30.375 -27.90625 C 28.269531 -30.132812 25.703125 -31.25 22.671875 -31.25 Z M 22.671875 -31.25 "/></g></g></g><g fill="#847469" fill-opacity="1"><g transform="translate(431.348203, 116.316915)"><g><path d="M 40.171875 0 L 31.359375 0 L 13.296875 -24.1875 L 13.296875 0 L 3.921875 0 L 3.921875 -39.28125 L 12.734375 -39.28125 L 30.859375 -15.03125 L 30.859375 -39.28125 L 40.171875 -39.28125 Z M 40.171875 0 "/></g></g></g><g fill="#847469" fill-opacity="1"><g transform="translate(477.189339, 116.316915)"><g><path d="M 30.015625 -7.234375 L 12.84375 -7.234375 L 9.984375 0 L -0.28125 0 L 16.671875 -39.28125 L 26.9375 -39.28125 L 43.484375 0 L 32.828125 0 Z M 27.09375 -14.8125 L 21.484375 -29.34375 L 15.765625 -14.8125 Z M 27.09375 -14.8125 "/></g></g></g><g fill="#847469" fill-opacity="1"><g transform="translate(522.132738, 116.316915)"><g/></g></g><g fill="#847469" fill-opacity="1"><g transform="translate(536.889541, 116.316915)"><g><path d="M 25.53125 0 L 15.203125 0 L -0.0625 -39.28125 L 10.609375 -39.28125 L 20.640625 -10.375 L 30.6875 -39.28125 L 40.953125 -39.28125 Z M 25.53125 0 "/></g></g></g><g fill="#847469" fill-opacity="1"><g transform="translate(579.532474, 116.316915)"><g><path d="M 13.921875 0 L 3.921875 0 L 3.921875 -39.28125 L 13.921875 -39.28125 Z M 13.921875 0 "/></g></g></g><g fill="#847469" fill-opacity="1"><g transform="translate(599.114638, 116.316915)"><g><path d="M 3.921875 -39.28125 L 20.8125 -39.28125 C 26.988281 -39.28125 32.007812 -37.460938 35.875 -33.828125 C 39.75 -30.203125 41.6875 -25.472656 41.6875 -19.640625 C 41.6875 -13.835938 39.722656 -9.113281 35.796875 -5.46875 C 31.867188 -1.820312 26.742188 0 20.421875 0 L 3.921875 0 Z M 13.921875 -31.3125 L 13.921875 -7.96875 L 21.046875 -7.96875 C 24.109375 -7.96875 26.617188 -9.039062 28.578125 -11.1875 C 30.546875 -13.34375 31.53125 -16.140625 31.53125 -19.578125 C 31.53125 -23.023438 30.5 -25.84375 28.4375 -28.03125 C 26.382812 -30.21875 23.769531 -31.3125 20.59375 -31.3125 Z M 13.921875 -31.3125 "/></g></g></g><g fill="#847469" fill-opacity="1"><g transform="translate(643.889696, 116.316915)"><g><path d="M 30.015625 -7.234375 L 12.84375 -7.234375 L 9.984375 0 L -0.28125 0 L 16.671875 -39.28125 L 26.9375 -39.28125 L 43.484375 0 L 32.828125 0 Z M 27.09375 -14.8125 L 21.484375 -29.34375 L 15.765625 -14.8125 Z M 27.09375 -14.8125 "/></g></g></g><g fill="#c83535" fill-opacity="1"><g transform="translate(381.85199, 158.310494)"><g><path d="M 9.953125 -27.636719 C 9.761719 -27.890625 9.570312 -28.144531 9.445312 -28.269531 C 9.253906 -28.398438 9.0625 -28.523438 8.875 -28.585938 L 8.8125 -28.585938 C 8.492188 -28.585938 8.175781 -28.460938 7.859375 -28.269531 C 7.417969 -28.015625 6.910156 -27.636719 6.339844 -27.191406 C 4.308594 -25.609375 2.726562 -24.085938 1.710938 -22.628906 C 0.632812 -21.109375 0 -19.714844 -0.125 -18.320312 C -0.253906 -17.304688 -0.191406 -16.417969 0.125 -15.53125 C 0.378906 -14.640625 0.886719 -13.691406 1.710938 -12.675781 C 1.964844 -12.296875 2.21875 -11.917969 2.472656 -11.664062 C 2.664062 -11.28125 2.726562 -11.09375 2.726562 -11.09375 C 2.726562 -11.03125 2.597656 -10.902344 2.410156 -10.648438 C 2.15625 -10.332031 1.902344 -10.015625 1.648438 -9.699219 C 0.125 -7.988281 -0.824219 -6.402344 -1.140625 -5.007812 C -1.269531 -4.5625 -1.332031 -4.183594 -1.332031 -3.867188 C -1.332031 -2.914062 -1.015625 -2.15625 -0.316406 -1.519531 C 0.0625 -1.140625 0.632812 -0.886719 1.457031 -0.761719 C 1.710938 -0.695312 1.964844 -0.695312 2.21875 -0.695312 C 2.726562 -0.695312 3.167969 -0.761719 3.675781 -0.949219 C 4.308594 -1.203125 5.007812 -1.648438 5.832031 -2.28125 C 6.59375 -2.851562 7.164062 -3.484375 7.605469 -4.121094 C 8.050781 -4.753906 8.367188 -5.578125 8.492188 -6.71875 C 8.621094 -7.796875 8.621094 -8.683594 8.367188 -9.445312 C 8.113281 -10.015625 7.988281 -10.394531 8.050781 -10.648438 C 8.050781 -10.839844 8.175781 -11.03125 8.429688 -11.21875 C 10.394531 -12.488281 12.171875 -13.566406 13.691406 -14.515625 C 15.214844 -15.464844 16.542969 -16.226562 17.621094 -16.796875 C 18.320312 -17.113281 18.953125 -17.496094 19.523438 -17.875 C 20.03125 -18.253906 20.347656 -18.507812 20.472656 -18.699219 C 20.539062 -18.824219 20.601562 -19.015625 20.601562 -19.207031 C 20.601562 -19.460938 20.472656 -19.714844 20.347656 -20.03125 C 20.03125 -20.410156 19.648438 -20.664062 19.144531 -20.792969 C 18.574219 -20.792969 17.496094 -20.410156 15.910156 -19.648438 C 14.261719 -18.824219 12.359375 -17.75 10.207031 -16.355469 C 7.796875 -14.832031 6.464844 -14.007812 6.148438 -13.882812 C 5.832031 -13.691406 5.515625 -13.691406 5.132812 -13.945312 C 4.945312 -14.007812 4.753906 -14.199219 4.5 -14.578125 C 4.246094 -14.832031 3.992188 -15.148438 3.804688 -15.53125 C 3.105469 -16.734375 3.042969 -18.003906 3.613281 -19.332031 C 4.121094 -20.601562 5.386719 -22.058594 7.351562 -23.707031 C 8.8125 -24.976562 9.699219 -25.796875 10.015625 -26.242188 C 10.269531 -26.621094 10.207031 -27.128906 9.953125 -27.636719 Z M 2.28125 -4.628906 C 2.28125 -4.945312 2.726562 -5.640625 3.484375 -6.65625 C 4.246094 -7.667969 4.691406 -8.175781 4.945312 -8.175781 C 5.324219 -8.113281 5.386719 -7.667969 5.132812 -6.910156 C 4.878906 -6.085938 4.5 -5.453125 3.929688 -5.007812 C 3.738281 -4.816406 3.550781 -4.628906 3.296875 -4.5 C 3.042969 -4.308594 2.851562 -4.183594 2.726562 -4.183594 C 2.472656 -4.058594 2.34375 -4.058594 2.34375 -4.121094 C 2.28125 -4.183594 2.28125 -4.375 2.28125 -4.628906 Z M 2.28125 -4.628906 "/></g></g></g><g fill="#c83535" fill-opacity="1"><g transform="translate(400.043962, 158.310494)"><g><path d="M 14.390625 -25.734375 C 14.199219 -25.796875 14.070312 -25.863281 13.945312 -25.925781 C 13.753906 -25.925781 13.566406 -25.988281 13.4375 -25.988281 C 13.183594 -25.988281 12.996094 -25.925781 12.742188 -25.796875 C 12.488281 -25.671875 12.171875 -25.546875 11.917969 -25.292969 C 11.535156 -24.910156 11.21875 -24.785156 11.09375 -24.785156 C 10.902344 -24.722656 10.523438 -24.785156 9.953125 -25.039062 C 8.683594 -25.417969 7.351562 -25.417969 6.085938 -24.910156 C 4.691406 -24.402344 3.359375 -23.453125 1.964844 -22.058594 C 0.949219 -21.042969 0.191406 -20.03125 -0.445312 -18.890625 C -1.140625 -17.75 -1.519531 -16.671875 -1.585938 -15.785156 C -1.648438 -15.402344 -1.648438 -15.148438 -1.648438 -14.960938 C -1.648438 -14.707031 -1.648438 -14.578125 -1.585938 -14.453125 C -1.519531 -14.199219 -1.269531 -13.820312 -0.761719 -13.375 C -0.507812 -13.058594 -0.191406 -12.804688 0.125 -12.675781 C 0.378906 -12.488281 0.632812 -12.425781 0.886719 -12.425781 C 1.648438 -12.425781 2.664062 -12.742188 3.867188 -13.4375 C 5.070312 -14.070312 6.402344 -15.023438 7.859375 -16.289062 C 8.242188 -16.671875 8.621094 -16.988281 9 -17.242188 C 9.316406 -17.496094 9.507812 -17.621094 9.570312 -17.621094 C 9.570312 -17.558594 9.507812 -17.304688 9.445312 -16.925781 C 9.316406 -16.480469 9.191406 -15.972656 9.0625 -15.464844 C 8.683594 -14.070312 8.492188 -12.675781 8.367188 -11.28125 C 8.242188 -9.824219 8.304688 -8.8125 8.558594 -8.175781 C 8.621094 -7.921875 8.746094 -7.605469 9 -7.289062 C 9.191406 -6.972656 9.382812 -6.71875 9.570312 -6.59375 C 10.078125 -6.210938 10.585938 -6.023438 11.21875 -6.023438 C 11.601562 -6.023438 12.105469 -6.148438 12.613281 -6.402344 C 13.753906 -6.910156 15.148438 -7.988281 16.671875 -9.699219 C 17.050781 -10.078125 17.496094 -10.648438 18.066406 -11.410156 C 18.574219 -12.042969 19.144531 -12.804688 19.777344 -13.628906 C 20.664062 -14.769531 21.425781 -15.847656 22.1875 -16.925781 C 22.882812 -17.9375 23.261719 -18.574219 23.328125 -18.824219 C 23.328125 -18.953125 23.390625 -19.078125 23.390625 -19.207031 C 23.390625 -19.460938 23.261719 -19.777344 23.074219 -20.03125 C 22.691406 -20.410156 22.3125 -20.601562 21.804688 -20.664062 C 21.296875 -20.664062 20.917969 -20.601562 20.726562 -20.472656 C 20.472656 -20.285156 20.09375 -19.777344 19.460938 -18.890625 C 16.925781 -15.214844 14.960938 -12.675781 13.628906 -11.28125 C 12.234375 -9.824219 11.601562 -9.570312 11.601562 -10.523438 C 11.601562 -11.15625 11.789062 -12.359375 12.234375 -14.136719 C 12.675781 -15.785156 13.246094 -17.683594 14.007812 -19.839844 C 14.769531 -22.1875 15.148438 -23.644531 15.214844 -24.277344 C 15.277344 -24.910156 15.023438 -25.355469 14.390625 -25.734375 Z M 7.796875 -21.933594 C 7.859375 -21.933594 7.921875 -21.996094 7.988281 -21.996094 L 8.175781 -21.996094 C 8.558594 -21.996094 8.558594 -21.804688 8.304688 -21.425781 C 7.988281 -20.980469 7.289062 -20.285156 6.273438 -19.398438 C 4.878906 -18.191406 3.867188 -17.367188 3.234375 -16.925781 C 2.535156 -16.417969 2.21875 -16.355469 2.21875 -16.609375 C 2.21875 -16.859375 2.34375 -17.304688 2.726562 -17.8125 C 3.105469 -18.320312 3.613281 -18.953125 4.375 -19.714844 C 5.007812 -20.347656 5.578125 -20.855469 6.085938 -21.234375 C 6.59375 -21.488281 7.164062 -21.742188 7.796875 -21.933594 Z M 7.796875 -21.933594 "/></g></g></g><g fill="#c83535" fill-opacity="1"><g transform="translate(420.39108, 158.310494)"><g><path d="M 18.824219 -41.136719 C 18.824219 -42.660156 18.507812 -43.800781 17.9375 -44.5625 C 17.304688 -45.320312 16.480469 -45.703125 15.402344 -45.703125 C 14.515625 -45.703125 13.4375 -45.132812 12.171875 -43.992188 C 10.902344 -42.851562 9.636719 -41.328125 8.429688 -39.425781 C 7.734375 -38.414062 6.910156 -37.082031 6.023438 -35.308594 C 5.132812 -33.53125 4.246094 -31.757812 3.421875 -29.980469 C 2.980469 -28.96875 2.597656 -28.082031 2.21875 -27.257812 C 1.839844 -26.371094 1.585938 -25.609375 1.332031 -24.976562 C -0.445312 -20.03125 -1.269531 -15.71875 -1.269531 -11.917969 C -1.332031 -8.113281 -0.507812 -5.703125 1.269531 -4.5625 C 1.902344 -4.058594 2.664062 -3.867188 3.550781 -3.867188 C 4.058594 -3.867188 4.628906 -3.929688 5.261719 -4.121094 C 6.910156 -4.5 8.558594 -5.453125 10.332031 -6.972656 C 10.902344 -7.417969 11.535156 -8.050781 12.296875 -8.8125 C 12.996094 -9.507812 13.753906 -10.269531 14.515625 -11.09375 C 15.847656 -12.613281 17.050781 -14.136719 18.191406 -15.65625 C 19.269531 -17.179688 19.839844 -18.191406 19.839844 -18.699219 C 19.839844 -19.144531 19.714844 -19.523438 19.460938 -19.839844 C 19.144531 -20.15625 18.761719 -20.347656 18.382812 -20.347656 C 17.9375 -20.347656 17.558594 -20.15625 17.242188 -19.902344 C 16.859375 -19.523438 16.417969 -18.890625 15.847656 -18.003906 C 13.820312 -14.769531 11.535156 -12.171875 9.128906 -10.140625 C 6.65625 -8.050781 4.816406 -7.097656 3.675781 -7.289062 C 3.167969 -7.351562 2.726562 -7.734375 2.472656 -8.492188 C 2.21875 -9.253906 2.089844 -10.269531 2.089844 -11.664062 C 2.089844 -13.566406 2.15625 -14.769531 2.34375 -15.339844 C 2.472656 -15.847656 2.914062 -16.355469 3.613281 -16.796875 C 3.867188 -16.925781 4.4375 -17.367188 5.199219 -18.128906 C 5.957031 -18.761719 6.78125 -19.523438 7.542969 -20.347656 C 10.777344 -23.707031 13.4375 -27.382812 15.59375 -31.3125 C 17.75 -35.242188 18.824219 -38.476562 18.824219 -41.136719 Z M 11.15625 -37.527344 C 11.851562 -38.601562 12.613281 -39.617188 13.5 -40.632812 C 14.390625 -41.644531 14.894531 -42.152344 15.148438 -42.152344 C 15.339844 -42.152344 15.402344 -41.582031 15.339844 -40.566406 C 15.214844 -39.554688 15.023438 -38.601562 14.769531 -37.714844 C 14.136719 -35.6875 12.996094 -33.34375 11.347656 -30.679688 C 9.699219 -28.015625 7.921875 -25.671875 6.085938 -23.644531 C 5.578125 -23.074219 5.070312 -22.628906 4.691406 -22.25 C 4.308594 -21.804688 4.058594 -21.613281 3.992188 -21.613281 C 3.738281 -21.613281 3.929688 -22.503906 4.691406 -24.277344 C 5.324219 -26.050781 6.210938 -28.015625 7.226562 -30.171875 C 7.859375 -31.566406 8.558594 -32.898438 9.316406 -34.292969 C 10.015625 -35.558594 10.648438 -36.636719 11.15625 -37.527344 Z M 11.15625 -37.527344 "/></g></g></g><g fill="#c83535" fill-opacity="1"><g transform="translate(437.315318, 158.310494)"><g><path d="M 1.773438 -5.578125 C 2.28125 -5.070312 2.851562 -4.878906 3.421875 -4.878906 C 3.675781 -4.878906 3.992188 -4.945312 4.375 -5.070312 C 5.261719 -5.453125 6.148438 -6.339844 7.164062 -7.796875 C 7.480469 -8.242188 7.988281 -9.0625 8.746094 -10.332031 C 9.507812 -11.535156 10.207031 -12.804688 10.964844 -14.136719 C 11.664062 -15.402344 12.550781 -17.050781 13.691406 -18.953125 C 14.769531 -20.792969 15.71875 -22.4375 16.542969 -23.832031 C 17.304688 -25.164062 18.003906 -26.371094 18.636719 -27.511719 C 19.144531 -28.585938 19.460938 -29.222656 19.460938 -29.476562 C 19.460938 -30.109375 19.144531 -30.617188 18.574219 -30.996094 C 18.320312 -31.125 18.066406 -31.1875 17.8125 -31.1875 C 17.496094 -31.1875 17.179688 -31.058594 16.925781 -30.804688 C 16.796875 -30.679688 16.226562 -29.855469 15.277344 -28.207031 C 14.261719 -26.558594 13.058594 -24.59375 11.789062 -22.375 C 11.09375 -21.171875 10.394531 -19.96875 9.636719 -18.699219 C 8.875 -17.429688 8.175781 -16.164062 7.542969 -14.960938 C 6.339844 -12.804688 5.453125 -11.28125 4.878906 -10.394531 C 4.246094 -9.445312 3.867188 -9 3.738281 -9.128906 C 3.484375 -9.316406 3.359375 -10.332031 3.359375 -12.171875 C 3.234375 -13.945312 3.296875 -15.785156 3.421875 -17.683594 C 3.550781 -19.523438 3.613281 -20.726562 3.613281 -21.234375 C 3.613281 -21.742188 3.484375 -22.058594 3.234375 -22.3125 C 2.914062 -22.628906 2.535156 -22.820312 2.027344 -22.820312 C 1.519531 -22.820312 1.078125 -22.691406 0.824219 -22.375 C 0.695312 -22.25 0.632812 -21.933594 0.507812 -21.550781 C 0.378906 -21.171875 0.316406 -20.664062 0.253906 -20.03125 C 0.0625 -18.890625 -0.0625 -17.621094 -0.0625 -16.164062 C -0.125 -15.402344 -0.125 -14.707031 -0.125 -14.070312 C -0.125 -13.3125 -0.125 -12.675781 -0.0625 -12.042969 C 0 -10.140625 0.191406 -8.746094 0.507812 -7.796875 C 0.761719 -6.78125 1.203125 -6.023438 1.773438 -5.578125 Z M 1.773438 -5.578125 "/></g></g></g><g fill="#c83535" fill-opacity="1"><g transform="translate(455.507289, 158.310494)"><g><path d="M 14.390625 -25.734375 C 14.199219 -25.796875 14.070312 -25.863281 13.945312 -25.925781 C 13.753906 -25.925781 13.566406 -25.988281 13.4375 -25.988281 C 13.183594 -25.988281 12.996094 -25.925781 12.742188 -25.796875 C 12.488281 -25.671875 12.171875 -25.546875 11.917969 -25.292969 C 11.535156 -24.910156 11.21875 -24.785156 11.09375 -24.785156 C 10.902344 -24.722656 10.523438 -24.785156 9.953125 -25.039062 C 8.683594 -25.417969 7.351562 -25.417969 6.085938 -24.910156 C 4.691406 -24.402344 3.359375 -23.453125 1.964844 -22.058594 C 0.949219 -21.042969 0.191406 -20.03125 -0.445312 -18.890625 C -1.140625 -17.75 -1.519531 -16.671875 -1.585938 -15.785156 C -1.648438 -15.402344 -1.648438 -15.148438 -1.648438 -14.960938 C -1.648438 -14.707031 -1.648438 -14.578125 -1.585938 -14.453125 C -1.519531 -14.199219 -1.269531 -13.820312 -0.761719 -13.375 C -0.507812 -13.058594 -0.191406 -12.804688 0.125 -12.675781 C 0.378906 -12.488281 0.632812 -12.425781 0.886719 -12.425781 C 1.648438 -12.425781 2.664062 -12.742188 3.867188 -13.4375 C 5.070312 -14.070312 6.402344 -15.023438 7.859375 -16.289062 C 8.242188 -16.671875 8.621094 -16.988281 9 -17.242188 C 9.316406 -17.496094 9.507812 -17.621094 9.570312 -17.621094 C 9.570312 -17.558594 9.507812 -17.304688 9.445312 -16.925781 C 9.316406 -16.480469 9.191406 -15.972656 9.0625 -15.464844 C 8.683594 -14.070312 8.492188 -12.675781 8.367188 -11.28125 C 8.242188 -9.824219 8.304688 -8.8125 8.558594 -8.175781 C 8.621094 -7.921875 8.746094 -7.605469 9 -7.289062 C 9.191406 -6.972656 9.382812 -6.71875 9.570312 -6.59375 C 10.078125 -6.210938 10.585938 -6.023438 11.21875 -6.023438 C 11.601562 -6.023438 12.105469 -6.148438 12.613281 -6.402344 C 13.753906 -6.910156 15.148438 -7.988281 16.671875 -9.699219 C 17.050781 -10.078125 17.496094 -10.648438 18.066406 -11.410156 C 18.574219 -12.042969 19.144531 -12.804688 19.777344 -13.628906 C 20.664062 -14.769531 21.425781 -15.847656 22.1875 -16.925781 C 22.882812 -17.9375 23.261719 -18.574219 23.328125 -18.824219 C 23.328125 -18.953125 23.390625 -19.078125 23.390625 -19.207031 C 23.390625 -19.460938 23.261719 -19.777344 23.074219 -20.03125 C 22.691406 -20.410156 22.3125 -20.601562 21.804688 -20.664062 C 21.296875 -20.664062 20.917969 -20.601562 20.726562 -20.472656 C 20.472656 -20.285156 20.09375 -19.777344 19.460938 -18.890625 C 16.925781 -15.214844 14.960938 -12.675781 13.628906 -11.28125 C 12.234375 -9.824219 11.601562 -9.570312 11.601562 -10.523438 C 11.601562 -11.15625 11.789062 -12.359375 12.234375 -14.136719 C 12.675781 -15.785156 13.246094 -17.683594 14.007812 -19.839844 C 14.769531 -22.1875 15.148438 -23.644531 15.214844 -24.277344 C 15.277344 -24.910156 15.023438 -25.355469 14.390625 -25.734375 Z M 7.796875 -21.933594 C 7.859375 -21.933594 7.921875 -21.996094 7.988281 -21.996094 L 8.175781 -21.996094 C 8.558594 -21.996094 8.558594 -21.804688 8.304688 -21.425781 C 7.988281 -20.980469 7.289062 -20.285156 6.273438 -19.398438 C 4.878906 -18.191406 3.867188 -17.367188 3.234375 -16.925781 C 2.535156 -16.417969 2.21875 -16.355469 2.21875 -16.609375 C 2.21875 -16.859375 2.34375 -17.304688 2.726562 -17.8125 C 3.105469 -18.320312 3.613281 -18.953125 4.375 -19.714844 C 5.007812 -20.347656 5.578125 -20.855469 6.085938 -21.234375 C 6.59375 -21.488281 7.164062 -21.742188 7.796875 -21.933594 Z M 7.796875 -21.933594 "/></g></g></g><g fill="#c83535" fill-opacity="1"><g transform="translate(475.854407, 158.310494)"><g/></g></g><g fill="#c83535" fill-opacity="1"><g transform="translate(493.349125, 158.310494)"><g><path d="M 9.253906 -6.402344 C 9.507812 -6.273438 9.761719 -6.273438 10.015625 -6.273438 C 10.648438 -6.273438 11.347656 -6.527344 12.105469 -7.035156 C 13.183594 -7.796875 14.390625 -9 15.71875 -10.777344 C 16.035156 -11.15625 16.417969 -11.664062 16.859375 -12.296875 C 17.242188 -12.804688 17.621094 -13.4375 18.003906 -14.070312 C 18.699219 -15.214844 19.332031 -16.289062 19.902344 -17.304688 C 20.472656 -18.253906 20.792969 -18.824219 20.792969 -19.078125 C 20.792969 -19.839844 20.410156 -20.347656 19.777344 -20.664062 C 19.144531 -20.917969 18.574219 -20.855469 18.128906 -20.347656 C 18.003906 -20.21875 17.621094 -19.714844 17.113281 -18.890625 C 16.480469 -18.066406 15.910156 -17.113281 15.277344 -16.101562 C 14.578125 -15.085938 13.882812 -14.070312 13.246094 -13.183594 C 12.550781 -12.171875 12.042969 -11.535156 11.789062 -11.28125 C 11.28125 -10.777344 10.964844 -10.394531 10.777344 -10.140625 C 10.777344 -10.902344 10.839844 -11.535156 10.902344 -11.980469 C 10.902344 -12.425781 11.09375 -13.246094 11.410156 -14.515625 C 11.664062 -15.71875 11.980469 -16.925781 12.359375 -18.191406 C 12.675781 -19.398438 12.929688 -20.472656 13.183594 -21.488281 C 13.375 -22.503906 13.4375 -23.074219 13.4375 -23.261719 C 13.375 -23.390625 13.246094 -23.582031 13.121094 -23.832031 C 12.929688 -24.023438 12.742188 -24.214844 12.613281 -24.339844 C 12.234375 -24.53125 11.917969 -24.65625 11.664062 -24.65625 C 11.410156 -24.65625 11.15625 -24.53125 10.964844 -24.402344 C 10.457031 -24.023438 9.699219 -23.007812 8.683594 -21.363281 C 7.667969 -19.714844 6.527344 -18.191406 5.199219 -16.671875 C 3.804688 -15.085938 3.042969 -14.390625 2.789062 -14.578125 C 2.664062 -14.640625 2.535156 -14.832031 2.535156 -15.148438 C 2.472656 -15.464844 2.472656 -15.910156 2.597656 -16.417969 C 2.597656 -16.671875 2.789062 -17.304688 3.042969 -18.445312 C 3.296875 -19.523438 3.421875 -20.21875 3.550781 -20.601562 C 3.675781 -21.171875 3.804688 -21.679688 3.867188 -22.058594 C 3.867188 -22.4375 3.867188 -22.757812 3.867188 -23.007812 C 3.804688 -23.261719 3.675781 -23.453125 3.550781 -23.644531 C 3.359375 -23.769531 3.167969 -23.832031 2.914062 -23.960938 C 2.535156 -24.023438 2.21875 -24.023438 2.027344 -24.023438 C 1.773438 -23.960938 1.519531 -23.832031 1.332031 -23.707031 C 1.078125 -23.453125 0.886719 -23.199219 0.761719 -22.820312 C 0.632812 -22.375 0.445312 -21.867188 0.316406 -21.296875 C 0.191406 -20.792969 -0.0625 -19.96875 -0.316406 -18.699219 C -0.570312 -17.429688 -0.761719 -16.609375 -0.761719 -16.226562 C -0.824219 -15.847656 -0.824219 -15.464844 -0.824219 -15.085938 C -0.824219 -14.578125 -0.824219 -14.070312 -0.695312 -13.691406 C -0.570312 -12.929688 -0.253906 -12.359375 0.125 -11.980469 C 0.316406 -11.726562 0.570312 -11.535156 0.886719 -11.347656 C 1.140625 -11.15625 1.332031 -11.03125 1.585938 -11.03125 C 2.089844 -10.839844 2.789062 -10.902344 3.613281 -11.21875 C 4.375 -11.535156 5.132812 -12.042969 5.957031 -12.675781 C 6.339844 -12.996094 6.71875 -13.3125 7.097656 -13.566406 L 7.605469 -13.882812 C 7.605469 -13.820312 7.605469 -13.628906 7.605469 -13.246094 C 7.542969 -12.867188 7.480469 -12.425781 7.417969 -11.917969 C 7.289062 -11.410156 7.289062 -10.902344 7.289062 -10.332031 C 7.226562 -9.761719 7.226562 -9.382812 7.289062 -9.128906 C 7.417969 -8.558594 7.667969 -7.988281 8.050781 -7.480469 C 8.429688 -6.910156 8.8125 -6.527344 9.253906 -6.402344 Z M 9.253906 -6.402344 "/></g></g></g><g fill="#c83535" fill-opacity="1"><g transform="translate(511.097397, 158.310494)"><g><path d="M -0.253906 -9.445312 C 0.0625 -9.253906 0.445312 -9.191406 0.824219 -9.191406 C 1.457031 -9.191406 2.21875 -9.507812 3.042969 -10.140625 C 4.308594 -11.15625 6.148438 -13.3125 8.683594 -16.609375 C 10.207031 -18.636719 11.410156 -20.15625 12.425781 -21.296875 C 13.375 -22.3125 13.945312 -22.820312 14.070312 -22.691406 C 14.136719 -22.566406 14.136719 -22.25 14.070312 -21.679688 C 13.945312 -21.042969 13.820312 -20.285156 13.691406 -19.460938 C 13.183594 -16.925781 12.996094 -15.023438 13.246094 -13.753906 C 13.375 -12.488281 14.007812 -11.535156 15.023438 -11.03125 C 15.402344 -10.777344 15.71875 -10.648438 15.972656 -10.648438 C 16.226562 -10.585938 16.734375 -10.648438 17.367188 -10.777344 C 17.875 -10.902344 18.890625 -11.410156 20.285156 -12.359375 C 21.679688 -13.246094 23.582031 -15.085938 25.988281 -17.8125 C 26.179688 -18.066406 26.304688 -18.382812 26.304688 -18.761719 C 26.304688 -19.144531 26.179688 -19.523438 25.925781 -19.902344 C 25.417969 -20.664062 24.785156 -20.792969 24.023438 -20.21875 L 23.453125 -19.648438 C 23.199219 -19.460938 23.007812 -19.207031 22.757812 -18.953125 C 21.679688 -17.875 20.539062 -16.796875 19.269531 -15.71875 C 18.003906 -14.640625 17.179688 -14.136719 16.796875 -14.136719 C 16.542969 -14.136719 16.417969 -14.515625 16.480469 -15.277344 C 16.480469 -16.035156 16.734375 -17.429688 17.113281 -19.398438 C 17.304688 -20.347656 17.496094 -21.296875 17.621094 -22.1875 C 17.75 -23.074219 17.8125 -23.644531 17.8125 -23.898438 C 17.8125 -25.039062 17.496094 -25.863281 16.859375 -26.433594 C 16.164062 -26.941406 15.339844 -27.128906 14.390625 -26.875 C 13.3125 -26.558594 12.042969 -25.671875 10.648438 -24.214844 C 9.128906 -22.691406 7.035156 -20.15625 4.375 -16.671875 C 3.738281 -15.847656 3.234375 -15.214844 2.789062 -14.707031 C 2.34375 -14.199219 2.089844 -13.945312 2.089844 -14.070312 C 1.964844 -14.324219 2.21875 -15.339844 2.789062 -17.179688 C 3.296875 -19.015625 3.867188 -20.917969 4.5625 -22.820312 C 4.816406 -23.582031 5.070312 -24.339844 5.324219 -25.101562 C 5.515625 -25.796875 5.640625 -26.242188 5.640625 -26.371094 C 5.640625 -27.066406 5.261719 -27.574219 4.628906 -27.828125 C 4.375 -27.890625 4.183594 -27.953125 3.992188 -27.953125 C 3.550781 -27.953125 3.167969 -27.765625 2.851562 -27.445312 C 2.664062 -27.257812 2.34375 -26.496094 1.902344 -25.226562 C 1.394531 -23.832031 0.886719 -22.4375 0.378906 -20.917969 C 0 -19.839844 -0.316406 -18.824219 -0.570312 -17.9375 C -0.824219 -16.925781 -1.015625 -16.164062 -1.140625 -15.53125 C -1.394531 -14.324219 -1.519531 -13.3125 -1.519531 -12.488281 C -1.519531 -12.105469 -1.519531 -11.789062 -1.457031 -11.535156 C -1.332031 -10.523438 -0.949219 -9.824219 -0.253906 -9.445312 Z M -0.253906 -9.445312 "/></g></g></g><g fill="#c83535" fill-opacity="1"><g transform="translate(534.550461, 158.310494)"><g><path d="M 14.390625 -25.734375 C 14.199219 -25.796875 14.070312 -25.863281 13.945312 -25.925781 C 13.753906 -25.925781 13.566406 -25.988281 13.4375 -25.988281 C 13.183594 -25.988281 12.996094 -25.925781 12.742188 -25.796875 C 12.488281 -25.671875 12.171875 -25.546875 11.917969 -25.292969 C 11.535156 -24.910156 11.21875 -24.785156 11.09375 -24.785156 C 10.902344 -24.722656 10.523438 -24.785156 9.953125 -25.039062 C 8.683594 -25.417969 7.351562 -25.417969 6.085938 -24.910156 C 4.691406 -24.402344 3.359375 -23.453125 1.964844 -22.058594 C 0.949219 -21.042969 0.191406 -20.03125 -0.445312 -18.890625 C -1.140625 -17.75 -1.519531 -16.671875 -1.585938 -15.785156 C -1.648438 -15.402344 -1.648438 -15.148438 -1.648438 -14.960938 C -1.648438 -14.707031 -1.648438 -14.578125 -1.585938 -14.453125 C -1.519531 -14.199219 -1.269531 -13.820312 -0.761719 -13.375 C -0.507812 -13.058594 -0.191406 -12.804688 0.125 -12.675781 C 0.378906 -12.488281 0.632812 -12.425781 0.886719 -12.425781 C 1.648438 -12.425781 2.664062 -12.742188 3.867188 -13.4375 C 5.070312 -14.070312 6.402344 -15.023438 7.859375 -16.289062 C 8.242188 -16.671875 8.621094 -16.988281 9 -17.242188 C 9.316406 -17.496094 9.507812 -17.621094 9.570312 -17.621094 C 9.570312 -17.558594 9.507812 -17.304688 9.445312 -16.925781 C 9.316406 -16.480469 9.191406 -15.972656 9.0625 -15.464844 C 8.683594 -14.070312 8.492188 -12.675781 8.367188 -11.28125 C 8.242188 -9.824219 8.304688 -8.8125 8.558594 -8.175781 C 8.621094 -7.921875 8.746094 -7.605469 9 -7.289062 C 9.191406 -6.972656 9.382812 -6.71875 9.570312 -6.59375 C 10.078125 -6.210938 10.585938 -6.023438 11.21875 -6.023438 C 11.601562 -6.023438 12.105469 -6.148438 12.613281 -6.402344 C 13.753906 -6.910156 15.148438 -7.988281 16.671875 -9.699219 C 17.050781 -10.078125 17.496094 -10.648438 18.066406 -11.410156 C 18.574219 -12.042969 19.144531 -12.804688 19.777344 -13.628906 C 20.664062 -14.769531 21.425781 -15.847656 22.1875 -16.925781 C 22.882812 -17.9375 23.261719 -18.574219 23.328125 -18.824219 C 23.328125 -18.953125 23.390625 -19.078125 23.390625 -19.207031 C 23.390625 -19.460938 23.261719 -19.777344 23.074219 -20.03125 C 22.691406 -20.410156 22.3125 -20.601562 21.804688 -20.664062 C 21.296875 -20.664062 20.917969 -20.601562 20.726562 -20.472656 C 20.472656 -20.285156 20.09375 -19.777344 19.460938 -18.890625 C 16.925781 -15.214844 14.960938 -12.675781 13.628906 -11.28125 C 12.234375 -9.824219 11.601562 -9.570312 11.601562 -10.523438 C 11.601562 -11.15625 11.789062 -12.359375 12.234375 -14.136719 C 12.675781 -15.785156 13.246094 -17.683594 14.007812 -19.839844 C 14.769531 -22.1875 15.148438 -23.644531 15.214844 -24.277344 C 15.277344 -24.910156 15.023438 -25.355469 14.390625 -25.734375 Z M 7.796875 -21.933594 C 7.859375 -21.933594 7.921875 -21.996094 7.988281 -21.996094 L 8.175781 -21.996094 C 8.558594 -21.996094 8.558594 -21.804688 8.304688 -21.425781 C 7.988281 -20.980469 7.289062 -20.285156 6.273438 -19.398438 C 4.878906 -18.191406 3.867188 -17.367188 3.234375 -16.925781 C 2.535156 -16.417969 2.21875 -16.355469 2.21875 -16.609375 C 2.21875 -16.859375 2.34375 -17.304688 2.726562 -17.8125 C 3.105469 -18.320312 3.613281 -18.953125 4.375 -19.714844 C 5.007812 -20.347656 5.578125 -20.855469 6.085938 -21.234375 C 6.59375 -21.488281 7.164062 -21.742188 7.796875 -21.933594 Z M 7.796875 -21.933594 "/></g></g></g><g fill="#c83535" fill-opacity="1"><g transform="translate(554.897586, 158.310494)"><g/></g></g><g fill="#c83535" fill-opacity="1"><g transform="translate(572.392304, 158.310494)"><g><path d="M 1.773438 -5.578125 C 2.28125 -5.070312 2.851562 -4.878906 3.421875 -4.878906 C 3.675781 -4.878906 3.992188 -4.945312 4.375 -5.070312 C 5.261719 -5.453125 6.148438 -6.339844 7.164062 -7.796875 C 7.480469 -8.242188 7.988281 -9.0625 8.746094 -10.332031 C 9.507812 -11.535156 10.207031 -12.804688 10.964844 -14.136719 C 11.664062 -15.402344 12.550781 -17.050781 13.691406 -18.953125 C 14.769531 -20.792969 15.71875 -22.4375 16.542969 -23.832031 C 17.304688 -25.164062 18.003906 -26.371094 18.636719 -27.511719 C 19.144531 -28.585938 19.460938 -29.222656 19.460938 -29.476562 C 19.460938 -30.109375 19.144531 -30.617188 18.574219 -30.996094 C 18.320312 -31.125 18.066406 -31.1875 17.8125 -31.1875 C 17.496094 -31.1875 17.179688 -31.058594 16.925781 -30.804688 C 16.796875 -30.679688 16.226562 -29.855469 15.277344 -28.207031 C 14.261719 -26.558594 13.058594 -24.59375 11.789062 -22.375 C 11.09375 -21.171875 10.394531 -19.96875 9.636719 -18.699219 C 8.875 -17.429688 8.175781 -16.164062 7.542969 -14.960938 C 6.339844 -12.804688 5.453125 -11.28125 4.878906 -10.394531 C 4.246094 -9.445312 3.867188 -9 3.738281 -9.128906 C 3.484375 -9.316406 3.359375 -10.332031 3.359375 -12.171875 C 3.234375 -13.945312 3.296875 -15.785156 3.421875 -17.683594 C 3.550781 -19.523438 3.613281 -20.726562 3.613281 -21.234375 C 3.613281 -21.742188 3.484375 -22.058594 3.234375 -22.3125 C 2.914062 -22.628906 2.535156 -22.820312 2.027344 -22.820312 C 1.519531 -22.820312 1.078125 -22.691406 0.824219 -22.375 C 0.695312 -22.25 0.632812 -21.933594 0.507812 -21.550781 C 0.378906 -21.171875 0.316406 -20.664062 0.253906 -20.03125 C 0.0625 -18.890625 -0.0625 -17.621094 -0.0625 -16.164062 C -0.125 -15.402344 -0.125 -14.707031 -0.125 -14.070312 C -0.125 -13.3125 -0.125 -12.675781 -0.0625 -12.042969 C 0 -10.140625 0.191406 -8.746094 0.507812 -7.796875 C 0.761719 -6.78125 1.203125 -6.023438 1.773438 -5.578125 Z M 1.773438 -5.578125 "/></g></g></g><g fill="#c83535" fill-opacity="1"><g transform="translate(590.584282, 158.310494)"><g><path d="M -0.570312 -5.703125 C 0.191406 -5.199219 1.140625 -5.199219 2.28125 -5.578125 C 3.359375 -5.957031 4.628906 -6.78125 6.085938 -8.050781 C 6.65625 -8.558594 7.480469 -9.445312 8.558594 -10.710938 C 9.570312 -11.980469 10.585938 -13.246094 11.535156 -14.515625 C 12.171875 -15.339844 12.742188 -16.101562 13.246094 -16.796875 C 13.753906 -17.496094 14.070312 -18.003906 14.324219 -18.382812 C 14.453125 -18.636719 14.515625 -18.953125 14.515625 -19.269531 C 14.515625 -19.585938 14.390625 -19.902344 14.136719 -20.285156 C 13.628906 -20.855469 13.058594 -21.042969 12.359375 -20.855469 C 12.234375 -20.792969 11.917969 -20.472656 11.410156 -19.839844 C 10.839844 -19.207031 10.269531 -18.445312 9.636719 -17.621094 C 9.191406 -17.050781 8.683594 -16.417969 8.175781 -15.785156 C 7.605469 -15.148438 7.035156 -14.453125 6.464844 -13.753906 C 5.324219 -12.488281 4.308594 -11.347656 3.296875 -10.332031 C 2.28125 -9.316406 1.710938 -8.8125 1.457031 -8.875 C 1.269531 -8.875 1.140625 -9 1.140625 -9.253906 C 1.078125 -9.445312 1.078125 -9.886719 1.140625 -10.648438 C 1.203125 -11.789062 1.457031 -13.058594 1.902344 -14.578125 C 2.28125 -16.101562 2.851562 -17.875 3.675781 -20.03125 C 3.992188 -21.042969 4.246094 -21.867188 4.5 -22.628906 C 4.691406 -23.328125 4.753906 -23.769531 4.753906 -24.023438 C 4.628906 -24.46875 4.375 -24.847656 3.992188 -25.101562 L 3.613281 -25.226562 C 3.234375 -25.292969 2.914062 -25.292969 2.597656 -25.164062 C 2.34375 -25.039062 2.089844 -24.847656 1.839844 -24.46875 C 1.585938 -24.085938 1.269531 -23.328125 0.886719 -22.3125 C -0.949219 -17.496094 -1.964844 -13.753906 -2.21875 -11.09375 C -2.28125 -10.585938 -2.28125 -10.207031 -2.28125 -9.886719 C -2.28125 -7.796875 -1.710938 -6.402344 -0.570312 -5.703125 Z M 3.992188 -28.082031 C 4.246094 -27.828125 4.5 -27.636719 4.816406 -27.574219 C 5.070312 -27.511719 5.386719 -27.574219 5.769531 -27.699219 C 6.464844 -27.953125 6.847656 -28.398438 6.847656 -29.03125 C 6.847656 -29.664062 6.59375 -30.109375 6.085938 -30.488281 C 5.578125 -30.804688 5.070312 -30.804688 4.5625 -30.554688 C 3.992188 -30.234375 3.675781 -29.855469 3.550781 -29.410156 C 3.421875 -28.90625 3.613281 -28.460938 3.992188 -28.082031 Z M 3.992188 -28.082031 "/></g></g></g><g fill="#c83535" fill-opacity="1"><g transform="translate(602.500974, 158.310494)"><g><path d="M 25.226562 -47.097656 C 25.101562 -47.097656 24.976562 -47.160156 24.847656 -47.160156 C 24.46875 -47.160156 24.214844 -47.035156 24.085938 -46.90625 C 23.832031 -46.652344 23.515625 -46.335938 23.261719 -45.957031 C 23.007812 -45.640625 22.757812 -45.070312 22.375 -44.179688 C 21.933594 -43.292969 21.550781 -42.34375 21.171875 -41.457031 C 20.03125 -38.539062 18.699219 -35.625 17.242188 -32.707031 C 15.785156 -29.792969 14.390625 -27.382812 12.996094 -25.417969 L 12.234375 -24.277344 C 11.472656 -24.53125 10.964844 -24.65625 10.648438 -24.785156 C 9.953125 -25.039062 9.445312 -25.164062 9.0625 -25.226562 C 8.683594 -25.226562 8.175781 -25.164062 7.542969 -25.039062 C 5.769531 -24.65625 3.992188 -23.769531 2.21875 -22.375 C 0.378906 -20.917969 -0.949219 -19.332031 -1.839844 -17.558594 C -2.597656 -16.101562 -3.042969 -14.769531 -3.042969 -13.566406 C -3.042969 -13.246094 -3.042969 -12.929688 -2.914062 -12.675781 C -2.726562 -11.15625 -1.964844 -10.207031 -0.632812 -9.824219 C 0.761719 -9.316406 2.472656 -9.761719 4.5 -11.03125 C 6.527344 -12.296875 8.746094 -14.390625 11.15625 -17.304688 C 11.789062 -18.066406 12.425781 -18.761719 12.929688 -19.398438 L 13.691406 -20.285156 C 13.691406 -20.285156 13.628906 -19.777344 13.4375 -18.890625 C 13.183594 -17.875 12.929688 -16.734375 12.613281 -15.402344 C 12.234375 -13.753906 11.851562 -12.042969 11.472656 -10.140625 C 11.03125 -8.175781 10.710938 -6.464844 10.457031 -5.070312 C 10.332031 -4.308594 10.207031 -3.613281 10.140625 -3.105469 C 10.015625 -2.535156 10.015625 -2.15625 10.015625 -2.027344 C 10.015625 -1.839844 10.015625 -1.648438 10.140625 -1.457031 C 10.269531 -1.203125 10.394531 -1.078125 10.523438 -0.949219 C 10.648438 -0.761719 10.839844 -0.632812 11.09375 -0.507812 C 11.28125 -0.378906 11.472656 -0.378906 11.664062 -0.378906 C 12.171875 -0.378906 12.613281 -0.632812 12.867188 -1.203125 C 13.121094 -1.710938 13.4375 -2.726562 13.691406 -4.121094 C 14.707031 -10.207031 16.101562 -16.035156 17.75 -21.550781 C 19.332031 -27.003906 21.488281 -32.960938 24.152344 -39.425781 C 25.226562 -42.089844 25.863281 -43.800781 26.117188 -44.5625 C 26.242188 -45.003906 26.371094 -45.386719 26.371094 -45.703125 C 26.371094 -45.890625 26.304688 -46.019531 26.304688 -46.144531 C 26.179688 -46.335938 26.050781 -46.527344 25.863281 -46.714844 C 25.609375 -46.90625 25.417969 -47.035156 25.226562 -47.097656 Z M 6.085938 -20.980469 C 6.464844 -21.171875 6.972656 -21.363281 7.480469 -21.488281 C 7.988281 -21.613281 8.492188 -21.679688 8.875 -21.679688 C 9.128906 -21.679688 9.316406 -21.679688 9.507812 -21.679688 C 9.636719 -21.613281 9.761719 -21.550781 9.824219 -21.425781 C 9.953125 -21.234375 9.636719 -20.726562 8.9375 -19.839844 C 8.242188 -18.953125 7.417969 -18.003906 6.464844 -17.050781 C 5.832031 -16.417969 5.199219 -15.785156 4.5625 -15.277344 C 3.929688 -14.640625 3.359375 -14.261719 2.914062 -14.007812 C 1.648438 -13.121094 0.824219 -12.867188 0.507812 -13.246094 C 0.125 -13.566406 0.316406 -14.453125 1.015625 -15.847656 C 1.457031 -16.734375 2.21875 -17.75 3.234375 -18.761719 C 4.183594 -19.777344 5.132812 -20.472656 6.085938 -20.980469 Z M 6.085938 -20.980469 "/></g></g></g><g fill="#c83535" fill-opacity="1"><g transform="translate(624.559532, 158.310494)"><g><path d="M 14.390625 -25.734375 C 14.199219 -25.796875 14.070312 -25.863281 13.945312 -25.925781 C 13.753906 -25.925781 13.566406 -25.988281 13.4375 -25.988281 C 13.183594 -25.988281 12.996094 -25.925781 12.742188 -25.796875 C 12.488281 -25.671875 12.171875 -25.546875 11.917969 -25.292969 C 11.535156 -24.910156 11.21875 -24.785156 11.09375 -24.785156 C 10.902344 -24.722656 10.523438 -24.785156 9.953125 -25.039062 C 8.683594 -25.417969 7.351562 -25.417969 6.085938 -24.910156 C 4.691406 -24.402344 3.359375 -23.453125 1.964844 -22.058594 C 0.949219 -21.042969 0.191406 -20.03125 -0.445312 -18.890625 C -1.140625 -17.75 -1.519531 -16.671875 -1.585938 -15.785156 C -1.648438 -15.402344 -1.648438 -15.148438 -1.648438 -14.960938 C -1.648438 -14.707031 -1.648438 -14.578125 -1.585938 -14.453125 C -1.519531 -14.199219 -1.269531 -13.820312 -0.761719 -13.375 C -0.507812 -13.058594 -0.191406 -12.804688 0.125 -12.675781 C 0.378906 -12.488281 0.632812 -12.425781 0.886719 -12.425781 C 1.648438 -12.425781 2.664062 -12.742188 3.867188 -13.4375 C 5.070312 -14.070312 6.402344 -15.023438 7.859375 -16.289062 C 8.242188 -16.671875 8.621094 -16.988281 9 -17.242188 C 9.316406 -17.496094 9.507812 -17.621094 9.570312 -17.621094 C 9.570312 -17.558594 9.507812 -17.304688 9.445312 -16.925781 C 9.316406 -16.480469 9.191406 -15.972656 9.0625 -15.464844 C 8.683594 -14.070312 8.492188 -12.675781 8.367188 -11.28125 C 8.242188 -9.824219 8.304688 -8.8125 8.558594 -8.175781 C 8.621094 -7.921875 8.746094 -7.605469 9 -7.289062 C 9.191406 -6.972656 9.382812 -6.71875 9.570312 -6.59375 C 10.078125 -6.210938 10.585938 -6.023438 11.21875 -6.023438 C 11.601562 -6.023438 12.105469 -6.148438 12.613281 -6.402344 C 13.753906 -6.910156 15.148438 -7.988281 16.671875 -9.699219 C 17.050781 -10.078125 17.496094 -10.648438 18.066406 -11.410156 C 18.574219 -12.042969 19.144531 -12.804688 19.777344 -13.628906 C 20.664062 -14.769531 21.425781 -15.847656 22.1875 -16.925781 C 22.882812 -17.9375 23.261719 -18.574219 23.328125 -18.824219 C 23.328125 -18.953125 23.390625 -19.078125 23.390625 -19.207031 C 23.390625 -19.460938 23.261719 -19.777344 23.074219 -20.03125 C 22.691406 -20.410156 22.3125 -20.601562 21.804688 -20.664062 C 21.296875 -20.664062 20.917969 -20.601562 20.726562 -20.472656 C 20.472656 -20.285156 20.09375 -19.777344 19.460938 -18.890625 C 16.925781 -15.214844 14.960938 -12.675781 13.628906 -11.28125 C 12.234375 -9.824219 11.601562 -9.570312 11.601562 -10.523438 C 11.601562 -11.15625 11.789062 -12.359375 12.234375 -14.136719 C 12.675781 -15.785156 13.246094 -17.683594 14.007812 -19.839844 C 14.769531 -22.1875 15.148438 -23.644531 15.214844 -24.277344 C 15.277344 -24.910156 15.023438 -25.355469 14.390625 -25.734375 Z M 7.796875 -21.933594 C 7.859375 -21.933594 7.921875 -21.996094 7.988281 -21.996094 L 8.175781 -21.996094 C 8.558594 -21.996094 8.558594 -21.804688 8.304688 -21.425781 C 7.988281 -20.980469 7.289062 -20.285156 6.273438 -19.398438 C 4.878906 -18.191406 3.867188 -17.367188 3.234375 -16.925781 C 2.535156 -16.417969 2.21875 -16.355469 2.21875 -16.609375 C 2.21875 -16.859375 2.34375 -17.304688 2.726562 -17.8125 C 3.105469 -18.320312 3.613281 -18.953125 4.375 -19.714844 C 5.007812 -20.347656 5.578125 -20.855469 6.085938 -21.234375 C 6.59375 -21.488281 7.164062 -21.742188 7.796875 -21.933594 Z M 7.796875 -21.933594 "/></g></g></g><g fill="#c83535" fill-opacity="1"><g transform="translate(513.375038, 246.172727)"><g/></g></g></svg>