<svg id="visual" viewBox="0 0 1348 331" width="1348" height="331" xmlns="http://www.w3.org/2000/svg" xmlns:xlink="http://www.w3.org/1999/xlink" version="1.1"><path d="M0 67L20.5 64.8C41 62.7 82 58.3 122.8 55C163.7 51.7 204.3 49.3 245.2 47.7C286 46 327 45 367.8 44.5C408.7 44 449.3 44 490.2 41.2C531 38.3 572 32.7 612.8 29.3C653.7 26 694.3 25 735.2 31.2C776 37.3 817 50.7 857.8 54C898.7 57.3 939.3 50.7 980.2 45.7C1021 40.7 1062 37.3 1102.8 35.7C1143.7 34 1184.3 34 1225.2 39.5C1266 45 1307 56 1327.5 61.5L1348 67L1348 0L1327.5 0C1307 0 1266 0 1225.2 0C1184.3 0 1143.7 0 1102.8 0C1062 0 1021 0 980.2 0C939.3 0 898.7 0 857.8 0C817 0 776 0 735.2 0C694.3 0 653.7 0 612.8 0C572 0 531 0 490.2 0C449.3 0 408.7 0 367.8 0C327 0 286 0 245.2 0C204.3 0 163.7 0 122.8 0C82 0 41 0 20.5 0L0 0Z" fill="#ff6e74"></path><path d="M0 94L20.5 94C41 94 82 94 122.8 91.2C163.7 88.3 204.3 82.7 245.2 84.3C286 86 327 95 367.8 103.3C408.7 111.7 449.3 119.3 490.2 119.3C531 119.3 572 111.7 612.8 103.3C653.7 95 694.3 86 735.2 86C776 86 817 95 857.8 100.5C898.7 106 939.3 108 980.2 104.7C1021 101.3 1062 92.7 1102.8 85C1143.7 77.3 1184.3 70.7 1225.2 80C1266 89.3 1307 114.7 1327.5 127.3L1348 140L1348 65L1327.5 59.5C1307 54 1266 43 1225.2 37.5C1184.3 32 1143.7 32 1102.8 33.7C1062 35.3 1021 38.7 980.2 43.7C939.3 48.7 898.7 55.3 857.8 52C817 48.7 776 35.3 735.2 29.2C694.3 23 653.7 24 612.8 27.3C572 30.7 531 36.3 490.2 39.2C449.3 42 408.7 42 367.8 42.5C327 43 286 44 245.2 45.7C204.3 47.3 163.7 49.7 122.8 53C82 56.3 41 60.7 20.5 62.8L0 65Z" fill="#ff4950"></path><path d="M0 147L20.5 147.5C41 148 82 149 122.8 144C163.7 139 204.3 128 245.2 129.7C286 131.3 327 145.7 367.8 153.3C408.7 161 449.3 162 490.2 158.7C531 155.3 572 147.7 612.8 137.8C653.7 128 694.3 116 735.2 116C776 116 817 128 857.8 137.8C898.7 147.7 939.3 155.3 980.2 153.7C1021 152 1062 141 1102.8 130.5C1143.7 120 1184.3 110 1225.2 119.3C1266 128.7 1307 157.3 1327.5 171.7L1348 186L1348 138L1327.5 125.3C1307 112.7 1266 87.3 1225.2 78C1184.3 68.7 1143.7 75.3 1102.8 83C1062 90.7 1021 99.3 980.2 102.7C939.3 106 898.7 104 857.8 98.5C817 93 776 84 735.2 84C694.3 84 653.7 93 612.8 101.3C572 109.7 531 117.3 490.2 117.3C449.3 117.3 408.7 109.7 367.8 101.3C327 93 286 84 245.2 82.3C204.3 80.7 163.7 86.3 122.8 89.2C82 92 41 92 20.5 92L0 92Z" fill="#ff0027"></path><path d="M0 200L20.5 208.2C41 216.3 82 232.7 122.8 241.5C163.7 250.3 204.3 251.7 245.2 254.5C286 257.3 327 261.7 367.8 266C408.7 270.3 449.3 274.7 490.2 267.5C531 260.3 572 241.7 612.8 236.7C653.7 231.7 694.3 240.3 735.2 249.7C776 259 817 269 857.8 269.7C898.7 270.3 939.3 261.7 980.2 254.5C1021 247.3 1062 241.7 1102.8 239.3C1143.7 237 1184.3 238 1225.2 243C1266 248 1307 257 1327.5 261.5L1348 266L1348 184L1327.5 169.7C1307 155.3 1266 126.7 1225.2 117.3C1184.3 108 1143.7 118 1102.8 128.5C1062 139 1021 150 980.2 151.7C939.3 153.3 898.7 145.7 857.8 135.8C817 126 776 114 735.2 114C694.3 114 653.7 126 612.8 135.8C572 145.7 531 153.3 490.2 156.7C449.3 160 408.7 159 367.8 151.3C327 143.7 286 129.3 245.2 127.7C204.3 126 163.7 137 122.8 142C82 147 41 146 20.5 145.5L0 145Z" fill="#dd0026"></path><path d="M0 332L20.5 332C41 332 82 332 122.8 332C163.7 332 204.3 332 245.2 332C286 332 327 332 367.8 332C408.7 332 449.3 332 490.2 332C531 332 572 332 612.8 332C653.7 332 694.3 332 735.2 332C776 332 817 332 857.8 332C898.7 332 939.3 332 980.2 332C1021 332 1062 332 1102.8 332C1143.7 332 1184.3 332 1225.2 332C1266 332 1307 332 1327.5 332L1348 332L1348 264L1327.5 259.5C1307 255 1266 246 1225.2 241C1184.3 236 1143.7 235 1102.8 237.3C1062 239.7 1021 245.3 980.2 252.5C939.3 259.7 898.7 268.3 857.8 267.7C817 267 776 257 735.2 247.7C694.3 238.3 653.7 229.7 612.8 234.7C572 239.7 531 258.3 490.2 265.5C449.3 272.7 408.7 268.3 367.8 264C327 259.7 286 255.3 245.2 252.5C204.3 249.7 163.7 248.3 122.8 239.5C82 230.7 41 214.3 20.5 206.2L0 198Z" fill="#bc0024"></path></svg>