<svg xmlns="http://www.w3.org/2000/svg" xmlns:xlink="http://www.w3.org/1999/xlink" width="1920" zoomAndPan="magnify" viewBox="0 0 1440 809.999993" height="1080" preserveAspectRatio="xMidYMid meet" version="1.0"><defs><clipPath id="4513359610"><path d="M 0 0 L 232 0 L 232 252 L 0 252 Z M 0 0 " clip-rule="nonzero"/></clipPath><clipPath id="e69b1429dd"><path d="M 349.074219 -34.886719 L 81.171875 336.859375 L -136.992188 179.636719 L 130.914062 -192.105469 Z M 349.074219 -34.886719 " clip-rule="nonzero"/></clipPath><clipPath id="fb315f6bcf"><path d="M 349.074219 -34.886719 L 81.171875 336.859375 L -136.992188 179.636719 L 130.914062 -192.105469 Z M 349.074219 -34.886719 " clip-rule="nonzero"/></clipPath><clipPath id="6da297cc02"><path d="M 0 0 L 204 0 L 204 237 L 0 237 Z M 0 0 " clip-rule="nonzero"/></clipPath><clipPath id="1e8cbe7951"><path d="M 26.671875 -256.207031 L 309.46875 -72.386719 L 43.332031 337.042969 L -239.460938 153.226562 Z M 26.671875 -256.207031 " clip-rule="nonzero"/></clipPath><clipPath id="f47cd5b368"><path d="M 26.671875 -256.207031 L 309.46875 -72.386719 L 43.332031 337.042969 L -239.460938 153.226562 Z M 26.671875 -256.207031 " clip-rule="nonzero"/></clipPath><clipPath id="0da3de9968"><path d="M 1163 634 L 1440 634 L 1440 810 L 1163 810 Z M 1163 634 " clip-rule="nonzero"/></clipPath><clipPath id="5343b8cf3c"><path d="M 1048.289062 872.835938 L 1334.179688 552.167969 L 1522.367188 719.945312 L 1236.480469 1040.613281 Z M 1048.289062 872.835938 " clip-rule="nonzero"/></clipPath><clipPath id="a637ab6ee8"><path d="M 1048.289062 872.835938 L 1334.179688 552.167969 L 1522.367188 719.945312 L 1236.480469 1040.613281 Z M 1048.289062 872.835938 " clip-rule="nonzero"/></clipPath><clipPath id="afb70d94d2"><path d="M 1210 674 L 1440 674 L 1440 810 L 1210 810 Z M 1210 674 " clip-rule="nonzero"/></clipPath><clipPath id="3679162fdb"><path d="M 1452.917969 1144.039062 L 1148.113281 1059.820312 L 1270.042969 618.527344 L 1574.84375 702.742188 Z M 1452.917969 1144.039062 " clip-rule="nonzero"/></clipPath><clipPath id="073ebaf2f2"><path d="M 1452.917969 1144.039062 L 1148.113281 1059.820312 L 1270.042969 618.527344 L 1574.84375 702.742188 Z M 1452.917969 1144.039062 " clip-rule="nonzero"/></clipPath></defs><rect x="-144" width="1728" fill="#ffffff" y="-80.999999" height="971.999992" fill-opacity="1"/><rect x="-144" width="1728" fill="#ffffff" y="-80.999999" height="971.999992" fill-opacity="1"/><rect x="-144" width="1728" fill="#fbcdcf" y="-80.999999" height="971.999992" fill-opacity="1"/><g clip-path="url(#4513359610)"><g clip-path="url(#e69b1429dd)"><g clip-path="url(#fb315f6bcf)"><path fill="#ff5757" d="M 130.761719 -191.699219 C 130.761719 -191.699219 266.882812 -33.699219 222.980469 83.652344 C 179.082031 201 135.628906 210.382812 117.554688 229.941406 C 99.476562 249.5 80.214844 248.996094 56.222656 250.917969 C -4.832031 255.722656 -112.019531 193.132812 -136.746094 179.296875 Z M 130.761719 -191.699219 " fill-opacity="1" fill-rule="nonzero"/></g></g></g><g clip-path="url(#6da297cc02)"><g clip-path="url(#1e8cbe7951)"><g clip-path="url(#f47cd5b368)"><path fill="#b8b8df" d="M -166.332031 198.335938 C -189.863281 182.867188 -210.976562 163.945312 -229.105469 142.292969 L -230.613281 140.621094 L -205.921875 120.476562 L -204.574219 121.867188 C -203.636719 122.824219 -105.351562 220.65625 -32.117188 195.347656 C 42.886719 169.457031 86.792969 153.316406 114.628906 122.742188 C 117.015625 120.136719 119.480469 117.410156 122.066406 114.761719 C 149.953125 84.914062 181.492188 51.039062 173.308594 -2.425781 C 164.34375 -61.078125 135.800781 -155.140625 135.507812 -156.019531 L 135.007812 -157.382812 L 154.316406 -173.238281 L 155.632812 -170.996094 C 156.125 -170.15625 201.871094 -88.984375 203.492188 -4.109375 C 205.140625 83.378906 177.324219 129.898438 84.613281 195.023438 C 37.558594 227.996094 -18.375 241.863281 -73.269531 233.890625 C -106.625 229.007812 -138.375 216.855469 -166.332031 198.335938 Z M -224.40625 141.191406 C -181.554688 190.863281 -129.222656 221.417969 -72.714844 229.574219 C -19.03125 237.277344 35.941406 223.824219 82.078125 191.46875 C 173.429688 127.367188 200.691406 81.699219 199.101562 -4.019531 C 197.707031 -79.914062 160.386719 -153.011719 153.105469 -166.578125 L 140.140625 -155.953125 C 143.742188 -143.914062 169.246094 -58.234375 177.769531 -3.164062 C 186.300781 52.429688 152.53125 88.671875 125.523438 117.703125 C 123.058594 120.429688 120.472656 123.078125 118.085938 125.683594 C 89.371094 157.070312 45.1875 173.375 -30.496094 199.519531 C -61.980469 210.398438 -102.519531 200.847656 -147.988281 171.984375 C -168.757812 158.65625 -188.261719 143.382812 -206.054688 126.277344 Z M -224.40625 141.191406 " fill-opacity="1" fill-rule="nonzero"/><path fill="#b8b8df" d="M -166.332031 198.335938 C -189.863281 182.867188 -210.976562 163.945312 -229.105469 142.292969 L -230.613281 140.621094 L -205.921875 120.476562 L -204.574219 121.867188 C -203.636719 122.824219 -105.351562 220.65625 -32.117188 195.347656 C 42.886719 169.457031 86.792969 153.316406 114.628906 122.742188 C 117.015625 120.136719 119.480469 117.410156 122.066406 114.761719 C 149.953125 84.914062 181.492188 51.039062 173.308594 -2.425781 C 164.34375 -61.078125 135.800781 -155.140625 135.507812 -156.019531 L 135.007812 -157.382812 L 154.316406 -173.238281 L 155.632812 -170.996094 C 156.125 -170.15625 201.871094 -88.984375 203.492188 -4.109375 C 205.140625 83.378906 177.324219 129.898438 84.613281 195.023438 C 37.558594 227.996094 -18.375 241.863281 -73.269531 233.890625 C -106.625 229.007812 -138.375 216.855469 -166.332031 198.335938 Z M -224.40625 141.191406 C -181.554688 190.863281 -129.222656 221.417969 -72.714844 229.574219 C -19.03125 237.277344 35.941406 223.824219 82.078125 191.46875 C 173.429688 127.367188 200.691406 81.699219 199.101562 -4.019531 C 197.707031 -79.914062 160.386719 -153.011719 153.105469 -166.578125 L 140.140625 -155.953125 C 143.742188 -143.914062 169.246094 -58.234375 177.769531 -3.164062 C 186.300781 52.429688 152.53125 88.671875 125.523438 117.703125 C 123.058594 120.429688 120.472656 123.078125 118.085938 125.683594 C 89.371094 157.070312 45.1875 173.375 -30.496094 199.519531 C -61.980469 210.398438 -102.519531 200.847656 -147.988281 171.984375 C -168.757812 158.65625 -188.261719 143.382812 -206.054688 126.277344 Z M -224.40625 141.191406 " fill-opacity="1" fill-rule="nonzero"/><path fill="#ffffff" d="M -166.332031 198.335938 C -189.863281 182.867188 -210.976562 163.945312 -229.105469 142.292969 L -230.613281 140.621094 L -205.921875 120.476562 L -204.574219 121.867188 C -203.636719 122.824219 -105.351562 220.65625 -32.117188 195.347656 C 42.886719 169.457031 86.792969 153.316406 114.628906 122.742188 C 117.015625 120.136719 119.480469 117.410156 122.066406 114.761719 C 149.953125 84.914062 181.492188 51.039062 173.308594 -2.425781 C 164.34375 -61.078125 135.800781 -155.140625 135.507812 -156.019531 L 135.007812 -157.382812 L 154.316406 -173.238281 L 155.632812 -170.996094 C 156.125 -170.15625 201.871094 -88.984375 203.492188 -4.109375 C 205.140625 83.378906 177.324219 129.898438 84.613281 195.023438 C 37.558594 227.996094 -18.375 241.863281 -73.269531 233.890625 C -106.625 229.007812 -138.375 216.855469 -166.332031 198.335938 Z M -224.40625 141.191406 C -181.554688 190.863281 -129.222656 221.417969 -72.714844 229.574219 C -19.03125 237.277344 35.941406 223.824219 82.078125 191.46875 C 173.429688 127.367188 200.691406 81.699219 199.101562 -4.019531 C 197.707031 -79.914062 160.386719 -153.011719 153.105469 -166.578125 L 140.140625 -155.953125 C 143.742188 -143.914062 169.246094 -58.234375 177.769531 -3.164062 C 186.300781 52.429688 152.53125 88.671875 125.523438 117.703125 C 123.058594 120.429688 120.472656 123.078125 118.085938 125.683594 C 89.371094 157.070312 45.1875 173.375 -30.496094 199.519531 C -61.980469 210.398438 -102.519531 200.847656 -147.988281 171.984375 C -168.757812 158.65625 -188.261719 143.382812 -206.054688 126.277344 Z M -224.40625 141.191406 " fill-opacity="1" fill-rule="nonzero"/></g></g></g><g clip-path="url(#0da3de9968)"><g clip-path="url(#5343b8cf3c)"><g clip-path="url(#a637ab6ee8)"><path fill="#ff5757" d="M 1236.660156 1040.25 C 1236.660156 1040.25 1125.054688 879.703125 1177.375 774.53125 C 1229.695312 669.363281 1271.125 664.828125 1289.878906 648.339844 C 1308.632812 631.855469 1326.542969 634.195312 1349.105469 634.730469 C 1406.507812 636.171875 1500.390625 704.9375 1522.105469 720.238281 Z M 1236.660156 1040.25 " fill-opacity="1" fill-rule="nonzero"/></g></g></g><g clip-path="url(#afb70d94d2)"><g clip-path="url(#3679162fdb)"><g clip-path="url(#073ebaf2f2)"><path fill="#ffffff" d="M 1496.707031 683.128906 C 1522.121094 690.292969 1546.351562 701.226562 1568.683594 715.445312 L 1570.507812 716.515625 L 1554.140625 741.511719 L 1552.542969 740.644531 C 1551.433594 740.058594 1435.886719 680.449219 1377.597656 723.804688 C 1317.894531 768.183594 1283.222656 795.042969 1267 830.25 C 1265.605469 833.253906 1264.175781 836.390625 1262.613281 839.488281 C 1246.144531 874.0625 1227.542969 913.269531 1249.996094 958.738281 C 1274.621094 1008.621094 1326.761719 1084.605469 1327.273438 1085.3125 L 1328.105469 1086.390625 L 1315.339844 1106.027344 L 1313.53125 1104.394531 C 1312.851562 1103.785156 1248.980469 1044.1875 1223.5 968.789062 C 1197.253906 891.058594 1208.9375 841.609375 1273.363281 757.152344 C 1306.082031 714.355469 1352.144531 686.125 1403.464844 677.707031 C 1434.660156 672.625 1466.476562 674.496094 1496.707031 683.128906 Z M 1564.796875 717.761719 C 1512.433594 685.496094 1457.003906 673.007812 1404.191406 681.71875 C 1354.03125 690.035156 1308.707031 717.625 1276.636719 759.609375 C 1213.136719 842.765625 1201.703125 891.300781 1227.394531 967.464844 C 1250.132812 1034.902344 1304.1875 1089.667969 1314.535156 1099.730469 L 1323.117188 1086.566406 C 1316.488281 1076.824219 1269.429688 1007.46875 1246.21875 960.660156 C 1222.851562 913.386719 1242.773438 871.433594 1258.691406 837.839844 C 1260.121094 834.703125 1261.683594 831.605469 1263.078125 828.601562 C 1279.855469 792.417969 1314.730469 765.332031 1374.972656 720.539062 C 1400.03125 701.898438 1438.964844 698.953125 1487.777344 711.875 C 1510.113281 717.90625 1531.871094 726.035156 1552.617188 736.289062 Z M 1564.796875 717.761719 " fill-opacity="1" fill-rule="nonzero"/></g></g></g><path fill="#ff5757" d="M -10.757812 790.179688 C -10.757812 790.179688 -44.542969 856.453125 -24.816406 889.589844 C -5.085938 922.730469 15.417969 984.65625 70.09375 994.589844 C 124.769531 1004.523438 217.273438 974.878906 246.164062 946.011719 C 275.058594 917.140625 306.898438 830.6875 246.164062 759.914062 C 185.429688 689.136719 99.53125 680.523438 -10.757812 790.179688 Z M -10.757812 790.179688 " fill-opacity="1" fill-rule="nonzero"/><path fill="#ffffff" d="M 120.421875 953.617188 C 97.121094 953.617188 73.121094 950.046875 56.578125 942.128906 C 27.6875 928.238281 20.777344 895.800781 15.183594 869.722656 C 13.941406 863.902344 12.777344 858.394531 11.457031 853.582031 C 4.15625 827.273438 37.941406 789.871094 39.335938 788.238281 L 39.492188 788.085938 L 39.726562 787.929688 C 88.8125 760.222656 130.128906 751.300781 162.671875 761.542969 C 186.828125 769.148438 205.855469 787.308594 219.136719 815.324219 C 234.746094 848.226562 229.15625 876.941406 221.777344 895.335938 C 212.070312 919.3125 195.679688 935.300781 184.496094 941.664062 C 171.292969 949.269531 146.285156 953.617188 120.421875 953.617188 Z M 41.511719 790.566406 C 35.53125 797.398438 30.171875 804.691406 25.359375 812.453125 C 18.445312 823.78125 10.910156 840 14.40625 852.808594 C 15.726562 857.695312 16.96875 863.207031 18.210938 869.105469 C 23.648438 894.480469 30.328125 926.144531 57.898438 939.335938 C 92.152344 955.710938 158.480469 952.996094 182.945312 939.027344 C 193.660156 932.894531 209.507812 917.527344 218.824219 894.246094 C 225.972656 876.476562 231.40625 848.617188 216.261719 816.71875 C 203.371094 789.480469 184.964844 771.863281 161.664062 764.570312 C 130.128906 754.558594 89.664062 763.328125 41.511719 790.566406 Z M 41.511719 790.566406 " fill-opacity="1" fill-rule="nonzero"/><path fill="#ff5757" d="M 1179.308594 -52.34375 C 1179.308594 -52.34375 1145.523438 13.929688 1165.25 47.066406 C 1184.976562 80.203125 1205.480469 142.132812 1260.15625 152.066406 C 1314.835938 162 1407.335938 132.355469 1436.230469 103.484375 C 1465.121094 74.617188 1496.964844 -11.835938 1436.230469 -82.609375 C 1375.492188 -153.386719 1289.59375 -162 1179.308594 -52.34375 Z M 1179.308594 -52.34375 " fill-opacity="1" fill-rule="nonzero"/><path fill="#ffffff" d="M 1310.484375 111.089844 C 1287.1875 111.089844 1263.1875 107.519531 1246.644531 99.605469 C 1217.753906 85.714844 1210.839844 53.277344 1205.246094 27.199219 C 1204.003906 21.378906 1202.839844 15.871094 1201.519531 11.058594 C 1194.21875 -15.25 1228.003906 -52.65625 1229.402344 -54.285156 L 1229.558594 -54.441406 L 1229.789062 -54.59375 C 1278.875 -82.300781 1320.195312 -91.222656 1352.738281 -80.980469 C 1376.890625 -73.375 1395.917969 -55.214844 1409.199219 -27.199219 C 1424.8125 5.703125 1419.21875 34.417969 1411.839844 52.808594 C 1402.132812 76.789062 1385.746094 92.777344 1374.5625 99.140625 C 1361.359375 106.746094 1336.347656 111.089844 1310.484375 111.089844 Z M 1231.578125 -51.957031 C 1225.597656 -45.128906 1220.238281 -37.832031 1215.421875 -30.070312 C 1208.507812 -18.742188 1200.976562 -2.523438 1204.472656 10.28125 C 1205.792969 15.171875 1207.035156 20.683594 1208.277344 26.578125 C 1213.714844 51.957031 1220.394531 83.621094 1247.964844 96.8125 C 1282.214844 113.1875 1348.542969 110.46875 1373.007812 96.5 C 1383.726562 90.371094 1399.570312 75.003906 1408.890625 51.722656 C 1416.035156 33.953125 1421.472656 6.09375 1406.328125 -25.804688 C 1393.433594 -53.042969 1375.027344 -70.660156 1351.726562 -77.953125 C 1320.195312 -87.964844 1279.730469 -79.195312 1231.578125 -51.957031 Z M 1231.578125 -51.957031 " fill-opacity="1" fill-rule="nonzero"/></svg>