<svg id="visual" viewBox="0 0 900 600" width="900" height="600" xmlns="http://www.w3.org/2000/svg" xmlns:xlink="http://www.w3.org/1999/xlink" version="1.1"><path d="M0 121L13.7 122C27.3 123 54.7 125 82 120C109.3 115 136.7 103 163.8 99C191 95 218 99 245.2 115C272.3 131 299.7 159 327 163C354.3 167 381.7 147 409 134C436.3 121 463.7 115 491 110C518.3 105 545.7 101 573 102C600.3 103 627.7 109 654.8 115C682 121 709 127 736.2 125C763.3 123 790.7 113 818 117C845.3 121 872.7 139 886.3 148L900 157L900 0L886.3 0C872.7 0 845.3 0 818 0C790.7 0 763.3 0 736.2 0C709 0 682 0 654.8 0C627.7 0 600.3 0 573 0C545.7 0 518.3 0 491 0C463.7 0 436.3 0 409 0C381.7 0 354.3 0 327 0C299.7 0 272.3 0 245.2 0C218 0 191 0 163.8 0C136.7 0 109.3 0 82 0C54.7 0 27.3 0 13.7 0L0 0Z" fill="#ff6e74"></path><path d="M0 217L13.7 221C27.3 225 54.7 233 82 230C109.3 227 136.7 213 163.8 197C191 181 218 163 245.2 168C272.3 173 299.7 201 327 212C354.3 223 381.7 217 409 205C436.3 193 463.7 175 491 170C518.3 165 545.7 173 573 185C600.3 197 627.7 213 654.8 224C682 235 709 241 736.2 235C763.3 229 790.7 211 818 208C845.3 205 872.7 217 886.3 223L900 229L900 155L886.3 146C872.7 137 845.3 119 818 115C790.7 111 763.3 121 736.2 123C709 125 682 119 654.8 113C627.7 107 600.3 101 573 100C545.7 99 518.3 103 491 108C463.7 113 436.3 119 409 132C381.7 145 354.3 165 327 161C299.7 157 272.3 129 245.2 113C218 97 191 93 163.8 97C136.7 101 109.3 113 82 118C54.7 123 27.3 121 13.7 120L0 119Z" fill="#ff4950"></path><path d="M0 427L13.7 431C27.3 435 54.7 443 82 423C109.3 403 136.7 355 163.8 321C191 287 218 267 245.2 275C272.3 283 299.7 319 327 348C354.3 377 381.7 399 409 400C436.3 401 463.7 381 491 359C518.3 337 545.7 313 573 317C600.3 321 627.7 353 654.8 370C682 387 709 389 736.2 384C763.3 379 790.7 367 818 352C845.3 337 872.7 319 886.3 310L900 301L900 227L886.3 221C872.7 215 845.3 203 818 206C790.7 209 763.3 227 736.2 233C709 239 682 233 654.8 222C627.7 211 600.3 195 573 183C545.7 171 518.3 163 491 168C463.7 173 436.3 191 409 203C381.7 215 354.3 221 327 210C299.7 199 272.3 171 245.2 166C218 161 191 179 163.8 195C136.7 211 109.3 225 82 228C54.7 231 27.3 223 13.7 219L0 215Z" fill="#ff0027"></path><path d="M0 469L13.7 478C27.3 487 54.7 505 82 486C109.3 467 136.7 411 163.8 373C191 335 218 315 245.2 322C272.3 329 299.7 363 327 401C354.3 439 381.7 481 409 482C436.3 483 463.7 443 491 417C518.3 391 545.7 379 573 390C600.3 401 627.7 435 654.8 456C682 477 709 485 736.2 482C763.3 479 790.7 465 818 445C845.3 425 872.7 399 886.3 386L900 373L900 299L886.3 308C872.7 317 845.3 335 818 350C790.7 365 763.3 377 736.2 382C709 387 682 385 654.8 368C627.7 351 600.3 319 573 315C545.7 311 518.3 335 491 357C463.7 379 436.3 399 409 398C381.7 397 354.3 375 327 346C299.7 317 272.3 281 245.2 273C218 265 191 285 163.8 319C136.7 353 109.3 401 82 421C54.7 441 27.3 433 13.7 429L0 425Z" fill="#dd0026"></path><path d="M0 601L13.7 601C27.3 601 54.7 601 82 601C109.3 601 136.7 601 163.8 601C191 601 218 601 245.2 601C272.3 601 299.7 601 327 601C354.3 601 381.7 601 409 601C436.3 601 463.7 601 491 601C518.3 601 545.7 601 573 601C600.3 601 627.7 601 654.8 601C682 601 709 601 736.2 601C763.3 601 790.7 601 818 601C845.3 601 872.7 601 886.3 601L900 601L900 371L886.3 384C872.7 397 845.3 423 818 443C790.7 463 763.3 477 736.2 480C709 483 682 475 654.8 454C627.7 433 600.3 399 573 388C545.7 377 518.3 389 491 415C463.7 441 436.3 481 409 480C381.7 479 354.3 437 327 399C299.7 361 272.3 327 245.2 320C218 313 191 333 163.8 371C136.7 409 109.3 465 82 484C54.7 503 27.3 485 13.7 476L0 467Z" fill="#bc0024"></path></svg>