<svg xmlns="http://www.w3.org/2000/svg" xmlns:xlink="http://www.w3.org/1999/xlink" width="2245" zoomAndPan="magnify" viewBox="0 0 1683.75 1190.250009" height="1587" preserveAspectRatio="xMidYMid meet" version="1.0"><defs><clipPath id="3046e2b03e"><path d="M 0.40625 0 L 1683.09375 0 L 1683.09375 1189.5 L 0.40625 1189.5 Z M 0.40625 0 " clip-rule="nonzero"/></clipPath><clipPath id="d013e1e8fb"><path d="M 0.40625 0 L 261 0 L 261 429 L 0.40625 429 Z M 0.40625 0 " clip-rule="nonzero"/></clipPath><clipPath id="486aada715"><path d="M 432.636719 8.5 L 39.058594 554.628906 L -281.445312 323.65625 L 112.136719 -222.476562 Z M 432.636719 8.5 " clip-rule="nonzero"/></clipPath><clipPath id="c50347e762"><path d="M 432.636719 8.5 L 39.058594 554.628906 L -281.445312 323.65625 L 112.136719 -222.476562 Z M 432.636719 8.5 " clip-rule="nonzero"/></clipPath><clipPath id="a26d8848f9"><path d="M 0.40625 0 L 219 0 L 219 407 L 0.40625 407 Z M 0.40625 0 " clip-rule="nonzero"/></clipPath><clipPath id="55bc2e5f52"><path d="M -41.007812 -316.648438 L 374.449219 -46.597656 L -16.53125 554.902344 L -431.988281 284.851562 Z M -41.007812 -316.648438 " clip-rule="nonzero"/></clipPath><clipPath id="774252e425"><path d="M -41.007812 -316.648438 L 374.449219 -46.597656 L -16.53125 554.902344 L -431.988281 284.851562 Z M -41.007812 -316.648438 " clip-rule="nonzero"/></clipPath><clipPath id="3f2cff656b"><path d="M 1378 870 L 1683.09375 870 L 1683.09375 1189.5 L 1378 1189.5 Z M 1378 870 " clip-rule="nonzero"/></clipPath><clipPath id="d9e11c92e4"><path d="M 1209.667969 1221.300781 L 1629.667969 750.203125 L 1906.132812 996.683594 L 1486.136719 1467.78125 Z M 1209.667969 1221.300781 " clip-rule="nonzero"/></clipPath><clipPath id="ed5739af4a"><path d="M 1209.667969 1221.300781 L 1629.667969 750.203125 L 1906.132812 996.683594 L 1486.136719 1467.78125 Z M 1209.667969 1221.300781 " clip-rule="nonzero"/></clipPath><clipPath id="a574009f83"><path d="M 1447 930 L 1683.09375 930 L 1683.09375 1189.5 L 1447 1189.5 Z M 1447 930 " clip-rule="nonzero"/></clipPath><clipPath id="97f8612684"><path d="M 1804.105469 1619.722656 L 1356.320312 1496 L 1535.445312 847.691406 L 1983.234375 971.410156 Z M 1804.105469 1619.722656 " clip-rule="nonzero"/></clipPath><clipPath id="67835156bc"><path d="M 1804.105469 1619.722656 L 1356.320312 1496 L 1535.445312 847.691406 L 1983.234375 971.410156 Z M 1804.105469 1619.722656 " clip-rule="nonzero"/></clipPath><clipPath id="dcf064aebb"><path d="M 0.40625 1038 L 197 1038 L 197 1189.5 L 0.40625 1189.5 Z M 0.40625 1038 " clip-rule="nonzero"/></clipPath><clipPath id="1f899c19e4"><path d="M 0.40625 1112 L 121 1112 L 121 1189.5 L 0.40625 1189.5 Z M 0.40625 1112 " clip-rule="nonzero"/></clipPath><clipPath id="cd56124eb5"><path d="M 1486 0 L 1683.09375 0 L 1683.09375 227 L 1486 227 Z M 1486 0 " clip-rule="nonzero"/></clipPath><clipPath id="6ad6153155"><path d="M 1547 0 L 1683.09375 0 L 1683.09375 164 L 1547 164 Z M 1547 0 " clip-rule="nonzero"/></clipPath></defs><g clip-path="url(#3046e2b03e)"><path fill="#ffffff" d="M 0.40625 0 L 1683.34375 0 L 1683.34375 1197.171875 L 0.40625 1197.171875 Z M 0.40625 0 " fill-opacity="1" fill-rule="nonzero"/><path fill="#ffffff" d="M 0.40625 0 L 1683.34375 0 L 1683.34375 1189.675781 L 0.40625 1189.675781 Z M 0.40625 0 " fill-opacity="1" fill-rule="nonzero"/><path fill="#fbcdcf" d="M 0.40625 0 L 1683.34375 0 L 1683.34375 1189.675781 L 0.40625 1189.675781 Z M 0.40625 0 " fill-opacity="1" fill-rule="nonzero"/></g><g clip-path="url(#d013e1e8fb)"><g clip-path="url(#486aada715)"><g clip-path="url(#c50347e762)"><path fill="#ff5757" d="M 111.914062 -221.882812 C 111.914062 -221.882812 311.886719 10.242188 247.394531 182.640625 C 182.898438 355.039062 119.066406 368.824219 92.507812 397.558594 C 65.953125 426.292969 37.65625 425.550781 2.410156 428.371094 C -87.289062 435.433594 -244.761719 343.484375 -281.085938 323.15625 Z M 111.914062 -221.882812 " fill-opacity="1" fill-rule="nonzero"/></g></g></g><g clip-path="url(#a26d8848f9)"><g clip-path="url(#55bc2e5f52)"><g clip-path="url(#774252e425)"><path fill="#b8b8df" d="M -324.546875 351.128906 C -359.117188 328.402344 -390.140625 300.605469 -416.769531 268.792969 L -418.988281 266.332031 L -382.710938 236.738281 L -380.734375 238.785156 C -379.355469 240.191406 -234.964844 383.914062 -127.371094 346.734375 C -17.1875 308.699219 47.316406 284.984375 88.210938 240.070312 C 91.71875 236.242188 95.339844 232.238281 99.140625 228.347656 C 140.105469 184.496094 186.445312 134.730469 174.421875 56.183594 C 161.246094 -29.980469 119.316406 -168.167969 118.886719 -169.464844 L 118.152344 -171.46875 L 146.515625 -194.757812 L 148.449219 -191.464844 C 149.171875 -190.230469 216.382812 -70.980469 218.757812 53.707031 C 221.179688 182.242188 180.320312 250.582031 44.117188 346.257812 C -25.011719 394.695312 -107.183594 415.070312 -187.828125 403.355469 C -236.835938 396.183594 -283.476562 378.332031 -324.546875 351.128906 Z M -409.867188 267.171875 C -346.917969 340.148438 -270.03125 385.039062 -187.015625 397.015625 C -108.148438 408.335938 -27.390625 388.570312 40.390625 341.035156 C 174.597656 246.863281 214.644531 179.773438 212.3125 53.84375 C 210.265625 -57.65625 155.4375 -165.042969 144.738281 -184.972656 L 125.691406 -169.367188 C 130.980469 -151.679688 168.453125 -25.808594 180.976562 55.101562 C 193.507812 136.777344 143.894531 190.015625 104.21875 232.664062 C 100.59375 236.671875 96.792969 240.5625 93.289062 244.390625 C 51.109375 290.5 -13.808594 314.457031 -124.992188 352.859375 C -171.25 368.847656 -230.800781 354.816406 -297.601562 312.414062 C -328.117188 292.835938 -356.769531 270.394531 -382.90625 245.261719 Z M -409.867188 267.171875 " fill-opacity="1" fill-rule="nonzero"/><path fill="#b8b8df" d="M -324.546875 351.128906 C -359.117188 328.402344 -390.140625 300.605469 -416.769531 268.792969 L -418.988281 266.332031 L -382.710938 236.738281 L -380.734375 238.785156 C -379.355469 240.191406 -234.964844 383.914062 -127.371094 346.734375 C -17.1875 308.699219 47.316406 284.984375 88.210938 240.070312 C 91.71875 236.242188 95.339844 232.238281 99.140625 228.347656 C 140.105469 184.496094 186.445312 134.730469 174.421875 56.183594 C 161.246094 -29.980469 119.316406 -168.167969 118.886719 -169.464844 L 118.152344 -171.46875 L 146.515625 -194.757812 L 148.449219 -191.464844 C 149.171875 -190.230469 216.382812 -70.980469 218.757812 53.707031 C 221.179688 182.242188 180.320312 250.582031 44.117188 346.257812 C -25.011719 394.695312 -107.183594 415.070312 -187.828125 403.355469 C -236.835938 396.183594 -283.476562 378.332031 -324.546875 351.128906 Z M -409.867188 267.171875 C -346.917969 340.148438 -270.03125 385.039062 -187.015625 397.015625 C -108.148438 408.335938 -27.390625 388.570312 40.390625 341.035156 C 174.597656 246.863281 214.644531 179.773438 212.3125 53.84375 C 210.265625 -57.65625 155.4375 -165.042969 144.738281 -184.972656 L 125.691406 -169.367188 C 130.980469 -151.679688 168.453125 -25.808594 180.976562 55.101562 C 193.507812 136.777344 143.894531 190.015625 104.21875 232.664062 C 100.59375 236.671875 96.792969 240.5625 93.289062 244.390625 C 51.109375 290.5 -13.808594 314.457031 -124.992188 352.859375 C -171.25 368.847656 -230.800781 354.816406 -297.601562 312.414062 C -328.117188 292.835938 -356.769531 270.394531 -382.90625 245.261719 Z M -409.867188 267.171875 " fill-opacity="1" fill-rule="nonzero"/><path fill="#ffffff" d="M -324.546875 351.128906 C -359.117188 328.402344 -390.140625 300.605469 -416.769531 268.792969 L -418.988281 266.332031 L -382.710938 236.738281 L -380.734375 238.785156 C -379.355469 240.191406 -234.964844 383.914062 -127.371094 346.734375 C -17.1875 308.699219 47.316406 284.984375 88.210938 240.070312 C 91.71875 236.242188 95.339844 232.238281 99.140625 228.347656 C 140.105469 184.496094 186.445312 134.730469 174.421875 56.183594 C 161.246094 -29.980469 119.316406 -168.167969 118.886719 -169.464844 L 118.152344 -171.46875 L 146.515625 -194.757812 L 148.449219 -191.464844 C 149.171875 -190.230469 216.382812 -70.980469 218.757812 53.707031 C 221.179688 182.242188 180.320312 250.582031 44.117188 346.257812 C -25.011719 394.695312 -107.183594 415.070312 -187.828125 403.355469 C -236.835938 396.183594 -283.476562 378.332031 -324.546875 351.128906 Z M -409.867188 267.171875 C -346.917969 340.148438 -270.03125 385.039062 -187.015625 397.015625 C -108.148438 408.335938 -27.390625 388.570312 40.390625 341.035156 C 174.597656 246.863281 214.644531 179.773438 212.3125 53.84375 C 210.265625 -57.65625 155.4375 -165.042969 144.738281 -184.972656 L 125.691406 -169.367188 C 130.980469 -151.679688 168.453125 -25.808594 180.976562 55.101562 C 193.507812 136.777344 143.894531 190.015625 104.21875 232.664062 C 100.59375 236.671875 96.792969 240.5625 93.289062 244.390625 C 51.109375 290.5 -13.808594 314.457031 -124.992188 352.859375 C -171.25 368.847656 -230.800781 354.816406 -297.601562 312.414062 C -328.117188 292.835938 -356.769531 270.394531 -382.90625 245.261719 Z M -409.867188 267.171875 " fill-opacity="1" fill-rule="nonzero"/></g></g></g><g clip-path="url(#3f2cff656b)"><g clip-path="url(#d9e11c92e4)"><g clip-path="url(#ed5739af4a)"><path fill="#ff5757" d="M 1486.398438 1467.246094 C 1486.398438 1467.246094 1322.441406 1231.386719 1399.304688 1076.878906 C 1476.171875 922.371094 1537.035156 915.710938 1564.585938 891.492188 C 1592.140625 867.273438 1618.453125 870.707031 1651.597656 871.496094 C 1735.925781 873.613281 1873.847656 974.636719 1905.753906 997.113281 Z M 1486.398438 1467.246094 " fill-opacity="1" fill-rule="nonzero"/></g></g></g><g clip-path="url(#a574009f83)"><g clip-path="url(#97f8612684)"><g clip-path="url(#67835156bc)"><path fill="#ffffff" d="M 1868.441406 942.601562 C 1905.773438 953.121094 1941.371094 969.183594 1974.179688 990.074219 L 1976.859375 991.644531 L 1952.816406 1028.367188 L 1950.46875 1027.097656 C 1948.839844 1026.234375 1779.089844 938.664062 1693.453125 1002.355469 C 1605.746094 1067.554688 1554.808594 1107.011719 1530.976562 1158.734375 C 1528.929688 1163.148438 1526.824219 1167.753906 1524.53125 1172.308594 C 1500.332031 1223.097656 1473.007812 1280.703125 1505.996094 1347.5 C 1542.167969 1420.777344 1618.773438 1532.410156 1619.523438 1533.449219 L 1620.746094 1535.03125 L 1601.988281 1563.878906 L 1599.332031 1561.484375 C 1598.335938 1560.585938 1504.5 1473.035156 1467.066406 1362.265625 C 1428.507812 1248.070312 1445.675781 1175.421875 1540.320312 1051.34375 C 1588.390625 988.476562 1656.0625 947 1731.457031 934.632812 C 1777.289062 927.167969 1824.03125 929.914062 1868.441406 942.601562 Z M 1968.46875 993.476562 C 1891.542969 946.078125 1810.113281 927.730469 1732.523438 940.527344 C 1658.832031 952.742188 1592.25 993.277344 1545.128906 1054.957031 C 1451.84375 1177.125 1435.046875 1248.425781 1472.789062 1360.320312 C 1506.195312 1459.394531 1585.605469 1539.847656 1600.8125 1554.632812 L 1613.414062 1535.289062 C 1603.679688 1520.980469 1534.546875 1419.089844 1500.445312 1350.324219 C 1466.117188 1280.871094 1495.382812 1219.242188 1518.769531 1169.886719 C 1520.871094 1165.277344 1523.167969 1160.726562 1525.214844 1156.3125 C 1549.859375 1103.15625 1601.09375 1063.363281 1689.597656 997.554688 C 1726.410156 970.171875 1783.609375 965.847656 1855.320312 984.832031 C 1888.136719 993.691406 1920.097656 1005.632812 1950.578125 1020.695312 Z M 1968.46875 993.476562 " fill-opacity="1" fill-rule="nonzero"/></g></g></g><g clip-path="url(#dcf064aebb)"><path fill="#ff5757" d="M -231.6875 1160.871094 C -231.6875 1160.871094 -281.296875 1258.238281 -252.328125 1306.925781 C -223.363281 1355.609375 -193.257812 1446.597656 -112.972656 1461.191406 C -32.691406 1475.785156 103.132812 1432.230469 145.554688 1389.816406 C 187.976562 1347.402344 234.734375 1220.386719 145.554688 1116.402344 C 56.375 1012.417969 -69.753906 999.765625 -231.6875 1160.871094 Z M -231.6875 1160.871094 " fill-opacity="1" fill-rule="nonzero"/></g><g clip-path="url(#1f899c19e4)"><path fill="#ffffff" d="M -39.074219 1400.988281 C -73.289062 1400.988281 -108.527344 1395.746094 -132.816406 1384.113281 C -175.238281 1363.707031 -185.386719 1316.046875 -193.597656 1277.738281 C -195.425781 1269.1875 -197.132812 1261.089844 -199.074219 1254.023438 C -209.792969 1215.371094 -160.1875 1160.414062 -158.132812 1158.019531 L -157.90625 1157.792969 L -157.5625 1157.5625 C -85.488281 1116.859375 -24.820312 1103.746094 22.960938 1118.796875 C 58.429688 1129.972656 86.367188 1156.652344 105.867188 1197.8125 C 128.789062 1246.15625 120.578125 1288.339844 109.746094 1315.363281 C 95.492188 1350.59375 71.429688 1374.082031 55.007812 1383.429688 C 35.621094 1394.605469 -1.101562 1400.988281 -39.074219 1400.988281 Z M -154.941406 1161.441406 C -163.722656 1171.472656 -171.589844 1182.191406 -178.660156 1193.59375 C -188.808594 1210.238281 -199.871094 1234.070312 -194.738281 1252.882812 C -192.800781 1260.0625 -190.976562 1268.160156 -189.152344 1276.824219 C -181.167969 1314.109375 -171.363281 1360.628906 -130.878906 1380.011719 C -80.585938 1404.066406 16.804688 1400.078125 52.726562 1379.554688 C 68.464844 1370.546875 91.726562 1347.972656 105.414062 1313.765625 C 115.902344 1287.65625 123.886719 1246.722656 101.648438 1199.863281 C 82.71875 1159.84375 55.691406 1133.960938 21.480469 1123.242188 C -24.820312 1108.535156 -84.234375 1121.417969 -154.941406 1161.441406 Z M -154.941406 1161.441406 " fill-opacity="1" fill-rule="nonzero"/></g><g clip-path="url(#cd56124eb5)"><path fill="#ff5757" d="M 1516.644531 -76.890625 C 1516.644531 -76.890625 1467.039062 20.480469 1496.003906 69.167969 C 1524.96875 117.851562 1555.078125 208.835938 1635.359375 223.429688 C 1715.644531 238.023438 1851.464844 194.46875 1893.886719 152.054688 C 1936.3125 109.640625 1983.066406 -17.371094 1893.886719 -121.355469 C 1804.710938 -225.339844 1678.582031 -237.996094 1516.644531 -76.890625 Z M 1516.644531 -76.890625 " fill-opacity="1" fill-rule="nonzero"/></g><g clip-path="url(#6ad6153155)"><path fill="#ffffff" d="M 1709.257812 163.230469 C 1675.046875 163.230469 1639.808594 157.984375 1615.515625 146.355469 C 1573.09375 125.945312 1562.945312 78.289062 1554.734375 39.976562 C 1552.910156 31.425781 1551.199219 23.332031 1549.261719 16.261719 C 1538.539062 -22.390625 1588.148438 -77.34375 1590.199219 -79.738281 L 1590.429688 -79.96875 L 1590.769531 -80.195312 C 1662.84375 -120.898438 1723.511719 -134.011719 1771.296875 -118.960938 C 1806.761719 -107.789062 1834.703125 -81.109375 1854.203125 -39.949219 C 1877.125 8.394531 1868.914062 50.582031 1858.078125 77.601562 C 1843.824219 112.835938 1819.761719 136.320312 1803.339844 145.671875 C 1783.953125 156.84375 1747.234375 163.230469 1709.257812 163.230469 Z M 1593.394531 -76.320312 C 1584.613281 -66.285156 1576.742188 -55.570312 1569.671875 -44.167969 C 1559.523438 -27.519531 1548.460938 -3.691406 1553.59375 15.121094 C 1555.53125 22.304688 1557.355469 30.398438 1559.183594 39.066406 C 1567.164062 76.347656 1576.972656 122.867188 1617.457031 142.25 C 1667.746094 166.308594 1765.136719 162.316406 1801.058594 141.792969 C 1816.796875 132.789062 1840.0625 110.210938 1853.746094 76.007812 C 1864.238281 49.898438 1872.21875 8.964844 1849.984375 -37.894531 C 1831.050781 -77.914062 1804.023438 -103.796875 1769.8125 -114.515625 C 1723.511719 -129.222656 1664.097656 -116.339844 1593.394531 -76.320312 Z M 1593.394531 -76.320312 " fill-opacity="1" fill-rule="nonzero"/></g></svg>