<svg xmlns="http://www.w3.org/2000/svg" version="1.1" xmlns:xlink="http://www.w3.org/1999/xlink" xmlns:svgjs="http://svgjs.com/svgjs" width="1440" height="560" preserveAspectRatio="none" viewBox="0 0 1440 560"><g mask="url(&quot;#SvgjsMask1012&quot;)" fill="none"><rect width="1440" height="560" x="0" y="0" fill="rgba(237, 131, 131, 0.57)"></rect><path d="M37.485,109.751C61.492,110.515,78.465,88.874,90.046,67.831C101.115,47.718,107.061,23.823,95.779,3.828C84.336,-16.452,60.755,-26.176,37.485,-25.323C15.665,-24.523,-3.725,-11.499,-13.846,7.849C-23.28,25.884,-18.744,46.483,-9.587,64.661C0.89,85.459,14.209,109.01,37.485,109.751" fill="rgba(255, 0, 0, 0.4)" class="triangle-float2"></path><path d="M102.802,232.966C146.018,232.33,178.24,196.143,197.197,157.301C213.765,123.353,210.707,84.114,191.252,51.734C172.415,20.383,139.319,2.257,102.802,0.19C61.774,-2.132,16.802,5.722,-4.877,40.633C-27.458,76.996,-17.442,122.803,3.468,160.152C24.963,198.546,58.805,233.613,102.802,232.966" fill="rgba(255, 0, 0, 0.4)" class="triangle-float2"></path><path d="M13.846,60.034C29.732,60.306,43.12,49.086,50.673,35.108C57.841,21.842,58.065,5.718,50.116,-7.095C42.559,-19.276,28.179,-24.465,13.846,-24.253C-0.075,-24.047,-13.478,-18.005,-20.614,-6.05C-27.926,6.199,-27.453,21.231,-20.857,33.881C-13.679,47.647,-1.677,59.768,13.846,60.034" fill="rgba(255, 0, 0, 0.4)" class="triangle-float3"></path><path d="M1467.592,308.02C1528.165,308.643,1586.623,278.233,1615.388,224.922C1642.924,173.889,1628.323,113.752,1599.589,63.384C1570.534,12.455,1526.22,-34.977,1467.592,-34.146C1409.956,-33.329,1369.965,16.675,1341.918,67.034C1314.83,115.671,1299.228,172.573,1324.97,221.935C1352.49,274.706,1408.079,307.408,1467.592,308.02" fill="rgba(255, 0, 0, 0.4)" class="triangle-float2"></path><path d="M1436.719,243.144C1482.46,240.989,1517.843,208.426,1541.372,169.141C1565.743,128.451,1583.881,78.521,1559.787,37.666C1535.944,-2.764,1483.595,-10.708,1436.719,-8.317C1394.599,-6.169,1356.736,13.918,1333.629,49.2C1307.748,88.718,1291.296,138.166,1313.468,179.878C1336.699,223.583,1387.278,245.473,1436.719,243.144" fill="rgba(255, 0, 0, 0.4)" class="triangle-float1"></path><path d="M1434.765,235.224C1477.771,233.06,1510.269,200.051,1530.548,162.065C1549.492,126.581,1554.556,84.044,1533.903,49.527C1513.735,15.819,1474.046,1.909,1434.765,1.981C1395.629,2.053,1358.004,17.354,1336.254,49.89C1311.69,86.636,1299.946,133.596,1320.691,172.625C1342.51,213.675,1388.336,237.56,1434.765,235.224" fill="rgba(255, 0, 0, 0.4)" class="triangle-float3"></path><path d="M81.599,637.978C117.77,635.958,145.311,608.157,161.761,575.88C176.603,546.758,175.351,513.196,159.864,484.412C143.422,453.852,116.301,426.806,81.599,426.888C47.003,426.97,22.045,455.281,3.975,484.783C-15.229,516.136,-32.348,552.995,-15.73,585.792C2.103,620.987,42.205,640.178,81.599,637.978" fill="rgba(255, 0, 0, 0.4)" class="triangle-float1"></path><path d="M105.115,673.931C150.224,674.245,195.281,657.249,218.64,618.658C242.773,578.788,241.062,528.439,217.526,488.214C194.225,448.391,151.2,422.409,105.115,424.634C62.214,426.705,31.482,461.008,10.05,498.229C-11.327,535.353,-26.094,579.42,-5.708,617.098C15.466,656.233,60.62,673.621,105.115,673.931" fill="rgba(255, 0, 0, 0.4)" class="triangle-float1"></path><path d="M58.602,597.903C88.37,597.629,105.766,568.205,120.904,542.572C136.43,516.281,154.572,486.42,140.415,459.367C125.619,431.093,90.494,422.404,58.602,423.52C28.832,424.562,0.196,438.503,-13.857,464.768C-27.238,489.776,-19.279,518.826,-5.72,543.738C8.642,570.126,28.56,598.18,58.602,597.903" fill="rgba(255, 0, 0, 0.4)" class="triangle-float1"></path><path d="M1408.62,644.733C1447.887,643.778,1478.307,614.204,1497.394,579.874C1515.855,546.671,1522.431,506.778,1503.7,473.726C1484.736,440.263,1447.08,423.68,1408.62,423.226C1369.266,422.761,1329.799,437.673,1309.567,471.432C1288.819,506.053,1292.012,549.338,1312.041,584.38C1332.231,619.704,1367.945,645.722,1408.62,644.733" fill="rgba(255, 0, 0, 0.4)" class="triangle-float2"></path><path d="M1356.177,528.995C1374.601,528.104,1389.841,516.89,1399.783,501.353C1410.761,484.198,1419.548,463.1,1409.779,445.229C1399.739,426.863,1377.108,421.706,1356.177,421.579C1334.965,421.45,1312.498,426.473,1301.434,444.571C1289.98,463.307,1292.65,487.531,1304.597,505.956C1315.577,522.89,1336.019,529.97,1356.177,528.995" fill="rgba(255, 0, 0, 0.4)" class="triangle-float3"></path><path d="M1354.662,535.008C1374.249,534.97,1385.99,515.351,1395.145,498.035C1403.525,482.185,1408.515,464.228,1400.59,448.146C1391.726,430.158,1374.711,415.491,1354.662,415.881C1335.102,416.262,1320.413,432.344,1311.731,449.876C1304.063,465.361,1306.122,482.765,1313.903,498.194C1322.738,515.714,1335.04,535.047,1354.662,535.008" fill="rgba(255, 0, 0, 0.4)" class="triangle-float2"></path></g><defs><mask id="SvgjsMask1012"><rect width="1440" height="560" fill="#ffffff"></rect></mask><style>
            @keyframes float1 {
                0%{transform: translate(0, 0)}
                50%{transform: translate(-10px, 0)}
                100%{transform: translate(0, 0)}
            }

            .triangle-float1 {
                animation: float1 5s infinite;
            }

            @keyframes float2 {
                0%{transform: translate(0, 0)}
                50%{transform: translate(-5px, -5px)}
                100%{transform: translate(0, 0)}
            }

            .triangle-float2 {
                animation: float2 4s infinite;
            }

            @keyframes float3 {
                0%{transform: translate(0, 0)}
                50%{transform: translate(0, -10px)}
                100%{transform: translate(0, 0)}
            }

            .triangle-float3 {
                animation: float3 6s infinite;
            }
        </style></defs></svg>