<svg xmlns="http://www.w3.org/2000/svg" viewBox="0 0 32 32"><g data-name="5"><path fill="red" d="M18.54,14.38H17V12.85a1,1,0,0,0-2,0v1.53H13.46a1,1,0,0,0,0,2H15v1.54a1,1,0,0,0,2,0V16.38h1.54a1,1,0,1,0,0-2Z"/><path fill="red" d="M16.72,2.31a1,1,0,0,0-1.44,0c-.9.94-8.74,9.3-8.74,14.23,0,.32,0,.64,0,.95a1,1,0,0,0,2-.14c0-.27,0-.53,0-.81,0-3.17,4.86-9.19,7.46-12.07,2.6,2.87,7.46,8.89,7.46,12.07,0,.28,0,.54,0,.81a1,1,0,0,0,.93,1.07h.07a1,1,0,0,0,1-.93c0-.31,0-.63,0-.95C25.46,11.61,17.62,3.25,16.72,2.31Z"/><path d="M27,9a3,3,0,0,0-3,3v3.92a2.78,2.78,0,0,0-3,.62l-5,5.05-5-5.05a2.78,2.78,0,0,0-3-.62V12a3,3,0,0,0-6,0v9a1,1,0,0,0,.29.71l8,8A1,1,0,0,0,11,30H21a1,1,0,0,0,.71-.29l8-8A1,1,0,0,0,30,21V12A3,3,0,0,0,27,9ZM15,28H11.41L4,20.59V12a1,1,0,0,1,2,0v6a1,1,0,0,0,.25.64A2.76,2.76,0,0,0,7,20.46l.76.76.07.06,2.92,2.93a1,1,0,0,0,1.42-1.42L8.46,19a.76.76,0,0,1,0-1.08.78.78,0,0,1,1.08,0L15,23.41Zm13-7.41L20.59,28H17V23.41L22.46,18a.78.78,0,0,1,1.08,0,.76.76,0,0,1,0,1.08l-3.75,3.75a1,1,0,0,0,1.42,1.42l2.92-2.92.07-.07.76-.76a2.76,2.76,0,0,0,.79-1.82A1,1,0,0,0,26,18V12a1,1,0,0,1,2,0Z"/></g></svg>